<?xml version="1.0" encoding="utf-8" standalone="no"?>
<!DOCTYPE svg PUBLIC "-//W3C//DTD SVG 1.1//EN"
  "http://www.w3.org/Graphics/SVG/1.1/DTD/svg11.dtd">
<svg xmlns:xlink="http://www.w3.org/1999/xlink" width="660.91933pt" height="511.697205pt" viewBox="0 0 660.91933 511.697205" xmlns="http://www.w3.org/2000/svg" version="1.1">
 <metadata>
  <rdf:RDF xmlns:dc="http://purl.org/dc/elements/1.1/" xmlns:cc="http://creativecommons.org/ns#" xmlns:rdf="http://www.w3.org/1999/02/22-rdf-syntax-ns#">
   <cc:Work>
    <dc:type rdf:resource="http://purl.org/dc/dcmitype/StillImage"/>
    <dc:date>2025-07-03T11:33:43.152420</dc:date>
    <dc:format>image/svg+xml</dc:format>
    <dc:creator>
     <cc:Agent>
      <dc:title>Matplotlib v3.10.1, https://matplotlib.org/</dc:title>
     </cc:Agent>
    </dc:creator>
   </cc:Work>
  </rdf:RDF>
 </metadata>
 <defs>
  <style type="text/css">*{stroke-linejoin: round; stroke-linecap: butt}</style>
 </defs>
 <g id="figure_1">
  <g id="patch_1">
   <path d="M 0 511.697205 
L 660.91933 511.697205 
L 660.91933 0 
L 0 0 
z
" style="fill: #ffffff"/>
  </g>
  <g id="axes_1">
   <g id="patch_2">
    <path d="M 95.71933 306.429063 
L 653.71933 306.429063 
L 653.71933 29.229063 
L 95.71933 29.229063 
z
" style="fill: #ffffff"/>
   </g>
   <g id="matplotlib.axis_1">
    <g id="xtick_1">
     <g id="line2d_1">
      <path d="M 132.110634 306.429063 
L 132.110634 29.229063 
" clip-path="url(#p5fffc5c51f)" style="fill: none; stroke: #cccccc; stroke-linecap: round"/>
     </g>
     <g id="text_1">
      <!-- Sandy Loam | Intact -->
      <g style="fill: #262626" transform="translate(16.46553 438.160867) rotate(-45) scale(0.18 -0.18)">
       <defs>
        <path id="ArialMT-53" d="M 288 1472 
L 859 1522 
Q 900 1178 1048 958 
Q 1197 738 1509 602 
Q 1822 466 2213 466 
Q 2559 466 2825 569 
Q 3091 672 3220 851 
Q 3350 1031 3350 1244 
Q 3350 1459 3225 1620 
Q 3100 1781 2813 1891 
Q 2628 1963 1997 2114 
Q 1366 2266 1113 2400 
Q 784 2572 623 2826 
Q 463 3081 463 3397 
Q 463 3744 659 4045 
Q 856 4347 1234 4503 
Q 1613 4659 2075 4659 
Q 2584 4659 2973 4495 
Q 3363 4331 3572 4012 
Q 3781 3694 3797 3291 
L 3216 3247 
Q 3169 3681 2898 3903 
Q 2628 4125 2100 4125 
Q 1550 4125 1298 3923 
Q 1047 3722 1047 3438 
Q 1047 3191 1225 3031 
Q 1400 2872 2139 2705 
Q 2878 2538 3153 2413 
Q 3553 2228 3743 1945 
Q 3934 1663 3934 1294 
Q 3934 928 3725 604 
Q 3516 281 3123 101 
Q 2731 -78 2241 -78 
Q 1619 -78 1198 103 
Q 778 284 539 648 
Q 300 1013 288 1472 
z
" transform="scale(0.015625)"/>
        <path id="ArialMT-61" d="M 2588 409 
Q 2275 144 1986 34 
Q 1697 -75 1366 -75 
Q 819 -75 525 192 
Q 231 459 231 875 
Q 231 1119 342 1320 
Q 453 1522 633 1644 
Q 813 1766 1038 1828 
Q 1203 1872 1538 1913 
Q 2219 1994 2541 2106 
Q 2544 2222 2544 2253 
Q 2544 2597 2384 2738 
Q 2169 2928 1744 2928 
Q 1347 2928 1158 2789 
Q 969 2650 878 2297 
L 328 2372 
Q 403 2725 575 2942 
Q 747 3159 1072 3276 
Q 1397 3394 1825 3394 
Q 2250 3394 2515 3294 
Q 2781 3194 2906 3042 
Q 3031 2891 3081 2659 
Q 3109 2516 3109 2141 
L 3109 1391 
Q 3109 606 3145 398 
Q 3181 191 3288 0 
L 2700 0 
Q 2613 175 2588 409 
z
M 2541 1666 
Q 2234 1541 1622 1453 
Q 1275 1403 1131 1340 
Q 988 1278 909 1158 
Q 831 1038 831 891 
Q 831 666 1001 516 
Q 1172 366 1500 366 
Q 1825 366 2078 508 
Q 2331 650 2450 897 
Q 2541 1088 2541 1459 
L 2541 1666 
z
" transform="scale(0.015625)"/>
        <path id="ArialMT-6e" d="M 422 0 
L 422 3319 
L 928 3319 
L 928 2847 
Q 1294 3394 1984 3394 
Q 2284 3394 2536 3286 
Q 2788 3178 2913 3003 
Q 3038 2828 3088 2588 
Q 3119 2431 3119 2041 
L 3119 0 
L 2556 0 
L 2556 2019 
Q 2556 2363 2490 2533 
Q 2425 2703 2258 2804 
Q 2091 2906 1866 2906 
Q 1506 2906 1245 2678 
Q 984 2450 984 1813 
L 984 0 
L 422 0 
z
" transform="scale(0.015625)"/>
        <path id="ArialMT-64" d="M 2575 0 
L 2575 419 
Q 2259 -75 1647 -75 
Q 1250 -75 917 144 
Q 584 363 401 755 
Q 219 1147 219 1656 
Q 219 2153 384 2558 
Q 550 2963 881 3178 
Q 1213 3394 1622 3394 
Q 1922 3394 2156 3267 
Q 2391 3141 2538 2938 
L 2538 4581 
L 3097 4581 
L 3097 0 
L 2575 0 
z
M 797 1656 
Q 797 1019 1065 703 
Q 1334 388 1700 388 
Q 2069 388 2326 689 
Q 2584 991 2584 1609 
Q 2584 2291 2321 2609 
Q 2059 2928 1675 2928 
Q 1300 2928 1048 2622 
Q 797 2316 797 1656 
z
" transform="scale(0.015625)"/>
        <path id="ArialMT-79" d="M 397 -1278 
L 334 -750 
Q 519 -800 656 -800 
Q 844 -800 956 -737 
Q 1069 -675 1141 -563 
Q 1194 -478 1313 -144 
Q 1328 -97 1363 -6 
L 103 3319 
L 709 3319 
L 1400 1397 
Q 1534 1031 1641 628 
Q 1738 1016 1872 1384 
L 2581 3319 
L 3144 3319 
L 1881 -56 
Q 1678 -603 1566 -809 
Q 1416 -1088 1222 -1217 
Q 1028 -1347 759 -1347 
Q 597 -1347 397 -1278 
z
" transform="scale(0.015625)"/>
        <path id="ArialMT-20" transform="scale(0.015625)"/>
        <path id="ArialMT-4c" d="M 469 0 
L 469 4581 
L 1075 4581 
L 1075 541 
L 3331 541 
L 3331 0 
L 469 0 
z
" transform="scale(0.015625)"/>
        <path id="ArialMT-6f" d="M 213 1659 
Q 213 2581 725 3025 
Q 1153 3394 1769 3394 
Q 2453 3394 2887 2945 
Q 3322 2497 3322 1706 
Q 3322 1066 3130 698 
Q 2938 331 2570 128 
Q 2203 -75 1769 -75 
Q 1072 -75 642 372 
Q 213 819 213 1659 
z
M 791 1659 
Q 791 1022 1069 705 
Q 1347 388 1769 388 
Q 2188 388 2466 706 
Q 2744 1025 2744 1678 
Q 2744 2294 2464 2611 
Q 2184 2928 1769 2928 
Q 1347 2928 1069 2612 
Q 791 2297 791 1659 
z
" transform="scale(0.015625)"/>
        <path id="ArialMT-6d" d="M 422 0 
L 422 3319 
L 925 3319 
L 925 2853 
Q 1081 3097 1340 3245 
Q 1600 3394 1931 3394 
Q 2300 3394 2536 3241 
Q 2772 3088 2869 2813 
Q 3263 3394 3894 3394 
Q 4388 3394 4653 3120 
Q 4919 2847 4919 2278 
L 4919 0 
L 4359 0 
L 4359 2091 
Q 4359 2428 4304 2576 
Q 4250 2725 4106 2815 
Q 3963 2906 3769 2906 
Q 3419 2906 3187 2673 
Q 2956 2441 2956 1928 
L 2956 0 
L 2394 0 
L 2394 2156 
Q 2394 2531 2256 2718 
Q 2119 2906 1806 2906 
Q 1569 2906 1367 2781 
Q 1166 2656 1075 2415 
Q 984 2175 984 1722 
L 984 0 
L 422 0 
z
" transform="scale(0.015625)"/>
        <path id="ArialMT-7c" d="M 588 -1347 
L 588 4659 
L 1078 4659 
L 1078 -1347 
L 588 -1347 
z
" transform="scale(0.015625)"/>
        <path id="ArialMT-49" d="M 597 0 
L 597 4581 
L 1203 4581 
L 1203 0 
L 597 0 
z
" transform="scale(0.015625)"/>
        <path id="ArialMT-74" d="M 1650 503 
L 1731 6 
Q 1494 -44 1306 -44 
Q 1000 -44 831 53 
Q 663 150 594 308 
Q 525 466 525 972 
L 525 2881 
L 113 2881 
L 113 3319 
L 525 3319 
L 525 4141 
L 1084 4478 
L 1084 3319 
L 1650 3319 
L 1650 2881 
L 1084 2881 
L 1084 941 
Q 1084 700 1114 631 
Q 1144 563 1211 522 
Q 1278 481 1403 481 
Q 1497 481 1650 503 
z
" transform="scale(0.015625)"/>
        <path id="ArialMT-63" d="M 2588 1216 
L 3141 1144 
Q 3050 572 2676 248 
Q 2303 -75 1759 -75 
Q 1078 -75 664 370 
Q 250 816 250 1647 
Q 250 2184 428 2587 
Q 606 2991 970 3192 
Q 1334 3394 1763 3394 
Q 2303 3394 2647 3120 
Q 2991 2847 3088 2344 
L 2541 2259 
Q 2463 2594 2264 2762 
Q 2066 2931 1784 2931 
Q 1359 2931 1093 2626 
Q 828 2322 828 1663 
Q 828 994 1084 691 
Q 1341 388 1753 388 
Q 2084 388 2306 591 
Q 2528 794 2588 1216 
z
" transform="scale(0.015625)"/>
       </defs>
       <use xlink:href="#ArialMT-53"/>
       <use xlink:href="#ArialMT-61" transform="translate(66.699219 0)"/>
       <use xlink:href="#ArialMT-6e" transform="translate(122.314453 0)"/>
       <use xlink:href="#ArialMT-64" transform="translate(177.929688 0)"/>
       <use xlink:href="#ArialMT-79" transform="translate(233.544922 0)"/>
       <use xlink:href="#ArialMT-20" transform="translate(283.544922 0)"/>
       <use xlink:href="#ArialMT-4c" transform="translate(311.328125 0)"/>
       <use xlink:href="#ArialMT-6f" transform="translate(366.943359 0)"/>
       <use xlink:href="#ArialMT-61" transform="translate(422.558594 0)"/>
       <use xlink:href="#ArialMT-6d" transform="translate(478.173828 0)"/>
       <use xlink:href="#ArialMT-20" transform="translate(561.474609 0)"/>
       <use xlink:href="#ArialMT-7c" transform="translate(589.257812 0)"/>
       <use xlink:href="#ArialMT-20" transform="translate(615.234375 0)"/>
       <use xlink:href="#ArialMT-49" transform="translate(643.017578 0)"/>
       <use xlink:href="#ArialMT-6e" transform="translate(670.800781 0)"/>
       <use xlink:href="#ArialMT-74" transform="translate(726.416016 0)"/>
       <use xlink:href="#ArialMT-61" transform="translate(754.199219 0)"/>
       <use xlink:href="#ArialMT-63" transform="translate(809.814453 0)"/>
       <use xlink:href="#ArialMT-74" transform="translate(859.814453 0)"/>
      </g>
     </g>
    </g>
    <g id="xtick_2">
     <g id="line2d_2">
      <path d="M 176.221306 306.429063 
L 176.221306 29.229063 
" clip-path="url(#p5fffc5c51f)" style="fill: none; stroke: #cccccc; stroke-linecap: round"/>
     </g>
     <g id="text_2">
      <!-- Sandy Loam | Repacked -->
      <g style="fill: #262626" transform="translate(34.394468 464.3426) rotate(-45) scale(0.18 -0.18)">
       <defs>
        <path id="ArialMT-52" d="M 503 0 
L 503 4581 
L 2534 4581 
Q 3147 4581 3465 4457 
Q 3784 4334 3975 4021 
Q 4166 3709 4166 3331 
Q 4166 2844 3850 2509 
Q 3534 2175 2875 2084 
Q 3116 1969 3241 1856 
Q 3506 1613 3744 1247 
L 4541 0 
L 3778 0 
L 3172 953 
Q 2906 1366 2734 1584 
Q 2563 1803 2427 1890 
Q 2291 1978 2150 2013 
Q 2047 2034 1813 2034 
L 1109 2034 
L 1109 0 
L 503 0 
z
M 1109 2559 
L 2413 2559 
Q 2828 2559 3062 2645 
Q 3297 2731 3419 2920 
Q 3541 3109 3541 3331 
Q 3541 3656 3305 3865 
Q 3069 4075 2559 4075 
L 1109 4075 
L 1109 2559 
z
" transform="scale(0.015625)"/>
        <path id="ArialMT-65" d="M 2694 1069 
L 3275 997 
Q 3138 488 2766 206 
Q 2394 -75 1816 -75 
Q 1088 -75 661 373 
Q 234 822 234 1631 
Q 234 2469 665 2931 
Q 1097 3394 1784 3394 
Q 2450 3394 2872 2941 
Q 3294 2488 3294 1666 
Q 3294 1616 3291 1516 
L 816 1516 
Q 847 969 1125 678 
Q 1403 388 1819 388 
Q 2128 388 2347 550 
Q 2566 713 2694 1069 
z
M 847 1978 
L 2700 1978 
Q 2663 2397 2488 2606 
Q 2219 2931 1791 2931 
Q 1403 2931 1139 2672 
Q 875 2413 847 1978 
z
" transform="scale(0.015625)"/>
        <path id="ArialMT-70" d="M 422 -1272 
L 422 3319 
L 934 3319 
L 934 2888 
Q 1116 3141 1344 3267 
Q 1572 3394 1897 3394 
Q 2322 3394 2647 3175 
Q 2972 2956 3137 2557 
Q 3303 2159 3303 1684 
Q 3303 1175 3120 767 
Q 2938 359 2589 142 
Q 2241 -75 1856 -75 
Q 1575 -75 1351 44 
Q 1128 163 984 344 
L 984 -1272 
L 422 -1272 
z
M 931 1641 
Q 931 1000 1190 694 
Q 1450 388 1819 388 
Q 2194 388 2461 705 
Q 2728 1022 2728 1688 
Q 2728 2322 2467 2637 
Q 2206 2953 1844 2953 
Q 1484 2953 1207 2617 
Q 931 2281 931 1641 
z
" transform="scale(0.015625)"/>
        <path id="ArialMT-6b" d="M 425 0 
L 425 4581 
L 988 4581 
L 988 1969 
L 2319 3319 
L 3047 3319 
L 1778 2088 
L 3175 0 
L 2481 0 
L 1384 1697 
L 988 1316 
L 988 0 
L 425 0 
z
" transform="scale(0.015625)"/>
       </defs>
       <use xlink:href="#ArialMT-53"/>
       <use xlink:href="#ArialMT-61" transform="translate(66.699219 0)"/>
       <use xlink:href="#ArialMT-6e" transform="translate(122.314453 0)"/>
       <use xlink:href="#ArialMT-64" transform="translate(177.929688 0)"/>
       <use xlink:href="#ArialMT-79" transform="translate(233.544922 0)"/>
       <use xlink:href="#ArialMT-20" transform="translate(283.544922 0)"/>
       <use xlink:href="#ArialMT-4c" transform="translate(311.328125 0)"/>
       <use xlink:href="#ArialMT-6f" transform="translate(366.943359 0)"/>
       <use xlink:href="#ArialMT-61" transform="translate(422.558594 0)"/>
       <use xlink:href="#ArialMT-6d" transform="translate(478.173828 0)"/>
       <use xlink:href="#ArialMT-20" transform="translate(561.474609 0)"/>
       <use xlink:href="#ArialMT-7c" transform="translate(589.257812 0)"/>
       <use xlink:href="#ArialMT-20" transform="translate(615.234375 0)"/>
       <use xlink:href="#ArialMT-52" transform="translate(643.017578 0)"/>
       <use xlink:href="#ArialMT-65" transform="translate(715.234375 0)"/>
       <use xlink:href="#ArialMT-70" transform="translate(770.849609 0)"/>
       <use xlink:href="#ArialMT-61" transform="translate(826.464844 0)"/>
       <use xlink:href="#ArialMT-63" transform="translate(882.080078 0)"/>
       <use xlink:href="#ArialMT-6b" transform="translate(932.080078 0)"/>
       <use xlink:href="#ArialMT-65" transform="translate(982.080078 0)"/>
       <use xlink:href="#ArialMT-64" transform="translate(1037.695312 0)"/>
      </g>
     </g>
    </g>
    <g id="xtick_3">
     <g id="line2d_3">
      <path d="M 220.331978 306.429063 
L 220.331978 29.229063 
" clip-path="url(#p5fffc5c51f)" style="fill: none; stroke: #cccccc; stroke-linecap: round"/>
     </g>
     <g id="text_3">
      <!-- Sandy Loam | HiHydroSoil v2.0 -->
      <g style="fill: #262626" transform="translate(41.029364 501.818375) rotate(-45) scale(0.18 -0.18)">
       <defs>
        <path id="ArialMT-48" d="M 513 0 
L 513 4581 
L 1119 4581 
L 1119 2700 
L 3500 2700 
L 3500 4581 
L 4106 4581 
L 4106 0 
L 3500 0 
L 3500 2159 
L 1119 2159 
L 1119 0 
L 513 0 
z
" transform="scale(0.015625)"/>
        <path id="ArialMT-69" d="M 425 3934 
L 425 4581 
L 988 4581 
L 988 3934 
L 425 3934 
z
M 425 0 
L 425 3319 
L 988 3319 
L 988 0 
L 425 0 
z
" transform="scale(0.015625)"/>
        <path id="ArialMT-72" d="M 416 0 
L 416 3319 
L 922 3319 
L 922 2816 
Q 1116 3169 1280 3281 
Q 1444 3394 1641 3394 
Q 1925 3394 2219 3213 
L 2025 2691 
Q 1819 2813 1613 2813 
Q 1428 2813 1281 2702 
Q 1134 2591 1072 2394 
Q 978 2094 978 1738 
L 978 0 
L 416 0 
z
" transform="scale(0.015625)"/>
        <path id="ArialMT-6c" d="M 409 0 
L 409 4581 
L 972 4581 
L 972 0 
L 409 0 
z
" transform="scale(0.015625)"/>
        <path id="ArialMT-76" d="M 1344 0 
L 81 3319 
L 675 3319 
L 1388 1331 
Q 1503 1009 1600 663 
Q 1675 925 1809 1294 
L 2547 3319 
L 3125 3319 
L 1869 0 
L 1344 0 
z
" transform="scale(0.015625)"/>
        <path id="ArialMT-32" d="M 3222 541 
L 3222 0 
L 194 0 
Q 188 203 259 391 
Q 375 700 629 1000 
Q 884 1300 1366 1694 
Q 2113 2306 2375 2664 
Q 2638 3022 2638 3341 
Q 2638 3675 2398 3904 
Q 2159 4134 1775 4134 
Q 1369 4134 1125 3890 
Q 881 3647 878 3216 
L 300 3275 
Q 359 3922 746 4261 
Q 1134 4600 1788 4600 
Q 2447 4600 2831 4234 
Q 3216 3869 3216 3328 
Q 3216 3053 3103 2787 
Q 2991 2522 2730 2228 
Q 2469 1934 1863 1422 
Q 1356 997 1212 845 
Q 1069 694 975 541 
L 3222 541 
z
" transform="scale(0.015625)"/>
        <path id="ArialMT-2e" d="M 581 0 
L 581 641 
L 1222 641 
L 1222 0 
L 581 0 
z
" transform="scale(0.015625)"/>
        <path id="ArialMT-30" d="M 266 2259 
Q 266 3072 433 3567 
Q 600 4063 929 4331 
Q 1259 4600 1759 4600 
Q 2128 4600 2406 4451 
Q 2684 4303 2865 4023 
Q 3047 3744 3150 3342 
Q 3253 2941 3253 2259 
Q 3253 1453 3087 958 
Q 2922 463 2592 192 
Q 2263 -78 1759 -78 
Q 1097 -78 719 397 
Q 266 969 266 2259 
z
M 844 2259 
Q 844 1131 1108 757 
Q 1372 384 1759 384 
Q 2147 384 2411 759 
Q 2675 1134 2675 2259 
Q 2675 3391 2411 3762 
Q 2147 4134 1753 4134 
Q 1366 4134 1134 3806 
Q 844 3388 844 2259 
z
" transform="scale(0.015625)"/>
       </defs>
       <use xlink:href="#ArialMT-53"/>
       <use xlink:href="#ArialMT-61" transform="translate(66.699219 0)"/>
       <use xlink:href="#ArialMT-6e" transform="translate(122.314453 0)"/>
       <use xlink:href="#ArialMT-64" transform="translate(177.929688 0)"/>
       <use xlink:href="#ArialMT-79" transform="translate(233.544922 0)"/>
       <use xlink:href="#ArialMT-20" transform="translate(283.544922 0)"/>
       <use xlink:href="#ArialMT-4c" transform="translate(311.328125 0)"/>
       <use xlink:href="#ArialMT-6f" transform="translate(366.943359 0)"/>
       <use xlink:href="#ArialMT-61" transform="translate(422.558594 0)"/>
       <use xlink:href="#ArialMT-6d" transform="translate(478.173828 0)"/>
       <use xlink:href="#ArialMT-20" transform="translate(561.474609 0)"/>
       <use xlink:href="#ArialMT-7c" transform="translate(589.257812 0)"/>
       <use xlink:href="#ArialMT-20" transform="translate(615.234375 0)"/>
       <use xlink:href="#ArialMT-48" transform="translate(643.017578 0)"/>
       <use xlink:href="#ArialMT-69" transform="translate(715.234375 0)"/>
       <use xlink:href="#ArialMT-48" transform="translate(737.451172 0)"/>
       <use xlink:href="#ArialMT-79" transform="translate(809.667969 0)"/>
       <use xlink:href="#ArialMT-64" transform="translate(859.667969 0)"/>
       <use xlink:href="#ArialMT-72" transform="translate(915.283203 0)"/>
       <use xlink:href="#ArialMT-6f" transform="translate(948.583984 0)"/>
       <use xlink:href="#ArialMT-53" transform="translate(1004.199219 0)"/>
       <use xlink:href="#ArialMT-6f" transform="translate(1070.898438 0)"/>
       <use xlink:href="#ArialMT-69" transform="translate(1126.513672 0)"/>
       <use xlink:href="#ArialMT-6c" transform="translate(1148.730469 0)"/>
       <use xlink:href="#ArialMT-20" transform="translate(1170.947266 0)"/>
       <use xlink:href="#ArialMT-76" transform="translate(1198.730469 0)"/>
       <use xlink:href="#ArialMT-32" transform="translate(1248.730469 0)"/>
       <use xlink:href="#ArialMT-2e" transform="translate(1304.345703 0)"/>
       <use xlink:href="#ArialMT-30" transform="translate(1332.128906 0)"/>
      </g>
     </g>
    </g>
    <g id="xtick_4">
     <g id="line2d_4">
      <path d="M 264.44265 306.429063 
L 264.44265 29.229063 
" clip-path="url(#p5fffc5c51f)" style="fill: none; stroke: #cccccc; stroke-linecap: round"/>
     </g>
     <g id="text_4">
      <!-- Loam | Intact -->
      <g style="fill: #262626" transform="translate(188.421158 398.537254) rotate(-45) scale(0.18 -0.18)">
       <use xlink:href="#ArialMT-4c"/>
       <use xlink:href="#ArialMT-6f" transform="translate(55.615234 0)"/>
       <use xlink:href="#ArialMT-61" transform="translate(111.230469 0)"/>
       <use xlink:href="#ArialMT-6d" transform="translate(166.845703 0)"/>
       <use xlink:href="#ArialMT-20" transform="translate(250.146484 0)"/>
       <use xlink:href="#ArialMT-7c" transform="translate(277.929688 0)"/>
       <use xlink:href="#ArialMT-20" transform="translate(303.90625 0)"/>
       <use xlink:href="#ArialMT-49" transform="translate(331.689453 0)"/>
       <use xlink:href="#ArialMT-6e" transform="translate(359.472656 0)"/>
       <use xlink:href="#ArialMT-74" transform="translate(415.087891 0)"/>
       <use xlink:href="#ArialMT-61" transform="translate(442.871094 0)"/>
       <use xlink:href="#ArialMT-63" transform="translate(498.486328 0)"/>
       <use xlink:href="#ArialMT-74" transform="translate(548.486328 0)"/>
      </g>
     </g>
    </g>
    <g id="xtick_5">
     <g id="line2d_5">
      <path d="M 308.553322 306.429063 
L 308.553322 29.229063 
" clip-path="url(#p5fffc5c51f)" style="fill: none; stroke: #cccccc; stroke-linecap: round"/>
     </g>
     <g id="text_5">
      <!-- Loam | Repacked -->
      <g style="fill: #262626" transform="translate(206.350096 424.718988) rotate(-45) scale(0.18 -0.18)">
       <use xlink:href="#ArialMT-4c"/>
       <use xlink:href="#ArialMT-6f" transform="translate(55.615234 0)"/>
       <use xlink:href="#ArialMT-61" transform="translate(111.230469 0)"/>
       <use xlink:href="#ArialMT-6d" transform="translate(166.845703 0)"/>
       <use xlink:href="#ArialMT-20" transform="translate(250.146484 0)"/>
       <use xlink:href="#ArialMT-7c" transform="translate(277.929688 0)"/>
       <use xlink:href="#ArialMT-20" transform="translate(303.90625 0)"/>
       <use xlink:href="#ArialMT-52" transform="translate(331.689453 0)"/>
       <use xlink:href="#ArialMT-65" transform="translate(403.90625 0)"/>
       <use xlink:href="#ArialMT-70" transform="translate(459.521484 0)"/>
       <use xlink:href="#ArialMT-61" transform="translate(515.136719 0)"/>
       <use xlink:href="#ArialMT-63" transform="translate(570.751953 0)"/>
       <use xlink:href="#ArialMT-6b" transform="translate(620.751953 0)"/>
       <use xlink:href="#ArialMT-65" transform="translate(670.751953 0)"/>
       <use xlink:href="#ArialMT-64" transform="translate(726.367188 0)"/>
      </g>
     </g>
    </g>
    <g id="xtick_6">
     <g id="line2d_6">
      <path d="M 352.663994 306.429063 
L 352.663994 29.229063 
" clip-path="url(#p5fffc5c51f)" style="fill: none; stroke: #cccccc; stroke-linecap: round"/>
     </g>
     <g id="text_6">
      <!-- Loam | HiHydroSoil v2.0 -->
      <g style="fill: #262626" transform="translate(212.984993 462.194763) rotate(-45) scale(0.18 -0.18)">
       <use xlink:href="#ArialMT-4c"/>
       <use xlink:href="#ArialMT-6f" transform="translate(55.615234 0)"/>
       <use xlink:href="#ArialMT-61" transform="translate(111.230469 0)"/>
       <use xlink:href="#ArialMT-6d" transform="translate(166.845703 0)"/>
       <use xlink:href="#ArialMT-20" transform="translate(250.146484 0)"/>
       <use xlink:href="#ArialMT-7c" transform="translate(277.929688 0)"/>
       <use xlink:href="#ArialMT-20" transform="translate(303.90625 0)"/>
       <use xlink:href="#ArialMT-48" transform="translate(331.689453 0)"/>
       <use xlink:href="#ArialMT-69" transform="translate(403.90625 0)"/>
       <use xlink:href="#ArialMT-48" transform="translate(426.123047 0)"/>
       <use xlink:href="#ArialMT-79" transform="translate(498.339844 0)"/>
       <use xlink:href="#ArialMT-64" transform="translate(548.339844 0)"/>
       <use xlink:href="#ArialMT-72" transform="translate(603.955078 0)"/>
       <use xlink:href="#ArialMT-6f" transform="translate(637.255859 0)"/>
       <use xlink:href="#ArialMT-53" transform="translate(692.871094 0)"/>
       <use xlink:href="#ArialMT-6f" transform="translate(759.570312 0)"/>
       <use xlink:href="#ArialMT-69" transform="translate(815.185547 0)"/>
       <use xlink:href="#ArialMT-6c" transform="translate(837.402344 0)"/>
       <use xlink:href="#ArialMT-20" transform="translate(859.619141 0)"/>
       <use xlink:href="#ArialMT-76" transform="translate(887.402344 0)"/>
       <use xlink:href="#ArialMT-32" transform="translate(937.402344 0)"/>
       <use xlink:href="#ArialMT-2e" transform="translate(993.017578 0)"/>
       <use xlink:href="#ArialMT-30" transform="translate(1020.800781 0)"/>
      </g>
     </g>
    </g>
    <g id="xtick_7">
     <g id="line2d_7">
      <path d="M 396.774665 306.429063 
L 396.774665 29.229063 
" clip-path="url(#p5fffc5c51f)" style="fill: none; stroke: #cccccc; stroke-linecap: round"/>
     </g>
     <g id="text_7">
      <!-- Silt Loam | Intact -->
      <g style="fill: #262626" transform="translate(299.53533 419.755098) rotate(-45) scale(0.18 -0.18)">
       <use xlink:href="#ArialMT-53"/>
       <use xlink:href="#ArialMT-69" transform="translate(66.699219 0)"/>
       <use xlink:href="#ArialMT-6c" transform="translate(88.916016 0)"/>
       <use xlink:href="#ArialMT-74" transform="translate(111.132812 0)"/>
       <use xlink:href="#ArialMT-20" transform="translate(138.916016 0)"/>
       <use xlink:href="#ArialMT-4c" transform="translate(166.699219 0)"/>
       <use xlink:href="#ArialMT-6f" transform="translate(222.314453 0)"/>
       <use xlink:href="#ArialMT-61" transform="translate(277.929688 0)"/>
       <use xlink:href="#ArialMT-6d" transform="translate(333.544922 0)"/>
       <use xlink:href="#ArialMT-20" transform="translate(416.845703 0)"/>
       <use xlink:href="#ArialMT-7c" transform="translate(444.628906 0)"/>
       <use xlink:href="#ArialMT-20" transform="translate(470.605469 0)"/>
       <use xlink:href="#ArialMT-49" transform="translate(498.388672 0)"/>
       <use xlink:href="#ArialMT-6e" transform="translate(526.171875 0)"/>
       <use xlink:href="#ArialMT-74" transform="translate(581.787109 0)"/>
       <use xlink:href="#ArialMT-61" transform="translate(609.570312 0)"/>
       <use xlink:href="#ArialMT-63" transform="translate(665.185547 0)"/>
       <use xlink:href="#ArialMT-74" transform="translate(715.185547 0)"/>
      </g>
     </g>
    </g>
    <g id="xtick_8">
     <g id="line2d_8">
      <path d="M 440.885337 306.429063 
L 440.885337 29.229063 
" clip-path="url(#p5fffc5c51f)" style="fill: none; stroke: #cccccc; stroke-linecap: round"/>
     </g>
     <g id="text_8">
      <!-- Silt Loam | Repacked -->
      <g style="fill: #262626" transform="translate(317.464268 445.936831) rotate(-45) scale(0.18 -0.18)">
       <use xlink:href="#ArialMT-53"/>
       <use xlink:href="#ArialMT-69" transform="translate(66.699219 0)"/>
       <use xlink:href="#ArialMT-6c" transform="translate(88.916016 0)"/>
       <use xlink:href="#ArialMT-74" transform="translate(111.132812 0)"/>
       <use xlink:href="#ArialMT-20" transform="translate(138.916016 0)"/>
       <use xlink:href="#ArialMT-4c" transform="translate(166.699219 0)"/>
       <use xlink:href="#ArialMT-6f" transform="translate(222.314453 0)"/>
       <use xlink:href="#ArialMT-61" transform="translate(277.929688 0)"/>
       <use xlink:href="#ArialMT-6d" transform="translate(333.544922 0)"/>
       <use xlink:href="#ArialMT-20" transform="translate(416.845703 0)"/>
       <use xlink:href="#ArialMT-7c" transform="translate(444.628906 0)"/>
       <use xlink:href="#ArialMT-20" transform="translate(470.605469 0)"/>
       <use xlink:href="#ArialMT-52" transform="translate(498.388672 0)"/>
       <use xlink:href="#ArialMT-65" transform="translate(570.605469 0)"/>
       <use xlink:href="#ArialMT-70" transform="translate(626.220703 0)"/>
       <use xlink:href="#ArialMT-61" transform="translate(681.835938 0)"/>
       <use xlink:href="#ArialMT-63" transform="translate(737.451172 0)"/>
       <use xlink:href="#ArialMT-6b" transform="translate(787.451172 0)"/>
       <use xlink:href="#ArialMT-65" transform="translate(837.451172 0)"/>
       <use xlink:href="#ArialMT-64" transform="translate(893.066406 0)"/>
      </g>
     </g>
    </g>
    <g id="xtick_9">
     <g id="line2d_9">
      <path d="M 484.996009 306.429063 
L 484.996009 29.229063 
" clip-path="url(#p5fffc5c51f)" style="fill: none; stroke: #cccccc; stroke-linecap: round"/>
     </g>
     <g id="text_9">
      <!-- Silt Loam | HiHydroSoil v2.0 -->
      <g style="fill: #262626" transform="translate(324.099165 483.412607) rotate(-45) scale(0.18 -0.18)">
       <use xlink:href="#ArialMT-53"/>
       <use xlink:href="#ArialMT-69" transform="translate(66.699219 0)"/>
       <use xlink:href="#ArialMT-6c" transform="translate(88.916016 0)"/>
       <use xlink:href="#ArialMT-74" transform="translate(111.132812 0)"/>
       <use xlink:href="#ArialMT-20" transform="translate(138.916016 0)"/>
       <use xlink:href="#ArialMT-4c" transform="translate(166.699219 0)"/>
       <use xlink:href="#ArialMT-6f" transform="translate(222.314453 0)"/>
       <use xlink:href="#ArialMT-61" transform="translate(277.929688 0)"/>
       <use xlink:href="#ArialMT-6d" transform="translate(333.544922 0)"/>
       <use xlink:href="#ArialMT-20" transform="translate(416.845703 0)"/>
       <use xlink:href="#ArialMT-7c" transform="translate(444.628906 0)"/>
       <use xlink:href="#ArialMT-20" transform="translate(470.605469 0)"/>
       <use xlink:href="#ArialMT-48" transform="translate(498.388672 0)"/>
       <use xlink:href="#ArialMT-69" transform="translate(570.605469 0)"/>
       <use xlink:href="#ArialMT-48" transform="translate(592.822266 0)"/>
       <use xlink:href="#ArialMT-79" transform="translate(665.039062 0)"/>
       <use xlink:href="#ArialMT-64" transform="translate(715.039062 0)"/>
       <use xlink:href="#ArialMT-72" transform="translate(770.654297 0)"/>
       <use xlink:href="#ArialMT-6f" transform="translate(803.955078 0)"/>
       <use xlink:href="#ArialMT-53" transform="translate(859.570312 0)"/>
       <use xlink:href="#ArialMT-6f" transform="translate(926.269531 0)"/>
       <use xlink:href="#ArialMT-69" transform="translate(981.884766 0)"/>
       <use xlink:href="#ArialMT-6c" transform="translate(1004.101562 0)"/>
       <use xlink:href="#ArialMT-20" transform="translate(1026.318359 0)"/>
       <use xlink:href="#ArialMT-76" transform="translate(1054.101562 0)"/>
       <use xlink:href="#ArialMT-32" transform="translate(1104.101562 0)"/>
       <use xlink:href="#ArialMT-2e" transform="translate(1159.716797 0)"/>
       <use xlink:href="#ArialMT-30" transform="translate(1187.5 0)"/>
      </g>
     </g>
    </g>
    <g id="xtick_10">
     <g id="line2d_10">
      <path d="M 529.106681 306.429063 
L 529.106681 29.229063 
" clip-path="url(#p5fffc5c51f)" style="fill: none; stroke: #cccccc; stroke-linecap: round"/>
     </g>
     <g id="text_10">
      <!-- Silty Clay | Intact -->
      <g style="fill: #262626" transform="translate(431.877289 419.745154) rotate(-45) scale(0.18 -0.18)">
       <defs>
        <path id="ArialMT-43" d="M 3763 1606 
L 4369 1453 
Q 4178 706 3683 314 
Q 3188 -78 2472 -78 
Q 1731 -78 1267 223 
Q 803 525 561 1097 
Q 319 1669 319 2325 
Q 319 3041 592 3573 
Q 866 4106 1370 4382 
Q 1875 4659 2481 4659 
Q 3169 4659 3637 4309 
Q 4106 3959 4291 3325 
L 3694 3184 
Q 3534 3684 3231 3912 
Q 2928 4141 2469 4141 
Q 1941 4141 1586 3887 
Q 1231 3634 1087 3207 
Q 944 2781 944 2328 
Q 944 1744 1114 1308 
Q 1284 872 1643 656 
Q 2003 441 2422 441 
Q 2931 441 3284 734 
Q 3638 1028 3763 1606 
z
" transform="scale(0.015625)"/>
       </defs>
       <use xlink:href="#ArialMT-53"/>
       <use xlink:href="#ArialMT-69" transform="translate(66.699219 0)"/>
       <use xlink:href="#ArialMT-6c" transform="translate(88.916016 0)"/>
       <use xlink:href="#ArialMT-74" transform="translate(111.132812 0)"/>
       <use xlink:href="#ArialMT-79" transform="translate(138.916016 0)"/>
       <use xlink:href="#ArialMT-20" transform="translate(188.916016 0)"/>
       <use xlink:href="#ArialMT-43" transform="translate(216.699219 0)"/>
       <use xlink:href="#ArialMT-6c" transform="translate(288.916016 0)"/>
       <use xlink:href="#ArialMT-61" transform="translate(311.132812 0)"/>
       <use xlink:href="#ArialMT-79" transform="translate(366.748047 0)"/>
       <use xlink:href="#ArialMT-20" transform="translate(416.748047 0)"/>
       <use xlink:href="#ArialMT-7c" transform="translate(444.53125 0)"/>
       <use xlink:href="#ArialMT-20" transform="translate(470.507812 0)"/>
       <use xlink:href="#ArialMT-49" transform="translate(498.291016 0)"/>
       <use xlink:href="#ArialMT-6e" transform="translate(526.074219 0)"/>
       <use xlink:href="#ArialMT-74" transform="translate(581.689453 0)"/>
       <use xlink:href="#ArialMT-61" transform="translate(609.472656 0)"/>
       <use xlink:href="#ArialMT-63" transform="translate(665.087891 0)"/>
       <use xlink:href="#ArialMT-74" transform="translate(715.087891 0)"/>
      </g>
     </g>
    </g>
    <g id="xtick_11">
     <g id="line2d_11">
      <path d="M 573.217353 306.429063 
L 573.217353 29.229063 
" clip-path="url(#p5fffc5c51f)" style="fill: none; stroke: #cccccc; stroke-linecap: round"/>
     </g>
     <g id="text_11">
      <!-- Silty Clay | Repacked -->
      <g style="fill: #262626" transform="translate(449.806228 445.926888) rotate(-45) scale(0.18 -0.18)">
       <use xlink:href="#ArialMT-53"/>
       <use xlink:href="#ArialMT-69" transform="translate(66.699219 0)"/>
       <use xlink:href="#ArialMT-6c" transform="translate(88.916016 0)"/>
       <use xlink:href="#ArialMT-74" transform="translate(111.132812 0)"/>
       <use xlink:href="#ArialMT-79" transform="translate(138.916016 0)"/>
       <use xlink:href="#ArialMT-20" transform="translate(188.916016 0)"/>
       <use xlink:href="#ArialMT-43" transform="translate(216.699219 0)"/>
       <use xlink:href="#ArialMT-6c" transform="translate(288.916016 0)"/>
       <use xlink:href="#ArialMT-61" transform="translate(311.132812 0)"/>
       <use xlink:href="#ArialMT-79" transform="translate(366.748047 0)"/>
       <use xlink:href="#ArialMT-20" transform="translate(416.748047 0)"/>
       <use xlink:href="#ArialMT-7c" transform="translate(444.53125 0)"/>
       <use xlink:href="#ArialMT-20" transform="translate(470.507812 0)"/>
       <use xlink:href="#ArialMT-52" transform="translate(498.291016 0)"/>
       <use xlink:href="#ArialMT-65" transform="translate(570.507812 0)"/>
       <use xlink:href="#ArialMT-70" transform="translate(626.123047 0)"/>
       <use xlink:href="#ArialMT-61" transform="translate(681.738281 0)"/>
       <use xlink:href="#ArialMT-63" transform="translate(737.353516 0)"/>
       <use xlink:href="#ArialMT-6b" transform="translate(787.353516 0)"/>
       <use xlink:href="#ArialMT-65" transform="translate(837.353516 0)"/>
       <use xlink:href="#ArialMT-64" transform="translate(892.96875 0)"/>
      </g>
     </g>
    </g>
    <g id="xtick_12">
     <g id="line2d_12">
      <path d="M 617.328025 306.429063 
L 617.328025 29.229063 
" clip-path="url(#p5fffc5c51f)" style="fill: none; stroke: #cccccc; stroke-linecap: round"/>
     </g>
     <g id="text_12">
      <!-- Silty Clay | HiHydroSoil v2.0 -->
      <g style="fill: #262626" transform="translate(456.441124 483.402663) rotate(-45) scale(0.18 -0.18)">
       <use xlink:href="#ArialMT-53"/>
       <use xlink:href="#ArialMT-69" transform="translate(66.699219 0)"/>
       <use xlink:href="#ArialMT-6c" transform="translate(88.916016 0)"/>
       <use xlink:href="#ArialMT-74" transform="translate(111.132812 0)"/>
       <use xlink:href="#ArialMT-79" transform="translate(138.916016 0)"/>
       <use xlink:href="#ArialMT-20" transform="translate(188.916016 0)"/>
       <use xlink:href="#ArialMT-43" transform="translate(216.699219 0)"/>
       <use xlink:href="#ArialMT-6c" transform="translate(288.916016 0)"/>
       <use xlink:href="#ArialMT-61" transform="translate(311.132812 0)"/>
       <use xlink:href="#ArialMT-79" transform="translate(366.748047 0)"/>
       <use xlink:href="#ArialMT-20" transform="translate(416.748047 0)"/>
       <use xlink:href="#ArialMT-7c" transform="translate(444.53125 0)"/>
       <use xlink:href="#ArialMT-20" transform="translate(470.507812 0)"/>
       <use xlink:href="#ArialMT-48" transform="translate(498.291016 0)"/>
       <use xlink:href="#ArialMT-69" transform="translate(570.507812 0)"/>
       <use xlink:href="#ArialMT-48" transform="translate(592.724609 0)"/>
       <use xlink:href="#ArialMT-79" transform="translate(664.941406 0)"/>
       <use xlink:href="#ArialMT-64" transform="translate(714.941406 0)"/>
       <use xlink:href="#ArialMT-72" transform="translate(770.556641 0)"/>
       <use xlink:href="#ArialMT-6f" transform="translate(803.857422 0)"/>
       <use xlink:href="#ArialMT-53" transform="translate(859.472656 0)"/>
       <use xlink:href="#ArialMT-6f" transform="translate(926.171875 0)"/>
       <use xlink:href="#ArialMT-69" transform="translate(981.787109 0)"/>
       <use xlink:href="#ArialMT-6c" transform="translate(1004.003906 0)"/>
       <use xlink:href="#ArialMT-20" transform="translate(1026.220703 0)"/>
       <use xlink:href="#ArialMT-76" transform="translate(1054.003906 0)"/>
       <use xlink:href="#ArialMT-32" transform="translate(1104.003906 0)"/>
       <use xlink:href="#ArialMT-2e" transform="translate(1159.619141 0)"/>
       <use xlink:href="#ArialMT-30" transform="translate(1187.402344 0)"/>
      </g>
     </g>
    </g>
   </g>
   <g id="matplotlib.axis_2">
    <g id="ytick_1">
     <g id="line2d_13">
      <path d="M 95.71933 306.429063 
L 653.71933 306.429063 
" clip-path="url(#p5fffc5c51f)" style="fill: none; stroke: #cccccc; stroke-linecap: round"/>
     </g>
     <g id="text_13">
      <!-- 0.0 -->
      <g style="fill: #262626" transform="translate(63.97933 312.155313) scale(0.16 -0.16)">
       <use xlink:href="#ArialMT-30"/>
       <use xlink:href="#ArialMT-2e" transform="translate(55.615234 0)"/>
       <use xlink:href="#ArialMT-30" transform="translate(83.398438 0)"/>
      </g>
     </g>
    </g>
    <g id="ytick_2">
     <g id="line2d_14">
      <path d="M 95.71933 240.79648 
L 653.71933 240.79648 
" clip-path="url(#p5fffc5c51f)" style="fill: none; stroke: #cccccc; stroke-linecap: round"/>
     </g>
     <g id="text_14">
      <!-- 2000.0 -->
      <g style="fill: #262626" transform="translate(37.28683 246.52273) scale(0.16 -0.16)">
       <use xlink:href="#ArialMT-32"/>
       <use xlink:href="#ArialMT-30" transform="translate(55.615234 0)"/>
       <use xlink:href="#ArialMT-30" transform="translate(111.230469 0)"/>
       <use xlink:href="#ArialMT-30" transform="translate(166.845703 0)"/>
       <use xlink:href="#ArialMT-2e" transform="translate(222.460938 0)"/>
       <use xlink:href="#ArialMT-30" transform="translate(250.244141 0)"/>
      </g>
     </g>
    </g>
    <g id="ytick_3">
     <g id="line2d_15">
      <path d="M 95.71933 175.163897 
L 653.71933 175.163897 
" clip-path="url(#p5fffc5c51f)" style="fill: none; stroke: #cccccc; stroke-linecap: round"/>
     </g>
     <g id="text_15">
      <!-- 4000.0 -->
      <g style="fill: #262626" transform="translate(37.28683 180.890147) scale(0.16 -0.16)">
       <defs>
        <path id="ArialMT-34" d="M 2069 0 
L 2069 1097 
L 81 1097 
L 81 1613 
L 2172 4581 
L 2631 4581 
L 2631 1613 
L 3250 1613 
L 3250 1097 
L 2631 1097 
L 2631 0 
L 2069 0 
z
M 2069 1613 
L 2069 3678 
L 634 1613 
L 2069 1613 
z
" transform="scale(0.015625)"/>
       </defs>
       <use xlink:href="#ArialMT-34"/>
       <use xlink:href="#ArialMT-30" transform="translate(55.615234 0)"/>
       <use xlink:href="#ArialMT-30" transform="translate(111.230469 0)"/>
       <use xlink:href="#ArialMT-30" transform="translate(166.845703 0)"/>
       <use xlink:href="#ArialMT-2e" transform="translate(222.460938 0)"/>
       <use xlink:href="#ArialMT-30" transform="translate(250.244141 0)"/>
      </g>
     </g>
    </g>
    <g id="ytick_4">
     <g id="line2d_16">
      <path d="M 95.71933 109.531314 
L 653.71933 109.531314 
" clip-path="url(#p5fffc5c51f)" style="fill: none; stroke: #cccccc; stroke-linecap: round"/>
     </g>
     <g id="text_16">
      <!-- 6000.0 -->
      <g style="fill: #262626" transform="translate(37.28683 115.257564) scale(0.16 -0.16)">
       <defs>
        <path id="ArialMT-36" d="M 3184 3459 
L 2625 3416 
Q 2550 3747 2413 3897 
Q 2184 4138 1850 4138 
Q 1581 4138 1378 3988 
Q 1113 3794 959 3422 
Q 806 3050 800 2363 
Q 1003 2672 1297 2822 
Q 1591 2972 1913 2972 
Q 2475 2972 2870 2558 
Q 3266 2144 3266 1488 
Q 3266 1056 3080 686 
Q 2894 316 2569 119 
Q 2244 -78 1831 -78 
Q 1128 -78 684 439 
Q 241 956 241 2144 
Q 241 3472 731 4075 
Q 1159 4600 1884 4600 
Q 2425 4600 2770 4297 
Q 3116 3994 3184 3459 
z
M 888 1484 
Q 888 1194 1011 928 
Q 1134 663 1356 523 
Q 1578 384 1822 384 
Q 2178 384 2434 671 
Q 2691 959 2691 1453 
Q 2691 1928 2437 2201 
Q 2184 2475 1800 2475 
Q 1419 2475 1153 2201 
Q 888 1928 888 1484 
z
" transform="scale(0.015625)"/>
       </defs>
       <use xlink:href="#ArialMT-36"/>
       <use xlink:href="#ArialMT-30" transform="translate(55.615234 0)"/>
       <use xlink:href="#ArialMT-30" transform="translate(111.230469 0)"/>
       <use xlink:href="#ArialMT-30" transform="translate(166.845703 0)"/>
       <use xlink:href="#ArialMT-2e" transform="translate(222.460938 0)"/>
       <use xlink:href="#ArialMT-30" transform="translate(250.244141 0)"/>
      </g>
     </g>
    </g>
    <g id="text_17">
     <!-- Total SOC (gC m$^{-2}$) -->
     <g style="fill: #262626" transform="translate(28.88683 258.529063) rotate(-90) scale(0.2 -0.2)">
      <defs>
       <path id="ArialMT-54" d="M 1659 0 
L 1659 4041 
L 150 4041 
L 150 4581 
L 3781 4581 
L 3781 4041 
L 2266 4041 
L 2266 0 
L 1659 0 
z
" transform="scale(0.015625)"/>
       <path id="ArialMT-4f" d="M 309 2231 
Q 309 3372 921 4017 
Q 1534 4663 2503 4663 
Q 3138 4663 3647 4359 
Q 4156 4056 4423 3514 
Q 4691 2972 4691 2284 
Q 4691 1588 4409 1038 
Q 4128 488 3612 205 
Q 3097 -78 2500 -78 
Q 1853 -78 1343 234 
Q 834 547 571 1087 
Q 309 1628 309 2231 
z
M 934 2222 
Q 934 1394 1379 917 
Q 1825 441 2497 441 
Q 3181 441 3623 922 
Q 4066 1403 4066 2288 
Q 4066 2847 3877 3264 
Q 3688 3681 3323 3911 
Q 2959 4141 2506 4141 
Q 1863 4141 1398 3698 
Q 934 3256 934 2222 
z
" transform="scale(0.015625)"/>
       <path id="ArialMT-28" d="M 1497 -1347 
Q 1031 -759 709 28 
Q 388 816 388 1659 
Q 388 2403 628 3084 
Q 909 3875 1497 4659 
L 1900 4659 
Q 1522 4009 1400 3731 
Q 1209 3300 1100 2831 
Q 966 2247 966 1656 
Q 966 153 1900 -1347 
L 1497 -1347 
z
" transform="scale(0.015625)"/>
       <path id="ArialMT-67" d="M 319 -275 
L 866 -356 
Q 900 -609 1056 -725 
Q 1266 -881 1628 -881 
Q 2019 -881 2231 -725 
Q 2444 -569 2519 -288 
Q 2563 -116 2559 434 
Q 2191 0 1641 0 
Q 956 0 581 494 
Q 206 988 206 1678 
Q 206 2153 378 2554 
Q 550 2956 876 3175 
Q 1203 3394 1644 3394 
Q 2231 3394 2613 2919 
L 2613 3319 
L 3131 3319 
L 3131 450 
Q 3131 -325 2973 -648 
Q 2816 -972 2473 -1159 
Q 2131 -1347 1631 -1347 
Q 1038 -1347 672 -1080 
Q 306 -813 319 -275 
z
M 784 1719 
Q 784 1066 1043 766 
Q 1303 466 1694 466 
Q 2081 466 2343 764 
Q 2606 1063 2606 1700 
Q 2606 2309 2336 2618 
Q 2066 2928 1684 2928 
Q 1309 2928 1046 2623 
Q 784 2319 784 1719 
z
" transform="scale(0.015625)"/>
       <path id="DejaVuSans-2212" d="M 678 2272 
L 4684 2272 
L 4684 1741 
L 678 1741 
L 678 2272 
z
" transform="scale(0.015625)"/>
       <path id="DejaVuSans-32" d="M 1228 531 
L 3431 531 
L 3431 0 
L 469 0 
L 469 531 
Q 828 903 1448 1529 
Q 2069 2156 2228 2338 
Q 2531 2678 2651 2914 
Q 2772 3150 2772 3378 
Q 2772 3750 2511 3984 
Q 2250 4219 1831 4219 
Q 1534 4219 1204 4116 
Q 875 4013 500 3803 
L 500 4441 
Q 881 4594 1212 4672 
Q 1544 4750 1819 4750 
Q 2544 4750 2975 4387 
Q 3406 4025 3406 3419 
Q 3406 3131 3298 2873 
Q 3191 2616 2906 2266 
Q 2828 2175 2409 1742 
Q 1991 1309 1228 531 
z
" transform="scale(0.015625)"/>
       <path id="ArialMT-29" d="M 791 -1347 
L 388 -1347 
Q 1322 153 1322 1656 
Q 1322 2244 1188 2822 
Q 1081 3291 891 3722 
Q 769 4003 388 4659 
L 791 4659 
Q 1378 3875 1659 3084 
Q 1900 2403 1900 1659 
Q 1900 816 1576 28 
Q 1253 -759 791 -1347 
z
" transform="scale(0.015625)"/>
      </defs>
      <use xlink:href="#ArialMT-54" transform="translate(0 0.765625)"/>
      <use xlink:href="#ArialMT-6f" transform="translate(61.083984 0.765625)"/>
      <use xlink:href="#ArialMT-74" transform="translate(116.699219 0.765625)"/>
      <use xlink:href="#ArialMT-61" transform="translate(144.482422 0.765625)"/>
      <use xlink:href="#ArialMT-6c" transform="translate(200.097656 0.765625)"/>
      <use xlink:href="#ArialMT-20" transform="translate(222.314453 0.765625)"/>
      <use xlink:href="#ArialMT-53" transform="translate(250.097656 0.765625)"/>
      <use xlink:href="#ArialMT-4f" transform="translate(316.796875 0.765625)"/>
      <use xlink:href="#ArialMT-43" transform="translate(394.580078 0.765625)"/>
      <use xlink:href="#ArialMT-20" transform="translate(466.796875 0.765625)"/>
      <use xlink:href="#ArialMT-28" transform="translate(494.580078 0.765625)"/>
      <use xlink:href="#ArialMT-67" transform="translate(527.880859 0.765625)"/>
      <use xlink:href="#ArialMT-43" transform="translate(583.496094 0.765625)"/>
      <use xlink:href="#ArialMT-20" transform="translate(655.712891 0.765625)"/>
      <use xlink:href="#ArialMT-6d" transform="translate(683.496094 0.765625)"/>
      <use xlink:href="#DejaVuSans-2212" transform="translate(767.753906 39.046875) scale(0.7)"/>
      <use xlink:href="#DejaVuSans-32" transform="translate(826.40625 39.046875) scale(0.7)"/>
      <use xlink:href="#ArialMT-29" transform="translate(873.676758 0.765625)"/>
     </g>
    </g>
   </g>
   <g id="patch_3">
    <path d="M 121.082966 306.429063 
L 143.138302 306.429063 
L 143.138302 134.972317 
L 121.082966 134.972317 
z
" clip-path="url(#p5fffc5c51f)" style="fill: #4c72b0; opacity: 0.99; stroke: #000000; stroke-linejoin: miter"/>
   </g>
   <g id="patch_4">
    <path d="M 165.193638 306.429063 
L 187.248974 306.429063 
L 187.248974 144.830553 
L 165.193638 144.830553 
z
" clip-path="url(#p5fffc5c51f)" style="fill: #dd8452; opacity: 0.99; stroke: #000000; stroke-linejoin: miter"/>
   </g>
   <g id="patch_5">
    <path d="M 209.30431 306.429063 
L 231.359646 306.429063 
L 231.359646 134.197673 
L 209.30431 134.197673 
z
" clip-path="url(#p5fffc5c51f)" style="fill: #55a868; opacity: 0.99; stroke: #000000; stroke-linejoin: miter"/>
   </g>
   <g id="patch_6">
    <path d="M 253.414982 306.429063 
L 275.470318 306.429063 
L 275.470318 98.401933 
L 253.414982 98.401933 
z
" clip-path="url(#p5fffc5c51f)" style="fill: #4c72b0; opacity: 0.99; stroke: #000000; stroke-linejoin: miter"/>
   </g>
   <g id="patch_7">
    <path d="M 297.525654 306.429063 
L 319.58099 306.429063 
L 319.58099 109.949777 
L 297.525654 109.949777 
z
" clip-path="url(#p5fffc5c51f)" style="fill: #dd8452; opacity: 0.99; stroke: #000000; stroke-linejoin: miter"/>
   </g>
   <g id="patch_8">
    <path d="M 341.636326 306.429063 
L 363.691662 306.429063 
L 363.691662 84.496426 
L 341.636326 84.496426 
z
" clip-path="url(#p5fffc5c51f)" style="fill: #55a868; opacity: 0.99; stroke: #000000; stroke-linejoin: miter"/>
   </g>
   <g id="patch_9">
    <path d="M 385.746998 306.429063 
L 407.802333 306.429063 
L 407.802333 94.715392 
L 385.746998 94.715392 
z
" clip-path="url(#p5fffc5c51f)" style="fill: #4c72b0; opacity: 0.99; stroke: #000000; stroke-linejoin: miter"/>
   </g>
   <g id="patch_10">
    <path d="M 429.857669 306.429063 
L 451.913005 306.429063 
L 451.913005 67.021129 
L 429.857669 67.021129 
z
" clip-path="url(#p5fffc5c51f)" style="fill: #dd8452; opacity: 0.99; stroke: #000000; stroke-linejoin: miter"/>
   </g>
   <g id="patch_11">
    <path d="M 473.968341 306.429063 
L 496.023677 306.429063 
L 496.023677 96.631132 
L 473.968341 96.631132 
z
" clip-path="url(#p5fffc5c51f)" style="fill: #55a868; opacity: 0.99; stroke: #000000; stroke-linejoin: miter"/>
   </g>
   <g id="patch_12">
    <path d="M 518.079013 306.429063 
L 540.134349 306.429063 
L 540.134349 95.3925 
L 518.079013 95.3925 
z
" clip-path="url(#p5fffc5c51f)" style="fill: #4c72b0; opacity: 0.99; stroke: #000000; stroke-linejoin: miter"/>
   </g>
   <g id="patch_13">
    <path d="M 562.189685 306.429063 
L 584.245021 306.429063 
L 584.245021 54.429063 
L 562.189685 54.429063 
z
" clip-path="url(#p5fffc5c51f)" style="fill: #dd8452; opacity: 0.99; stroke: #000000; stroke-linejoin: miter"/>
   </g>
   <g id="patch_14">
    <path d="M 606.300357 306.429063 
L 628.355693 306.429063 
L 628.355693 74.548429 
L 606.300357 74.548429 
z
" clip-path="url(#p5fffc5c51f)" style="fill: #55a868; opacity: 0.99; stroke: #000000; stroke-linejoin: miter"/>
   </g>
   <g id="patch_15">
    <path d="M 95.71933 306.429063 
L 95.71933 29.229063 
" style="fill: none; stroke: #cccccc; stroke-width: 1.25; stroke-linejoin: miter; stroke-linecap: square"/>
   </g>
   <g id="patch_16">
    <path d="M 653.71933 306.429063 
L 653.71933 29.229063 
" style="fill: none; stroke: #cccccc; stroke-width: 1.25; stroke-linejoin: miter; stroke-linecap: square"/>
   </g>
   <g id="patch_17">
    <path d="M 95.71933 306.429063 
L 653.71933 306.429063 
" style="fill: none; stroke: #cccccc; stroke-width: 1.25; stroke-linejoin: miter; stroke-linecap: square"/>
   </g>
   <g id="patch_18">
    <path d="M 95.71933 29.229063 
L 653.71933 29.229063 
" style="fill: none; stroke: #cccccc; stroke-width: 1.25; stroke-linejoin: miter; stroke-linecap: square"/>
   </g>
   <g id="text_18">
    <!-- Total Soil Organic Carbon -->
    <g style="fill: #262626" transform="translate(249.391517 23.229063) scale(0.22 -0.22)">
     <defs>
      <path id="ArialMT-62" d="M 941 0 
L 419 0 
L 419 4581 
L 981 4581 
L 981 2947 
Q 1338 3394 1891 3394 
Q 2197 3394 2470 3270 
Q 2744 3147 2920 2923 
Q 3097 2700 3197 2384 
Q 3297 2069 3297 1709 
Q 3297 856 2875 390 
Q 2453 -75 1863 -75 
Q 1275 -75 941 416 
L 941 0 
z
M 934 1684 
Q 934 1088 1097 822 
Q 1363 388 1816 388 
Q 2184 388 2453 708 
Q 2722 1028 2722 1663 
Q 2722 2313 2464 2622 
Q 2206 2931 1841 2931 
Q 1472 2931 1203 2611 
Q 934 2291 934 1684 
z
" transform="scale(0.015625)"/>
     </defs>
     <use xlink:href="#ArialMT-54"/>
     <use xlink:href="#ArialMT-6f" transform="translate(49.958984 0)"/>
     <use xlink:href="#ArialMT-74" transform="translate(105.574219 0)"/>
     <use xlink:href="#ArialMT-61" transform="translate(133.357422 0)"/>
     <use xlink:href="#ArialMT-6c" transform="translate(188.972656 0)"/>
     <use xlink:href="#ArialMT-20" transform="translate(211.189453 0)"/>
     <use xlink:href="#ArialMT-53" transform="translate(238.972656 0)"/>
     <use xlink:href="#ArialMT-6f" transform="translate(305.671875 0)"/>
     <use xlink:href="#ArialMT-69" transform="translate(361.287109 0)"/>
     <use xlink:href="#ArialMT-6c" transform="translate(383.503906 0)"/>
     <use xlink:href="#ArialMT-20" transform="translate(405.720703 0)"/>
     <use xlink:href="#ArialMT-4f" transform="translate(433.503906 0)"/>
     <use xlink:href="#ArialMT-72" transform="translate(511.287109 0)"/>
     <use xlink:href="#ArialMT-67" transform="translate(544.587891 0)"/>
     <use xlink:href="#ArialMT-61" transform="translate(600.203125 0)"/>
     <use xlink:href="#ArialMT-6e" transform="translate(655.818359 0)"/>
     <use xlink:href="#ArialMT-69" transform="translate(711.433594 0)"/>
     <use xlink:href="#ArialMT-63" transform="translate(733.650391 0)"/>
     <use xlink:href="#ArialMT-20" transform="translate(783.650391 0)"/>
     <use xlink:href="#ArialMT-43" transform="translate(811.433594 0)"/>
     <use xlink:href="#ArialMT-61" transform="translate(883.650391 0)"/>
     <use xlink:href="#ArialMT-72" transform="translate(939.265625 0)"/>
     <use xlink:href="#ArialMT-62" transform="translate(972.566406 0)"/>
     <use xlink:href="#ArialMT-6f" transform="translate(1028.181641 0)"/>
     <use xlink:href="#ArialMT-6e" transform="translate(1083.796875 0)"/>
    </g>
   </g>
  </g>
 </g>
 <defs>
  <clipPath id="p5fffc5c51f">
   <rect x="95.71933" y="29.229063" width="558" height="277.2"/>
  </clipPath>
 </defs>
</svg>
