<?xml version="1.0" encoding="utf-8" standalone="no"?>
<!DOCTYPE svg PUBLIC "-//W3C//DTD SVG 1.1//EN"
  "http://www.w3.org/Graphics/SVG/1.1/DTD/svg11.dtd">
<svg xmlns:xlink="http://www.w3.org/1999/xlink" width="554.686257pt" height="481.175231pt" viewBox="0 0 554.686257 481.175231" xmlns="http://www.w3.org/2000/svg" version="1.1">
 <metadata>
  <rdf:RDF xmlns:dc="http://purl.org/dc/elements/1.1/" xmlns:cc="http://creativecommons.org/ns#" xmlns:rdf="http://www.w3.org/1999/02/22-rdf-syntax-ns#">
   <cc:Work>
    <dc:type rdf:resource="http://purl.org/dc/dcmitype/StillImage"/>
    <dc:date>2025-07-05T08:11:28.765831</dc:date>
    <dc:format>image/svg+xml</dc:format>
    <dc:creator>
     <cc:Agent>
      <dc:title>Matplotlib v3.10.1, https://matplotlib.org/</dc:title>
     </cc:Agent>
    </dc:creator>
   </cc:Work>
  </rdf:RDF>
 </metadata>
 <defs>
  <style type="text/css">*{stroke-linejoin: round; stroke-linecap: butt}</style>
 </defs>
 <g id="figure_1">
  <g id="patch_1">
   <path d="M 0 481.175231 
L 554.686257 481.175231 
L 554.686257 0 
L 0 0 
z
" style="fill: #ffffff"/>
  </g>
  <g id="axes_1">
   <g id="patch_2">
    <path d="M 63.959734 207.585959 
L 296.249007 207.585959 
L 296.249007 24.556312 
L 63.959734 24.556312 
z
" style="fill: #ffffff"/>
   </g>
   <g id="matplotlib.axis_1">
    <g id="xtick_1">
     <g id="line2d_1">
      <path d="M 100.914846 207.585959 
L 100.914846 24.556312 
" clip-path="url(#p55047166b4)" style="fill: none; stroke: #cccccc; stroke-linecap: round"/>
     </g>
    </g>
    <g id="xtick_2">
     <g id="line2d_2">
      <path d="M 153.707863 207.585959 
L 153.707863 24.556312 
" clip-path="url(#p55047166b4)" style="fill: none; stroke: #cccccc; stroke-linecap: round"/>
     </g>
    </g>
    <g id="xtick_3">
     <g id="line2d_3">
      <path d="M 206.500879 207.585959 
L 206.500879 24.556312 
" clip-path="url(#p55047166b4)" style="fill: none; stroke: #cccccc; stroke-linecap: round"/>
     </g>
    </g>
    <g id="xtick_4">
     <g id="line2d_4">
      <path d="M 259.293896 207.585959 
L 259.293896 24.556312 
" clip-path="url(#p55047166b4)" style="fill: none; stroke: #cccccc; stroke-linecap: round"/>
     </g>
    </g>
   </g>
   <g id="matplotlib.axis_2">
    <g id="ytick_1">
     <g id="line2d_5">
      <path d="M 63.959734 202.380405 
L 296.249007 202.380405 
" clip-path="url(#p55047166b4)" style="fill: none; stroke: #cccccc; stroke-linecap: round"/>
     </g>
     <g id="text_1">
      <!-- 0% -->
      <g style="fill: #262626" transform="translate(33.791766 207.498241) scale(0.143 -0.143)">
       <defs>
        <path id="ArialMT-30" d="M 266 2259 
Q 266 3072 433 3567 
Q 600 4063 929 4331 
Q 1259 4600 1759 4600 
Q 2128 4600 2406 4451 
Q 2684 4303 2865 4023 
Q 3047 3744 3150 3342 
Q 3253 2941 3253 2259 
Q 3253 1453 3087 958 
Q 2922 463 2592 192 
Q 2263 -78 1759 -78 
Q 1097 -78 719 397 
Q 266 969 266 2259 
z
M 844 2259 
Q 844 1131 1108 757 
Q 1372 384 1759 384 
Q 2147 384 2411 759 
Q 2675 1134 2675 2259 
Q 2675 3391 2411 3762 
Q 2147 4134 1753 4134 
Q 1366 4134 1134 3806 
Q 844 3388 844 2259 
z
" transform="scale(0.015625)"/>
        <path id="ArialMT-25" d="M 372 3481 
Q 372 3972 619 4315 
Q 866 4659 1334 4659 
Q 1766 4659 2048 4351 
Q 2331 4044 2331 3447 
Q 2331 2866 2045 2552 
Q 1759 2238 1341 2238 
Q 925 2238 648 2547 
Q 372 2856 372 3481 
z
M 1350 4272 
Q 1141 4272 1002 4090 
Q 863 3909 863 3425 
Q 863 2984 1003 2804 
Q 1144 2625 1350 2625 
Q 1563 2625 1702 2806 
Q 1841 2988 1841 3469 
Q 1841 3913 1700 4092 
Q 1559 4272 1350 4272 
z
M 1353 -169 
L 3859 4659 
L 4316 4659 
L 1819 -169 
L 1353 -169 
z
M 3334 1075 
Q 3334 1569 3581 1911 
Q 3828 2253 4300 2253 
Q 4731 2253 5014 1945 
Q 5297 1638 5297 1041 
Q 5297 459 5011 145 
Q 4725 -169 4303 -169 
Q 3888 -169 3611 142 
Q 3334 453 3334 1075 
z
M 4316 1866 
Q 4103 1866 3964 1684 
Q 3825 1503 3825 1019 
Q 3825 581 3965 400 
Q 4106 219 4313 219 
Q 4528 219 4667 400 
Q 4806 581 4806 1063 
Q 4806 1506 4665 1686 
Q 4525 1866 4316 1866 
z
" transform="scale(0.015625)"/>
       </defs>
       <use xlink:href="#ArialMT-30"/>
       <use xlink:href="#ArialMT-25" transform="translate(55.615234 0)"/>
      </g>
     </g>
    </g>
    <g id="ytick_2">
     <g id="line2d_6">
      <path d="M 63.959734 159.247674 
L 296.249007 159.247674 
" clip-path="url(#p55047166b4)" style="fill: none; stroke: #cccccc; stroke-linecap: round"/>
     </g>
     <g id="text_2">
      <!-- 20% -->
      <g style="fill: #262626" transform="translate(25.839625 164.36551) scale(0.143 -0.143)">
       <defs>
        <path id="ArialMT-32" d="M 3222 541 
L 3222 0 
L 194 0 
Q 188 203 259 391 
Q 375 700 629 1000 
Q 884 1300 1366 1694 
Q 2113 2306 2375 2664 
Q 2638 3022 2638 3341 
Q 2638 3675 2398 3904 
Q 2159 4134 1775 4134 
Q 1369 4134 1125 3890 
Q 881 3647 878 3216 
L 300 3275 
Q 359 3922 746 4261 
Q 1134 4600 1788 4600 
Q 2447 4600 2831 4234 
Q 3216 3869 3216 3328 
Q 3216 3053 3103 2787 
Q 2991 2522 2730 2228 
Q 2469 1934 1863 1422 
Q 1356 997 1212 845 
Q 1069 694 975 541 
L 3222 541 
z
" transform="scale(0.015625)"/>
       </defs>
       <use xlink:href="#ArialMT-32"/>
       <use xlink:href="#ArialMT-30" transform="translate(55.615234 0)"/>
       <use xlink:href="#ArialMT-25" transform="translate(111.230469 0)"/>
      </g>
     </g>
    </g>
    <g id="ytick_3">
     <g id="line2d_7">
      <path d="M 63.959734 116.114943 
L 296.249007 116.114943 
" clip-path="url(#p55047166b4)" style="fill: none; stroke: #cccccc; stroke-linecap: round"/>
     </g>
     <g id="text_3">
      <!-- 40% -->
      <g style="fill: #262626" transform="translate(25.839625 121.232779) scale(0.143 -0.143)">
       <defs>
        <path id="ArialMT-34" d="M 2069 0 
L 2069 1097 
L 81 1097 
L 81 1613 
L 2172 4581 
L 2631 4581 
L 2631 1613 
L 3250 1613 
L 3250 1097 
L 2631 1097 
L 2631 0 
L 2069 0 
z
M 2069 1613 
L 2069 3678 
L 634 1613 
L 2069 1613 
z
" transform="scale(0.015625)"/>
       </defs>
       <use xlink:href="#ArialMT-34"/>
       <use xlink:href="#ArialMT-30" transform="translate(55.615234 0)"/>
       <use xlink:href="#ArialMT-25" transform="translate(111.230469 0)"/>
      </g>
     </g>
    </g>
    <g id="ytick_4">
     <g id="line2d_8">
      <path d="M 63.959734 72.982211 
L 296.249007 72.982211 
" clip-path="url(#p55047166b4)" style="fill: none; stroke: #cccccc; stroke-linecap: round"/>
     </g>
     <g id="text_4">
      <!-- 60% -->
      <g style="fill: #262626" transform="translate(25.839625 78.100047) scale(0.143 -0.143)">
       <defs>
        <path id="ArialMT-36" d="M 3184 3459 
L 2625 3416 
Q 2550 3747 2413 3897 
Q 2184 4138 1850 4138 
Q 1581 4138 1378 3988 
Q 1113 3794 959 3422 
Q 806 3050 800 2363 
Q 1003 2672 1297 2822 
Q 1591 2972 1913 2972 
Q 2475 2972 2870 2558 
Q 3266 2144 3266 1488 
Q 3266 1056 3080 686 
Q 2894 316 2569 119 
Q 2244 -78 1831 -78 
Q 1128 -78 684 439 
Q 241 956 241 2144 
Q 241 3472 731 4075 
Q 1159 4600 1884 4600 
Q 2425 4600 2770 4297 
Q 3116 3994 3184 3459 
z
M 888 1484 
Q 888 1194 1011 928 
Q 1134 663 1356 523 
Q 1578 384 1822 384 
Q 2178 384 2434 671 
Q 2691 959 2691 1453 
Q 2691 1928 2437 2201 
Q 2184 2475 1800 2475 
Q 1419 2475 1153 2201 
Q 888 1928 888 1484 
z
" transform="scale(0.015625)"/>
       </defs>
       <use xlink:href="#ArialMT-36"/>
       <use xlink:href="#ArialMT-30" transform="translate(55.615234 0)"/>
       <use xlink:href="#ArialMT-25" transform="translate(111.230469 0)"/>
      </g>
     </g>
    </g>
    <g id="ytick_5">
     <g id="line2d_9">
      <path d="M 63.959734 29.84948 
L 296.249007 29.84948 
" clip-path="url(#p55047166b4)" style="fill: none; stroke: #cccccc; stroke-linecap: round"/>
     </g>
     <g id="text_5">
      <!-- 80% -->
      <g style="fill: #262626" transform="translate(25.839625 34.967316) scale(0.143 -0.143)">
       <defs>
        <path id="ArialMT-38" d="M 1131 2484 
Q 781 2613 612 2850 
Q 444 3088 444 3419 
Q 444 3919 803 4259 
Q 1163 4600 1759 4600 
Q 2359 4600 2725 4251 
Q 3091 3903 3091 3403 
Q 3091 3084 2923 2848 
Q 2756 2613 2416 2484 
Q 2838 2347 3058 2040 
Q 3278 1734 3278 1309 
Q 3278 722 2862 322 
Q 2447 -78 1769 -78 
Q 1091 -78 675 323 
Q 259 725 259 1325 
Q 259 1772 486 2073 
Q 713 2375 1131 2484 
z
M 1019 3438 
Q 1019 3113 1228 2906 
Q 1438 2700 1772 2700 
Q 2097 2700 2305 2904 
Q 2513 3109 2513 3406 
Q 2513 3716 2298 3927 
Q 2084 4138 1766 4138 
Q 1444 4138 1231 3931 
Q 1019 3725 1019 3438 
z
M 838 1322 
Q 838 1081 952 856 
Q 1066 631 1291 507 
Q 1516 384 1775 384 
Q 2178 384 2440 643 
Q 2703 903 2703 1303 
Q 2703 1709 2433 1975 
Q 2163 2241 1756 2241 
Q 1359 2241 1098 1978 
Q 838 1716 838 1322 
z
" transform="scale(0.015625)"/>
       </defs>
       <use xlink:href="#ArialMT-38"/>
       <use xlink:href="#ArialMT-30" transform="translate(55.615234 0)"/>
       <use xlink:href="#ArialMT-25" transform="translate(111.230469 0)"/>
      </g>
     </g>
    </g>
    <g id="text_6">
     <!-- Water Content (%) -->
     <g style="fill: #262626" transform="translate(18.556312 180.361417) rotate(-90) scale(0.156 -0.156)">
      <defs>
       <path id="ArialMT-57" d="M 1294 0 
L 78 4581 
L 700 4581 
L 1397 1578 
Q 1509 1106 1591 641 
Q 1766 1375 1797 1488 
L 2669 4581 
L 3400 4581 
L 4056 2263 
Q 4303 1400 4413 641 
Q 4500 1075 4641 1638 
L 5359 4581 
L 5969 4581 
L 4713 0 
L 4128 0 
L 3163 3491 
Q 3041 3928 3019 4028 
Q 2947 3713 2884 3491 
L 1913 0 
L 1294 0 
z
" transform="scale(0.015625)"/>
       <path id="ArialMT-61" d="M 2588 409 
Q 2275 144 1986 34 
Q 1697 -75 1366 -75 
Q 819 -75 525 192 
Q 231 459 231 875 
Q 231 1119 342 1320 
Q 453 1522 633 1644 
Q 813 1766 1038 1828 
Q 1203 1872 1538 1913 
Q 2219 1994 2541 2106 
Q 2544 2222 2544 2253 
Q 2544 2597 2384 2738 
Q 2169 2928 1744 2928 
Q 1347 2928 1158 2789 
Q 969 2650 878 2297 
L 328 2372 
Q 403 2725 575 2942 
Q 747 3159 1072 3276 
Q 1397 3394 1825 3394 
Q 2250 3394 2515 3294 
Q 2781 3194 2906 3042 
Q 3031 2891 3081 2659 
Q 3109 2516 3109 2141 
L 3109 1391 
Q 3109 606 3145 398 
Q 3181 191 3288 0 
L 2700 0 
Q 2613 175 2588 409 
z
M 2541 1666 
Q 2234 1541 1622 1453 
Q 1275 1403 1131 1340 
Q 988 1278 909 1158 
Q 831 1038 831 891 
Q 831 666 1001 516 
Q 1172 366 1500 366 
Q 1825 366 2078 508 
Q 2331 650 2450 897 
Q 2541 1088 2541 1459 
L 2541 1666 
z
" transform="scale(0.015625)"/>
       <path id="ArialMT-74" d="M 1650 503 
L 1731 6 
Q 1494 -44 1306 -44 
Q 1000 -44 831 53 
Q 663 150 594 308 
Q 525 466 525 972 
L 525 2881 
L 113 2881 
L 113 3319 
L 525 3319 
L 525 4141 
L 1084 4478 
L 1084 3319 
L 1650 3319 
L 1650 2881 
L 1084 2881 
L 1084 941 
Q 1084 700 1114 631 
Q 1144 563 1211 522 
Q 1278 481 1403 481 
Q 1497 481 1650 503 
z
" transform="scale(0.015625)"/>
       <path id="ArialMT-65" d="M 2694 1069 
L 3275 997 
Q 3138 488 2766 206 
Q 2394 -75 1816 -75 
Q 1088 -75 661 373 
Q 234 822 234 1631 
Q 234 2469 665 2931 
Q 1097 3394 1784 3394 
Q 2450 3394 2872 2941 
Q 3294 2488 3294 1666 
Q 3294 1616 3291 1516 
L 816 1516 
Q 847 969 1125 678 
Q 1403 388 1819 388 
Q 2128 388 2347 550 
Q 2566 713 2694 1069 
z
M 847 1978 
L 2700 1978 
Q 2663 2397 2488 2606 
Q 2219 2931 1791 2931 
Q 1403 2931 1139 2672 
Q 875 2413 847 1978 
z
" transform="scale(0.015625)"/>
       <path id="ArialMT-72" d="M 416 0 
L 416 3319 
L 922 3319 
L 922 2816 
Q 1116 3169 1280 3281 
Q 1444 3394 1641 3394 
Q 1925 3394 2219 3213 
L 2025 2691 
Q 1819 2813 1613 2813 
Q 1428 2813 1281 2702 
Q 1134 2591 1072 2394 
Q 978 2094 978 1738 
L 978 0 
L 416 0 
z
" transform="scale(0.015625)"/>
       <path id="ArialMT-20" transform="scale(0.015625)"/>
       <path id="ArialMT-43" d="M 3763 1606 
L 4369 1453 
Q 4178 706 3683 314 
Q 3188 -78 2472 -78 
Q 1731 -78 1267 223 
Q 803 525 561 1097 
Q 319 1669 319 2325 
Q 319 3041 592 3573 
Q 866 4106 1370 4382 
Q 1875 4659 2481 4659 
Q 3169 4659 3637 4309 
Q 4106 3959 4291 3325 
L 3694 3184 
Q 3534 3684 3231 3912 
Q 2928 4141 2469 4141 
Q 1941 4141 1586 3887 
Q 1231 3634 1087 3207 
Q 944 2781 944 2328 
Q 944 1744 1114 1308 
Q 1284 872 1643 656 
Q 2003 441 2422 441 
Q 2931 441 3284 734 
Q 3638 1028 3763 1606 
z
" transform="scale(0.015625)"/>
       <path id="ArialMT-6f" d="M 213 1659 
Q 213 2581 725 3025 
Q 1153 3394 1769 3394 
Q 2453 3394 2887 2945 
Q 3322 2497 3322 1706 
Q 3322 1066 3130 698 
Q 2938 331 2570 128 
Q 2203 -75 1769 -75 
Q 1072 -75 642 372 
Q 213 819 213 1659 
z
M 791 1659 
Q 791 1022 1069 705 
Q 1347 388 1769 388 
Q 2188 388 2466 706 
Q 2744 1025 2744 1678 
Q 2744 2294 2464 2611 
Q 2184 2928 1769 2928 
Q 1347 2928 1069 2612 
Q 791 2297 791 1659 
z
" transform="scale(0.015625)"/>
       <path id="ArialMT-6e" d="M 422 0 
L 422 3319 
L 928 3319 
L 928 2847 
Q 1294 3394 1984 3394 
Q 2284 3394 2536 3286 
Q 2788 3178 2913 3003 
Q 3038 2828 3088 2588 
Q 3119 2431 3119 2041 
L 3119 0 
L 2556 0 
L 2556 2019 
Q 2556 2363 2490 2533 
Q 2425 2703 2258 2804 
Q 2091 2906 1866 2906 
Q 1506 2906 1245 2678 
Q 984 2450 984 1813 
L 984 0 
L 422 0 
z
" transform="scale(0.015625)"/>
       <path id="ArialMT-28" d="M 1497 -1347 
Q 1031 -759 709 28 
Q 388 816 388 1659 
Q 388 2403 628 3084 
Q 909 3875 1497 4659 
L 1900 4659 
Q 1522 4009 1400 3731 
Q 1209 3300 1100 2831 
Q 966 2247 966 1656 
Q 966 153 1900 -1347 
L 1497 -1347 
z
" transform="scale(0.015625)"/>
       <path id="ArialMT-29" d="M 791 -1347 
L 388 -1347 
Q 1322 153 1322 1656 
Q 1322 2244 1188 2822 
Q 1081 3291 891 3722 
Q 769 4003 388 4659 
L 791 4659 
Q 1378 3875 1659 3084 
Q 1900 2403 1900 1659 
Q 1900 816 1576 28 
Q 1253 -759 791 -1347 
z
" transform="scale(0.015625)"/>
      </defs>
      <use xlink:href="#ArialMT-57"/>
      <use xlink:href="#ArialMT-61" transform="translate(90.634766 0)"/>
      <use xlink:href="#ArialMT-74" transform="translate(146.25 0)"/>
      <use xlink:href="#ArialMT-65" transform="translate(174.033203 0)"/>
      <use xlink:href="#ArialMT-72" transform="translate(229.648438 0)"/>
      <use xlink:href="#ArialMT-20" transform="translate(262.949219 0)"/>
      <use xlink:href="#ArialMT-43" transform="translate(290.732422 0)"/>
      <use xlink:href="#ArialMT-6f" transform="translate(362.949219 0)"/>
      <use xlink:href="#ArialMT-6e" transform="translate(418.564453 0)"/>
      <use xlink:href="#ArialMT-74" transform="translate(474.179688 0)"/>
      <use xlink:href="#ArialMT-65" transform="translate(501.962891 0)"/>
      <use xlink:href="#ArialMT-6e" transform="translate(557.578125 0)"/>
      <use xlink:href="#ArialMT-74" transform="translate(613.193359 0)"/>
      <use xlink:href="#ArialMT-20" transform="translate(640.976562 0)"/>
      <use xlink:href="#ArialMT-28" transform="translate(668.759766 0)"/>
      <use xlink:href="#ArialMT-25" transform="translate(702.060547 0)"/>
      <use xlink:href="#ArialMT-29" transform="translate(790.976562 0)"/>
     </g>
    </g>
   </g>
   <g id="line2d_10">
    <path d="M 74.518338 53.156503 
L 76.651389 53.160351 
L 78.78444 53.165164 
L 80.917491 53.171183 
L 83.050542 53.178709 
L 85.183594 53.188119 
L 87.316645 53.199883 
L 89.449696 53.214589 
L 91.582747 53.23297 
L 93.715798 53.255937 
L 95.848849 53.28463 
L 97.981901 53.320462 
L 100.114952 53.365194 
L 102.248003 53.421007 
L 104.381054 53.490602 
L 106.514105 53.577318 
L 108.647156 53.68526 
L 110.780208 53.819464 
L 112.913259 53.986072 
L 115.04631 54.192533 
L 117.179361 54.447805 
L 119.312412 54.762559 
L 121.445464 55.149354 
L 123.578515 55.622745 
L 125.711566 56.199286 
L 127.844617 56.89735 
L 129.977668 57.736716 
L 132.110719 58.737855 
L 134.243771 59.920869 
L 136.376822 61.304104 
L 138.509873 62.90253 
L 140.642924 64.726057 
L 142.775975 66.778056 
L 144.909026 69.054355 
L 147.042078 71.542957 
L 149.175129 74.224574 
L 151.30818 77.073921 
L 153.441231 80.061546 
L 155.574282 83.155892 
L 157.707333 86.325262 
L 159.840385 89.539471 
L 161.973436 92.771037 
L 164.106487 95.995895 
L 166.239538 99.193697 
L 168.372589 102.347782 
L 170.505641 105.444934 
L 172.638692 108.475003 
L 174.771743 111.430488 
L 176.904794 114.306103 
L 179.037845 117.098379 
L 181.170896 119.805305 
L 183.303948 122.426026 
L 185.436999 124.960583 
L 187.57005 127.409704 
L 189.703101 129.774635 
L 191.836152 132.057004 
L 193.969203 134.258711 
L 196.102255 136.381849 
L 198.235306 138.428635 
L 200.368357 140.401363 
L 202.501408 142.302363 
L 204.634459 144.133975 
L 206.76751 145.898522 
L 208.900562 147.598302 
L 211.033613 149.235567 
L 213.166664 150.812523 
L 215.299715 152.331316 
L 217.432766 153.794037 
L 219.565818 155.202712 
L 221.698869 156.559305 
L 223.83192 157.865715 
L 225.964971 159.123779 
L 228.098022 160.335271 
L 230.231073 161.501903 
L 232.364125 162.625327 
L 234.497176 163.707136 
L 236.630227 164.748868 
L 238.763278 165.752001 
L 240.896329 166.717964 
L 243.02938 167.648131 
L 245.162432 168.543827 
L 247.295483 169.406328 
L 249.428534 170.236862 
L 251.561585 171.036615 
L 253.694636 171.806725 
L 255.827688 172.548291 
L 257.960739 173.262372 
L 260.09379 173.949984 
L 262.226841 174.61211 
L 264.359892 175.249693 
L 266.492943 175.863643 
L 268.625995 176.454836 
L 270.759046 177.024115 
L 272.892097 177.572294 
L 275.025148 178.100153 
L 277.158199 178.608445 
L 279.29125 179.097897 
L 281.424302 179.569206 
L 283.557353 180.023046 
L 285.690404 180.460062 
" clip-path="url(#p55047166b4)" style="fill: none; stroke-dasharray: 11.1,4.8; stroke-dashoffset: 0; stroke: #4c72b0; stroke-width: 3"/>
   </g>
   <g id="line2d_11">
    <path d="M 74.518338 61.77089 
L 76.651389 61.771842 
L 78.78444 61.773077 
L 80.917491 61.774682 
L 83.050542 61.776766 
L 85.183594 61.779471 
L 87.316645 61.782984 
L 89.449696 61.787545 
L 91.582747 61.793466 
L 93.715798 61.801153 
L 95.848849 61.811132 
L 97.981901 61.824085 
L 100.114952 61.840895 
L 102.248003 61.862709 
L 104.381054 61.891008 
L 106.514105 61.927714 
L 108.647156 61.975304 
L 110.780208 62.03698 
L 112.913259 62.116862 
L 115.04631 62.220248 
L 117.179361 62.353921 
L 119.312412 62.526535 
L 121.445464 62.749074 
L 123.578515 63.035375 
L 125.711566 63.402728 
L 127.844617 63.872472 
L 129.977668 64.470563 
L 132.110719 65.227943 
L 134.243771 66.180558 
L 136.376822 67.368754 
L 138.509873 68.835763 
L 140.642924 70.625013 
L 142.775975 72.776141 
L 144.909026 75.319925 
L 147.042078 78.272772 
L 149.175129 81.631897 
L 151.30818 85.372484 
L 153.441231 89.447917 
L 155.574282 93.793351 
L 157.707333 98.331968 
L 159.840385 102.982477 
L 161.973436 107.666244 
L 164.106487 112.31282 
L 166.239538 116.863299 
L 168.372589 121.271603 
L 170.505641 125.504137 
L 172.638692 129.538449 
L 174.771743 133.361386 
L 176.904794 136.967175 
L 179.037845 140.355633 
L 181.170896 143.530644 
L 183.303948 146.498912 
L 185.436999 149.268994 
L 187.57005 151.850569 
L 189.703101 154.253899 
L 191.836152 156.489441 
L 193.969203 158.567581 
L 196.102255 160.498446 
L 198.235306 162.291789 
L 200.368357 163.956914 
L 202.501408 165.502638 
L 204.634459 166.937271 
L 206.76751 168.268617 
L 208.900562 169.503984 
L 211.033613 170.6502 
L 213.166664 171.713632 
L 215.299715 172.700213 
L 217.432766 173.615462 
L 219.565818 174.464514 
L 221.698869 175.252139 
L 223.83192 175.982768 
L 225.964971 176.660518 
L 228.098022 177.289209 
L 230.231073 177.872389 
L 232.364125 178.413347 
L 234.497176 178.91514 
L 236.630227 179.380601 
L 238.763278 179.812359 
L 240.896329 180.212854 
L 243.02938 180.584349 
L 245.162432 180.928943 
L 247.295483 181.248584 
L 249.428534 181.54508 
L 251.561585 181.820104 
L 253.694636 182.075214 
L 255.827688 182.311849 
L 257.960739 182.531349 
L 260.09379 182.734954 
L 262.226841 182.923815 
L 264.359892 183.098999 
L 266.492943 183.261497 
L 268.625995 183.412228 
L 270.759046 183.552044 
L 272.892097 183.681735 
L 275.025148 183.802035 
L 277.158199 183.913623 
L 279.29125 184.01713 
L 281.424302 184.113141 
L 283.557353 184.2022 
L 285.690404 184.28481 
" clip-path="url(#p55047166b4)" style="fill: none; stroke-dasharray: 19.2,4.8,3,4.8; stroke-dashoffset: 0; stroke: #dd8452; stroke-width: 3"/>
   </g>
   <g id="line2d_12">
    <path d="M 74.518338 92.82802 
L 76.651389 92.829342 
L 78.78444 92.831032 
L 80.917491 92.833191 
L 83.050542 92.83595 
L 85.183594 92.839476 
L 87.316645 92.843982 
L 89.449696 92.84974 
L 91.582747 92.857097 
L 93.715798 92.866497 
L 95.848849 92.878504 
L 97.981901 92.893842 
L 100.114952 92.913427 
L 102.248003 92.938433 
L 104.381054 92.970347 
L 106.514105 93.011064 
L 108.647156 93.062983 
L 110.780208 93.129144 
L 112.913259 93.213383 
L 115.04631 93.32053 
L 117.179361 93.456629 
L 119.312412 93.629213 
L 121.445464 93.847597 
L 123.578515 94.123198 
L 125.711566 94.469842 
L 127.844617 94.904027 
L 129.977668 95.445065 
L 132.110719 96.115002 
L 134.243771 96.938211 
L 136.376822 97.940503 
L 138.509873 99.147665 
L 140.642924 100.583389 
L 142.775975 102.266687 
L 144.909026 104.209126 
L 147.042078 106.412334 
L 149.175129 108.866381 
L 151.30818 111.549518 
L 153.441231 114.429455 
L 155.574282 117.46602 
L 157.707333 120.614637 
L 159.840385 123.829945 
L 161.973436 127.068946 
L 164.106487 130.293291 
L 166.239538 133.470591 
L 168.372589 136.574869 
L 170.505641 139.586344 
L 172.638692 142.490822 
L 174.771743 145.278872 
L 176.904794 147.94496 
L 179.037845 150.486633 
L 181.170896 152.903789 
L 183.303948 155.198078 
L 185.436999 157.372406 
L 187.57005 159.430549 
L 189.703101 161.376856 
L 191.836152 163.216022 
L 193.969203 164.952917 
L 196.102255 166.592469 
L 198.235306 168.13957 
L 200.368357 169.599017 
L 202.501408 170.975468 
L 204.634459 172.273416 
L 206.76751 173.497169 
L 208.900562 174.650846 
L 211.033613 175.738368 
L 213.166664 176.76346 
L 215.299715 177.729657 
L 217.432766 178.640306 
L 219.565818 179.498573 
L 221.698869 180.307451 
L 223.83192 181.069768 
L 225.964971 181.788193 
L 228.098022 182.465246 
L 230.231073 183.103302 
L 232.364125 183.704603 
L 234.497176 184.271264 
L 236.630227 184.805278 
L 238.763278 185.308524 
L 240.896329 185.782773 
L 243.02938 186.229696 
L 245.162432 186.650865 
L 247.295483 187.047765 
L 249.428534 187.421794 
L 251.561585 187.774269 
L 253.694636 188.106433 
L 255.827688 188.419455 
L 257.960739 188.714438 
L 260.09379 188.992422 
L 262.226841 189.254387 
L 264.359892 189.501255 
L 266.492943 189.733897 
L 268.625995 189.953132 
L 270.759046 190.159733 
L 272.892097 190.354428 
L 275.025148 190.537903 
L 277.158199 190.710805 
L 279.29125 190.873743 
L 281.424302 191.027291 
L 283.557353 191.17199 
L 285.690404 191.30835 
" clip-path="url(#p55047166b4)" style="fill: none; stroke: #55a868; stroke-width: 3; stroke-linecap: round"/>
   </g>
   <g id="patch_3">
    <path d="M 63.959734 207.585959 
L 63.959734 24.556313 
" style="fill: none; stroke: #cccccc; stroke-width: 1.25; stroke-linejoin: miter; stroke-linecap: square"/>
   </g>
   <g id="patch_4">
    <path d="M 296.249007 207.585959 
L 296.249007 24.556313 
" style="fill: none; stroke: #cccccc; stroke-width: 1.25; stroke-linejoin: miter; stroke-linecap: square"/>
   </g>
   <g id="patch_5">
    <path d="M 63.959734 207.585959 
L 296.249007 207.585959 
" style="fill: none; stroke: #cccccc; stroke-width: 1.25; stroke-linejoin: miter; stroke-linecap: square"/>
   </g>
   <g id="patch_6">
    <path d="M 63.959734 24.556312 
L 296.249007 24.556312 
" style="fill: none; stroke: #cccccc; stroke-width: 1.25; stroke-linejoin: miter; stroke-linecap: square"/>
   </g>
   <g id="text_7">
    <!-- $K_s$ = 136.0 -->
    <g style="fill: #4c72b0" transform="translate(75.574198 152.677065) scale(0.13 -0.13)">
     <defs>
      <path id="DejaVuSans-Oblique-4b" d="M 1081 4666 
L 1716 4666 
L 1331 2700 
L 3781 4666 
L 4622 4666 
L 1850 2438 
L 3878 0 
L 3109 0 
L 1247 2272 
L 806 0 
L 172 0 
L 1081 4666 
z
" transform="scale(0.015625)"/>
      <path id="DejaVuSans-Oblique-73" d="M 3200 3397 
L 3091 2853 
Q 2863 2978 2609 3040 
Q 2356 3103 2088 3103 
Q 1634 3103 1373 2948 
Q 1113 2794 1113 2528 
Q 1113 2219 1719 2053 
Q 1766 2041 1788 2034 
L 1972 1978 
Q 2547 1819 2739 1644 
Q 2931 1469 2931 1166 
Q 2931 609 2489 259 
Q 2047 -91 1331 -91 
Q 1053 -91 747 -37 
Q 441 16 72 128 
L 184 722 
Q 500 559 806 475 
Q 1113 391 1394 391 
Q 1816 391 2080 572 
Q 2344 753 2344 1031 
Q 2344 1331 1650 1516 
L 1591 1531 
L 1394 1581 
Q 956 1697 753 1886 
Q 550 2075 550 2369 
Q 550 2928 970 3256 
Q 1391 3584 2113 3584 
Q 2397 3584 2667 3537 
Q 2938 3491 3200 3397 
z
" transform="scale(0.015625)"/>
      <path id="ArialMT-3d" d="M 3381 2694 
L 356 2694 
L 356 3219 
L 3381 3219 
L 3381 2694 
z
M 3381 1303 
L 356 1303 
L 356 1828 
L 3381 1828 
L 3381 1303 
z
" transform="scale(0.015625)"/>
      <path id="ArialMT-31" d="M 2384 0 
L 1822 0 
L 1822 3584 
Q 1619 3391 1289 3197 
Q 959 3003 697 2906 
L 697 3450 
Q 1169 3672 1522 3987 
Q 1875 4303 2022 4600 
L 2384 4600 
L 2384 0 
z
" transform="scale(0.015625)"/>
      <path id="ArialMT-33" d="M 269 1209 
L 831 1284 
Q 928 806 1161 595 
Q 1394 384 1728 384 
Q 2125 384 2398 659 
Q 2672 934 2672 1341 
Q 2672 1728 2419 1979 
Q 2166 2231 1775 2231 
Q 1616 2231 1378 2169 
L 1441 2663 
Q 1497 2656 1531 2656 
Q 1891 2656 2178 2843 
Q 2466 3031 2466 3422 
Q 2466 3731 2256 3934 
Q 2047 4138 1716 4138 
Q 1388 4138 1169 3931 
Q 950 3725 888 3313 
L 325 3413 
Q 428 3978 793 4289 
Q 1159 4600 1703 4600 
Q 2078 4600 2393 4439 
Q 2709 4278 2876 4000 
Q 3044 3722 3044 3409 
Q 3044 3113 2884 2869 
Q 2725 2625 2413 2481 
Q 2819 2388 3044 2092 
Q 3269 1797 3269 1353 
Q 3269 753 2831 336 
Q 2394 -81 1725 -81 
Q 1122 -81 723 278 
Q 325 638 269 1209 
z
" transform="scale(0.015625)"/>
      <path id="ArialMT-2e" d="M 581 0 
L 581 641 
L 1222 641 
L 1222 0 
L 581 0 
z
" transform="scale(0.015625)"/>
     </defs>
     <use xlink:href="#DejaVuSans-Oblique-4b" transform="translate(0 0.09375)"/>
     <use xlink:href="#DejaVuSans-Oblique-73" transform="translate(65.576172 -16.3125) scale(0.7)"/>
     <use xlink:href="#ArialMT-20" transform="translate(104.780273 0.09375)"/>
     <use xlink:href="#ArialMT-3d" transform="translate(132.563477 0.09375)"/>
     <use xlink:href="#ArialMT-20" transform="translate(190.961914 0.09375)"/>
     <use xlink:href="#ArialMT-31" transform="translate(218.745117 0.09375)"/>
     <use xlink:href="#ArialMT-33" transform="translate(274.360352 0.09375)"/>
     <use xlink:href="#ArialMT-36" transform="translate(329.975586 0.09375)"/>
     <use xlink:href="#ArialMT-2e" transform="translate(385.59082 0.09375)"/>
     <use xlink:href="#ArialMT-30" transform="translate(413.374023 0.09375)"/>
    </g>
   </g>
   <g id="text_8">
    <!-- $K_s$ = 52.0 -->
    <g style="fill: #dd8452" transform="translate(75.574198 170.98003) scale(0.13 -0.13)">
     <defs>
      <path id="ArialMT-35" d="M 266 1200 
L 856 1250 
Q 922 819 1161 601 
Q 1400 384 1738 384 
Q 2144 384 2425 690 
Q 2706 997 2706 1503 
Q 2706 1984 2436 2262 
Q 2166 2541 1728 2541 
Q 1456 2541 1237 2417 
Q 1019 2294 894 2097 
L 366 2166 
L 809 4519 
L 3088 4519 
L 3088 3981 
L 1259 3981 
L 1013 2750 
Q 1425 3038 1878 3038 
Q 2478 3038 2890 2622 
Q 3303 2206 3303 1553 
Q 3303 931 2941 478 
Q 2500 -78 1738 -78 
Q 1113 -78 717 272 
Q 322 622 266 1200 
z
" transform="scale(0.015625)"/>
     </defs>
     <use xlink:href="#DejaVuSans-Oblique-4b" transform="translate(0 0.09375)"/>
     <use xlink:href="#DejaVuSans-Oblique-73" transform="translate(65.576172 -16.3125) scale(0.7)"/>
     <use xlink:href="#ArialMT-20" transform="translate(104.780273 0.09375)"/>
     <use xlink:href="#ArialMT-3d" transform="translate(132.563477 0.09375)"/>
     <use xlink:href="#ArialMT-20" transform="translate(190.961914 0.09375)"/>
     <use xlink:href="#ArialMT-35" transform="translate(218.745117 0.09375)"/>
     <use xlink:href="#ArialMT-32" transform="translate(274.360352 0.09375)"/>
     <use xlink:href="#ArialMT-2e" transform="translate(329.975586 0.09375)"/>
     <use xlink:href="#ArialMT-30" transform="translate(357.758789 0.09375)"/>
    </g>
   </g>
   <g id="text_9">
    <!-- $K_s$ = 9.9 -->
    <g style="fill: #55a868" transform="translate(75.574198 189.282995) scale(0.13 -0.13)">
     <defs>
      <path id="ArialMT-39" d="M 350 1059 
L 891 1109 
Q 959 728 1153 556 
Q 1347 384 1650 384 
Q 1909 384 2104 503 
Q 2300 622 2425 820 
Q 2550 1019 2634 1356 
Q 2719 1694 2719 2044 
Q 2719 2081 2716 2156 
Q 2547 1888 2255 1720 
Q 1963 1553 1622 1553 
Q 1053 1553 659 1965 
Q 266 2378 266 3053 
Q 266 3750 677 4175 
Q 1088 4600 1706 4600 
Q 2153 4600 2523 4359 
Q 2894 4119 3086 3673 
Q 3278 3228 3278 2384 
Q 3278 1506 3087 986 
Q 2897 466 2520 194 
Q 2144 -78 1638 -78 
Q 1100 -78 759 220 
Q 419 519 350 1059 
z
M 2653 3081 
Q 2653 3566 2395 3850 
Q 2138 4134 1775 4134 
Q 1400 4134 1122 3828 
Q 844 3522 844 3034 
Q 844 2597 1108 2323 
Q 1372 2050 1759 2050 
Q 2150 2050 2401 2323 
Q 2653 2597 2653 3081 
z
" transform="scale(0.015625)"/>
     </defs>
     <use xlink:href="#DejaVuSans-Oblique-4b" transform="translate(0 0.09375)"/>
     <use xlink:href="#DejaVuSans-Oblique-73" transform="translate(65.576172 -16.3125) scale(0.7)"/>
     <use xlink:href="#ArialMT-20" transform="translate(104.780273 0.09375)"/>
     <use xlink:href="#ArialMT-3d" transform="translate(132.563477 0.09375)"/>
     <use xlink:href="#ArialMT-20" transform="translate(190.961914 0.09375)"/>
     <use xlink:href="#ArialMT-39" transform="translate(218.745117 0.09375)"/>
     <use xlink:href="#ArialMT-2e" transform="translate(274.360352 0.09375)"/>
     <use xlink:href="#ArialMT-39" transform="translate(302.143555 0.09375)"/>
    </g>
   </g>
   <g id="text_10">
    <!-- Loam -->
    <g style="fill: #262626" transform="translate(160.594621 18.556312) scale(0.156 -0.156)">
     <defs>
      <path id="ArialMT-4c" d="M 469 0 
L 469 4581 
L 1075 4581 
L 1075 541 
L 3331 541 
L 3331 0 
L 469 0 
z
" transform="scale(0.015625)"/>
      <path id="ArialMT-6d" d="M 422 0 
L 422 3319 
L 925 3319 
L 925 2853 
Q 1081 3097 1340 3245 
Q 1600 3394 1931 3394 
Q 2300 3394 2536 3241 
Q 2772 3088 2869 2813 
Q 3263 3394 3894 3394 
Q 4388 3394 4653 3120 
Q 4919 2847 4919 2278 
L 4919 0 
L 4359 0 
L 4359 2091 
Q 4359 2428 4304 2576 
Q 4250 2725 4106 2815 
Q 3963 2906 3769 2906 
Q 3419 2906 3187 2673 
Q 2956 2441 2956 1928 
L 2956 0 
L 2394 0 
L 2394 2156 
Q 2394 2531 2256 2718 
Q 2119 2906 1806 2906 
Q 1569 2906 1367 2781 
Q 1166 2656 1075 2415 
Q 984 2175 984 1722 
L 984 0 
L 422 0 
z
" transform="scale(0.015625)"/>
     </defs>
     <use xlink:href="#ArialMT-4c"/>
     <use xlink:href="#ArialMT-6f" transform="translate(55.615234 0)"/>
     <use xlink:href="#ArialMT-61" transform="translate(111.230469 0)"/>
     <use xlink:href="#ArialMT-6d" transform="translate(166.845703 0)"/>
    </g>
   </g>
  </g>
  <g id="axes_2">
   <g id="patch_7">
    <path d="M 315.196984 207.585959 
L 547.486257 207.585959 
L 547.486257 24.556312 
L 315.196984 24.556312 
z
" style="fill: #ffffff"/>
   </g>
   <g id="matplotlib.axis_3">
    <g id="xtick_5">
     <g id="line2d_13">
      <path d="M 352.152096 207.585959 
L 352.152096 24.556312 
" clip-path="url(#pedd0219a5f)" style="fill: none; stroke: #cccccc; stroke-linecap: round"/>
     </g>
    </g>
    <g id="xtick_6">
     <g id="line2d_14">
      <path d="M 404.945113 207.585959 
L 404.945113 24.556312 
" clip-path="url(#pedd0219a5f)" style="fill: none; stroke: #cccccc; stroke-linecap: round"/>
     </g>
    </g>
    <g id="xtick_7">
     <g id="line2d_15">
      <path d="M 457.738129 207.585959 
L 457.738129 24.556312 
" clip-path="url(#pedd0219a5f)" style="fill: none; stroke: #cccccc; stroke-linecap: round"/>
     </g>
    </g>
    <g id="xtick_8">
     <g id="line2d_16">
      <path d="M 510.531146 207.585959 
L 510.531146 24.556312 
" clip-path="url(#pedd0219a5f)" style="fill: none; stroke: #cccccc; stroke-linecap: round"/>
     </g>
    </g>
   </g>
   <g id="matplotlib.axis_4">
    <g id="ytick_6">
     <g id="line2d_17">
      <path d="M 315.196984 202.380405 
L 547.486257 202.380405 
" clip-path="url(#pedd0219a5f)" style="fill: none; stroke: #cccccc; stroke-linecap: round"/>
     </g>
    </g>
    <g id="ytick_7">
     <g id="line2d_18">
      <path d="M 315.196984 159.247674 
L 547.486257 159.247674 
" clip-path="url(#pedd0219a5f)" style="fill: none; stroke: #cccccc; stroke-linecap: round"/>
     </g>
    </g>
    <g id="ytick_8">
     <g id="line2d_19">
      <path d="M 315.196984 116.114943 
L 547.486257 116.114943 
" clip-path="url(#pedd0219a5f)" style="fill: none; stroke: #cccccc; stroke-linecap: round"/>
     </g>
    </g>
    <g id="ytick_9">
     <g id="line2d_20">
      <path d="M 315.196984 72.982211 
L 547.486257 72.982211 
" clip-path="url(#pedd0219a5f)" style="fill: none; stroke: #cccccc; stroke-linecap: round"/>
     </g>
    </g>
    <g id="ytick_10">
     <g id="line2d_21">
      <path d="M 315.196984 29.84948 
L 547.486257 29.84948 
" clip-path="url(#pedd0219a5f)" style="fill: none; stroke: #cccccc; stroke-linecap: round"/>
     </g>
    </g>
   </g>
   <g id="line2d_22">
    <path d="M 325.755588 90.245215 
L 327.888639 90.247684 
L 330.02169 90.250768 
L 332.154741 90.254619 
L 334.287792 90.259429 
L 336.420844 90.265436 
L 338.553895 90.272937 
L 340.686946 90.282301 
L 342.819997 90.293991 
L 344.953048 90.308581 
L 347.086099 90.326787 
L 349.219151 90.349499 
L 351.352202 90.377821 
L 353.485253 90.413125 
L 355.618304 90.457107 
L 357.751355 90.511864 
L 359.884406 90.579978 
L 362.017458 90.66462 
L 364.150509 90.769666 
L 366.28356 90.899826 
L 368.416611 91.060791 
L 370.549662 91.259374 
L 372.682714 91.503649 
L 374.815765 91.803061 
L 376.948816 92.168478 
L 379.081867 92.612153 
L 381.214918 93.147546 
L 383.347969 93.78897 
L 385.481021 94.551003 
L 387.614072 95.44767 
L 389.747123 96.491405 
L 391.880174 97.691891 
L 394.013225 99.054899 
L 396.146276 100.581345 
L 398.279328 102.266721 
L 400.412379 104.101067 
L 402.54543 106.069509 
L 404.678481 108.153287 
L 406.811532 110.331095 
L 408.944583 112.580522 
L 411.077635 114.879371 
L 413.210686 117.206732 
L 415.343737 119.543728 
L 417.476788 121.873932 
L 419.609839 124.183524 
L 421.742891 126.461226 
L 423.875942 128.69811 
L 426.008993 130.887333 
L 428.142044 133.023837 
L 430.275095 135.104059 
L 432.408146 137.125657 
L 434.541198 139.087272 
L 436.674249 140.988323 
L 438.8073 142.828833 
L 440.940351 144.60929 
L 443.073402 146.330533 
L 445.206453 147.99366 
L 447.339505 149.599958 
L 449.472556 151.150844 
L 451.605607 152.647825 
L 453.738658 154.09246 
L 455.871709 155.486337 
L 458.00476 156.831052 
L 460.137812 158.128192 
L 462.270863 159.37933 
L 464.403914 160.58601 
L 466.536965 161.749745 
L 468.670016 162.872011 
L 470.803068 163.954246 
L 472.936119 164.997848 
L 475.06917 166.004172 
L 477.202221 166.974531 
L 479.335272 167.910196 
L 481.468323 168.812396 
L 483.601375 169.682321 
L 485.734426 170.521118 
L 487.867477 171.329896 
L 490.000528 172.109725 
L 492.133579 172.861639 
L 494.26663 173.586635 
L 496.399682 174.285673 
L 498.532733 174.959684 
L 500.665784 175.609561 
L 502.798835 176.236167 
L 504.931886 176.840336 
L 507.064938 177.42287 
L 509.197989 177.984544 
L 511.33104 178.526104 
L 513.464091 179.048271 
L 515.597142 179.551739 
L 517.730193 180.037176 
L 519.863245 180.50523 
L 521.996296 180.956521 
L 524.129347 181.391652 
L 526.262398 181.811199 
L 528.395449 182.215722 
L 530.5285 182.605758 
L 532.661552 182.981826 
L 534.794603 183.344426 
L 536.927654 183.694041 
" clip-path="url(#pedd0219a5f)" style="fill: none; stroke-dasharray: 11.1,4.8; stroke-dashoffset: 0; stroke: #4c72b0; stroke-width: 3"/>
   </g>
   <g id="line2d_23">
    <path d="M 325.755588 94.550296 
L 327.888639 94.550803 
L 330.02169 94.55146 
L 332.154741 94.55231 
L 334.287792 94.55341 
L 336.420844 94.554836 
L 338.553895 94.556681 
L 340.686946 94.55907 
L 342.819997 94.562164 
L 344.953048 94.566169 
L 347.086099 94.571355 
L 349.219151 94.578067 
L 351.352202 94.586756 
L 353.485253 94.598002 
L 355.618304 94.612555 
L 357.751355 94.631384 
L 359.884406 94.655739 
L 362.017458 94.687234 
L 364.150509 94.727944 
L 366.28356 94.780536 
L 368.416611 94.848434 
L 370.549662 94.936013 
L 372.682714 95.048853 
L 374.815765 95.194026 
L 376.948816 95.380451 
L 379.081867 95.619279 
L 381.214918 95.924315 
L 383.347969 96.312422 
L 385.481021 96.803839 
L 387.614072 97.422323 
L 389.747123 98.194937 
L 391.880174 99.151312 
L 394.013225 100.322192 
L 396.146276 101.737112 
L 398.279328 103.421247 
L 400.412379 105.39171 
L 402.54543 107.653923 
L 404.678481 110.198879 
L 406.811532 113.00216 
L 408.944583 116.025179 
L 411.077635 119.218546 
L 413.210686 122.526836 
L 415.343737 125.893692 
L 417.476788 129.266277 
L 419.609839 132.598432 
L 421.742891 135.852372 
L 423.875942 138.999082 
L 426.008993 142.017805 
L 428.142044 144.894975 
L 430.275095 147.622953 
L 432.408146 150.198743 
L 434.541198 152.622851 
L 436.674249 154.898315 
L 438.8073 157.029923 
L 440.940351 159.02361 
L 443.073402 160.886 
L 445.206453 162.624073 
L 447.339505 164.244918 
L 449.472556 165.755569 
L 451.605607 167.162889 
L 453.738658 168.473492 
L 455.871709 169.693697 
L 458.00476 170.829503 
L 460.137812 171.88658 
L 462.270863 172.870262 
L 464.403914 173.785559 
L 466.536965 174.63716 
L 468.670016 175.429454 
L 470.803068 176.166538 
L 472.936119 176.852235 
L 475.06917 177.490113 
L 477.202221 178.083493 
L 479.335272 178.63547 
L 481.468323 179.148929 
L 483.601375 179.626551 
L 485.734426 180.070835 
L 487.867477 180.484106 
L 490.000528 180.868527 
L 492.133579 181.22611 
L 494.26663 181.558729 
L 496.399682 181.868125 
L 498.532733 182.15592 
L 500.665784 182.423622 
L 502.798835 182.672632 
L 504.931886 182.904257 
L 507.064938 183.119709 
L 509.197989 183.320118 
L 511.33104 183.506534 
L 513.464091 183.679934 
L 515.597142 183.841227 
L 517.730193 183.991258 
L 519.863245 184.130814 
L 521.996296 184.260625 
L 524.129347 184.381373 
L 526.262398 184.493689 
L 528.395449 184.598164 
L 530.5285 184.695343 
L 532.661552 184.785738 
L 534.794603 184.86982 
L 536.927654 184.948032 
" clip-path="url(#pedd0219a5f)" style="fill: none; stroke-dasharray: 19.2,4.8,3,4.8; stroke-dashoffset: 0; stroke: #dd8452; stroke-width: 3"/>
   </g>
   <g id="line2d_24">
    <path d="M 325.755588 94.340909 
L 327.888639 94.343271 
L 330.02169 94.34633 
L 332.154741 94.350291 
L 334.287792 94.355422 
L 336.420844 94.362066 
L 338.553895 94.370671 
L 340.686946 94.381811 
L 342.819997 94.396235 
L 344.953048 94.414905 
L 347.086099 94.439066 
L 349.219151 94.470325 
L 351.352202 94.510751 
L 353.485253 94.563007 
L 355.618304 94.630513 
L 357.751355 94.717649 
L 359.884406 94.830007 
L 362.017458 94.974695 
L 364.150509 95.160695 
L 366.28356 95.399281 
L 368.416611 95.704466 
L 370.549662 96.093457 
L 372.682714 96.587056 
L 374.815765 97.209887 
L 376.948816 97.990328 
L 379.081867 98.959925 
L 381.214918 100.152088 
L 383.347969 101.599875 
L 385.481021 103.332835 
L 387.614072 105.373094 
L 389.747123 107.731252 
L 391.880174 110.402941 
L 394.013225 113.36702 
L 396.146276 116.586095 
L 398.279328 120.009503 
L 400.412379 123.578152 
L 402.54543 127.230133 
L 404.678481 130.905943 
L 406.811532 134.552463 
L 408.944583 138.125325 
L 411.077635 141.589774 
L 413.210686 144.920375 
L 415.343737 148.099989 
L 417.476788 151.118423 
L 419.609839 153.971004 
L 421.742891 156.657267 
L 423.875942 159.179828 
L 426.008993 161.543458 
L 428.142044 163.754369 
L 430.275095 165.819659 
L 432.408146 167.746912 
L 434.541198 169.543898 
L 436.674249 171.218374 
L 438.8073 172.777933 
L 440.940351 174.229915 
L 443.073402 175.581349 
L 445.206453 176.838914 
L 447.339505 178.008927 
L 449.472556 179.097337 
L 451.605607 180.10973 
L 453.738658 181.051341 
L 455.871709 181.927063 
L 458.00476 182.741468 
L 460.137812 183.498823 
L 462.270863 184.203102 
L 464.403914 184.858012 
L 466.536965 185.467002 
L 468.670016 186.033285 
L 470.803068 186.559851 
L 472.936119 187.049481 
L 475.06917 187.504764 
L 477.202221 187.928107 
L 479.335272 188.321749 
L 481.468323 188.687772 
L 483.601375 189.028115 
L 485.734426 189.344578 
L 487.867477 189.638837 
L 490.000528 189.912449 
L 492.133579 190.166862 
L 494.26663 190.403424 
L 496.399682 190.623386 
L 498.532733 190.827915 
L 500.665784 191.018092 
L 502.798835 191.194925 
L 504.931886 191.359349 
L 507.064938 191.512237 
L 509.197989 191.654396 
L 511.33104 191.78658 
L 513.464091 191.909489 
L 515.597142 192.023774 
L 517.730193 192.130039 
L 519.863245 192.228848 
L 521.996296 192.320723 
L 524.129347 192.406152 
L 526.262398 192.485586 
L 528.395449 192.559447 
L 530.5285 192.628125 
L 532.661552 192.691983 
L 534.794603 192.751361 
L 536.927654 192.806573 
" clip-path="url(#pedd0219a5f)" style="fill: none; stroke: #55a868; stroke-width: 3; stroke-linecap: round"/>
   </g>
   <g id="patch_8">
    <path d="M 315.196984 207.585959 
L 315.196984 24.556313 
" style="fill: none; stroke: #cccccc; stroke-width: 1.25; stroke-linejoin: miter; stroke-linecap: square"/>
   </g>
   <g id="patch_9">
    <path d="M 547.486257 207.585959 
L 547.486257 24.556313 
" style="fill: none; stroke: #cccccc; stroke-width: 1.25; stroke-linejoin: miter; stroke-linecap: square"/>
   </g>
   <g id="patch_10">
    <path d="M 315.196984 207.585959 
L 547.486257 207.585959 
" style="fill: none; stroke: #cccccc; stroke-width: 1.25; stroke-linejoin: miter; stroke-linecap: square"/>
   </g>
   <g id="patch_11">
    <path d="M 315.196984 24.556312 
L 547.486257 24.556312 
" style="fill: none; stroke: #cccccc; stroke-width: 1.25; stroke-linejoin: miter; stroke-linecap: square"/>
   </g>
   <g id="text_11">
    <!-- $K_s$ = 287.6 -->
    <g style="fill: #4c72b0" transform="translate(326.811448 152.677065) scale(0.13 -0.13)">
     <defs>
      <path id="ArialMT-37" d="M 303 3981 
L 303 4522 
L 3269 4522 
L 3269 4084 
Q 2831 3619 2401 2847 
Q 1972 2075 1738 1259 
Q 1569 684 1522 0 
L 944 0 
Q 953 541 1156 1306 
Q 1359 2072 1739 2783 
Q 2119 3494 2547 3981 
L 303 3981 
z
" transform="scale(0.015625)"/>
     </defs>
     <use xlink:href="#DejaVuSans-Oblique-4b" transform="translate(0 0.09375)"/>
     <use xlink:href="#DejaVuSans-Oblique-73" transform="translate(65.576172 -16.3125) scale(0.7)"/>
     <use xlink:href="#ArialMT-20" transform="translate(104.780273 0.09375)"/>
     <use xlink:href="#ArialMT-3d" transform="translate(132.563477 0.09375)"/>
     <use xlink:href="#ArialMT-20" transform="translate(190.961914 0.09375)"/>
     <use xlink:href="#ArialMT-32" transform="translate(218.745117 0.09375)"/>
     <use xlink:href="#ArialMT-38" transform="translate(274.360352 0.09375)"/>
     <use xlink:href="#ArialMT-37" transform="translate(329.975586 0.09375)"/>
     <use xlink:href="#ArialMT-2e" transform="translate(385.59082 0.09375)"/>
     <use xlink:href="#ArialMT-36" transform="translate(413.374023 0.09375)"/>
    </g>
   </g>
   <g id="text_12">
    <!-- $K_s$ = 112.0 -->
    <g style="fill: #dd8452" transform="translate(326.811448 170.98003) scale(0.13 -0.13)">
     <use xlink:href="#DejaVuSans-Oblique-4b" transform="translate(0 0.09375)"/>
     <use xlink:href="#DejaVuSans-Oblique-73" transform="translate(65.576172 -16.3125) scale(0.7)"/>
     <use xlink:href="#ArialMT-20" transform="translate(104.780273 0.09375)"/>
     <use xlink:href="#ArialMT-3d" transform="translate(132.563477 0.09375)"/>
     <use xlink:href="#ArialMT-20" transform="translate(190.961914 0.09375)"/>
     <use xlink:href="#ArialMT-31" transform="translate(218.745117 0.09375)"/>
     <use xlink:href="#ArialMT-31" transform="translate(274.360352 0.09375)"/>
     <use xlink:href="#ArialMT-32" transform="translate(329.975586 0.09375)"/>
     <use xlink:href="#ArialMT-2e" transform="translate(385.59082 0.09375)"/>
     <use xlink:href="#ArialMT-30" transform="translate(413.374023 0.09375)"/>
    </g>
   </g>
   <g id="text_13">
    <!-- $K_s$ = 19.2 -->
    <g style="fill: #55a868" transform="translate(326.811448 189.282995) scale(0.13 -0.13)">
     <use xlink:href="#DejaVuSans-Oblique-4b" transform="translate(0 0.09375)"/>
     <use xlink:href="#DejaVuSans-Oblique-73" transform="translate(65.576172 -16.3125) scale(0.7)"/>
     <use xlink:href="#ArialMT-20" transform="translate(104.780273 0.09375)"/>
     <use xlink:href="#ArialMT-3d" transform="translate(132.563477 0.09375)"/>
     <use xlink:href="#ArialMT-20" transform="translate(190.961914 0.09375)"/>
     <use xlink:href="#ArialMT-31" transform="translate(218.745117 0.09375)"/>
     <use xlink:href="#ArialMT-39" transform="translate(274.360352 0.09375)"/>
     <use xlink:href="#ArialMT-2e" transform="translate(329.975586 0.09375)"/>
     <use xlink:href="#ArialMT-32" transform="translate(357.758789 0.09375)"/>
    </g>
   </g>
   <g id="text_14">
    <!-- Sandy Loam -->
    <g style="fill: #262626" transform="translate(387.549496 18.556312) scale(0.156 -0.156)">
     <defs>
      <path id="ArialMT-53" d="M 288 1472 
L 859 1522 
Q 900 1178 1048 958 
Q 1197 738 1509 602 
Q 1822 466 2213 466 
Q 2559 466 2825 569 
Q 3091 672 3220 851 
Q 3350 1031 3350 1244 
Q 3350 1459 3225 1620 
Q 3100 1781 2813 1891 
Q 2628 1963 1997 2114 
Q 1366 2266 1113 2400 
Q 784 2572 623 2826 
Q 463 3081 463 3397 
Q 463 3744 659 4045 
Q 856 4347 1234 4503 
Q 1613 4659 2075 4659 
Q 2584 4659 2973 4495 
Q 3363 4331 3572 4012 
Q 3781 3694 3797 3291 
L 3216 3247 
Q 3169 3681 2898 3903 
Q 2628 4125 2100 4125 
Q 1550 4125 1298 3923 
Q 1047 3722 1047 3438 
Q 1047 3191 1225 3031 
Q 1400 2872 2139 2705 
Q 2878 2538 3153 2413 
Q 3553 2228 3743 1945 
Q 3934 1663 3934 1294 
Q 3934 928 3725 604 
Q 3516 281 3123 101 
Q 2731 -78 2241 -78 
Q 1619 -78 1198 103 
Q 778 284 539 648 
Q 300 1013 288 1472 
z
" transform="scale(0.015625)"/>
      <path id="ArialMT-64" d="M 2575 0 
L 2575 419 
Q 2259 -75 1647 -75 
Q 1250 -75 917 144 
Q 584 363 401 755 
Q 219 1147 219 1656 
Q 219 2153 384 2558 
Q 550 2963 881 3178 
Q 1213 3394 1622 3394 
Q 1922 3394 2156 3267 
Q 2391 3141 2538 2938 
L 2538 4581 
L 3097 4581 
L 3097 0 
L 2575 0 
z
M 797 1656 
Q 797 1019 1065 703 
Q 1334 388 1700 388 
Q 2069 388 2326 689 
Q 2584 991 2584 1609 
Q 2584 2291 2321 2609 
Q 2059 2928 1675 2928 
Q 1300 2928 1048 2622 
Q 797 2316 797 1656 
z
" transform="scale(0.015625)"/>
      <path id="ArialMT-79" d="M 397 -1278 
L 334 -750 
Q 519 -800 656 -800 
Q 844 -800 956 -737 
Q 1069 -675 1141 -563 
Q 1194 -478 1313 -144 
Q 1328 -97 1363 -6 
L 103 3319 
L 709 3319 
L 1400 1397 
Q 1534 1031 1641 628 
Q 1738 1016 1872 1384 
L 2581 3319 
L 3144 3319 
L 1881 -56 
Q 1678 -603 1566 -809 
Q 1416 -1088 1222 -1217 
Q 1028 -1347 759 -1347 
Q 597 -1347 397 -1278 
z
" transform="scale(0.015625)"/>
     </defs>
     <use xlink:href="#ArialMT-53"/>
     <use xlink:href="#ArialMT-61" transform="translate(66.699219 0)"/>
     <use xlink:href="#ArialMT-6e" transform="translate(122.314453 0)"/>
     <use xlink:href="#ArialMT-64" transform="translate(177.929688 0)"/>
     <use xlink:href="#ArialMT-79" transform="translate(233.544922 0)"/>
     <use xlink:href="#ArialMT-20" transform="translate(283.544922 0)"/>
     <use xlink:href="#ArialMT-4c" transform="translate(311.328125 0)"/>
     <use xlink:href="#ArialMT-6f" transform="translate(366.943359 0)"/>
     <use xlink:href="#ArialMT-61" transform="translate(422.558594 0)"/>
     <use xlink:href="#ArialMT-6d" transform="translate(478.173828 0)"/>
    </g>
   </g>
  </g>
  <g id="axes_3">
   <g id="patch_12">
    <path d="M 63.959734 428.246606 
L 296.249007 428.246606 
L 296.249007 245.21696 
L 63.959734 245.21696 
z
" style="fill: #ffffff"/>
   </g>
   <g id="matplotlib.axis_5">
    <g id="xtick_9">
     <g id="line2d_25">
      <path d="M 100.914846 428.246606 
L 100.914846 245.21696 
" clip-path="url(#p19bf8f9b9b)" style="fill: none; stroke: #cccccc; stroke-linecap: round"/>
     </g>
     <g id="text_15">
      <!-- $\mathdefault{10^{0}}$ -->
      <g style="fill: #262626" transform="translate(89.689346 452.493481) scale(0.143 -0.143)">
       <use xlink:href="#ArialMT-31" transform="translate(0 0.99375)"/>
       <use xlink:href="#ArialMT-30" transform="translate(55.615234 0.99375)"/>
       <use xlink:href="#ArialMT-30" transform="translate(112.972813 70.6875) scale(0.7)"/>
      </g>
     </g>
    </g>
    <g id="xtick_10">
     <g id="line2d_26">
      <path d="M 153.707863 428.246606 
L 153.707863 245.21696 
" clip-path="url(#p19bf8f9b9b)" style="fill: none; stroke: #cccccc; stroke-linecap: round"/>
     </g>
     <g id="text_16">
      <!-- $\mathdefault{10^{2}}$ -->
      <g style="fill: #262626" transform="translate(142.482363 452.493481) scale(0.143 -0.143)">
       <use xlink:href="#ArialMT-31" transform="translate(0 0.99375)"/>
       <use xlink:href="#ArialMT-30" transform="translate(55.615234 0.99375)"/>
       <use xlink:href="#ArialMT-32" transform="translate(112.972813 70.6875) scale(0.7)"/>
      </g>
     </g>
    </g>
    <g id="xtick_11">
     <g id="line2d_27">
      <path d="M 206.500879 428.246606 
L 206.500879 245.21696 
" clip-path="url(#p19bf8f9b9b)" style="fill: none; stroke: #cccccc; stroke-linecap: round"/>
     </g>
     <g id="text_17">
      <!-- $\mathdefault{10^{4}}$ -->
      <g style="fill: #262626" transform="translate(195.275379 452.350481) scale(0.143 -0.143)">
       <use xlink:href="#ArialMT-31" transform="translate(0 0.201563)"/>
       <use xlink:href="#ArialMT-30" transform="translate(55.615234 0.201563)"/>
       <use xlink:href="#ArialMT-34" transform="translate(112.972813 69.895313) scale(0.7)"/>
      </g>
     </g>
    </g>
    <g id="xtick_12">
     <g id="line2d_28">
      <path d="M 259.293896 428.246606 
L 259.293896 245.21696 
" clip-path="url(#p19bf8f9b9b)" style="fill: none; stroke: #cccccc; stroke-linecap: round"/>
     </g>
     <g id="text_18">
      <!-- $\mathdefault{10^{6}}$ -->
      <g style="fill: #262626" transform="translate(248.068396 452.493481) scale(0.143 -0.143)">
       <use xlink:href="#ArialMT-31" transform="translate(0 0.99375)"/>
       <use xlink:href="#ArialMT-30" transform="translate(55.615234 0.99375)"/>
       <use xlink:href="#ArialMT-36" transform="translate(112.972813 70.6875) scale(0.7)"/>
      </g>
     </g>
    </g>
    <g id="text_19">
     <!-- Soil Suction (kPa) -->
     <g style="fill: #262626" transform="translate(118.113871 470.691919) scale(0.156 -0.156)">
      <defs>
       <path id="ArialMT-69" d="M 425 3934 
L 425 4581 
L 988 4581 
L 988 3934 
L 425 3934 
z
M 425 0 
L 425 3319 
L 988 3319 
L 988 0 
L 425 0 
z
" transform="scale(0.015625)"/>
       <path id="ArialMT-6c" d="M 409 0 
L 409 4581 
L 972 4581 
L 972 0 
L 409 0 
z
" transform="scale(0.015625)"/>
       <path id="ArialMT-75" d="M 2597 0 
L 2597 488 
Q 2209 -75 1544 -75 
Q 1250 -75 995 37 
Q 741 150 617 320 
Q 494 491 444 738 
Q 409 903 409 1263 
L 409 3319 
L 972 3319 
L 972 1478 
Q 972 1038 1006 884 
Q 1059 663 1231 536 
Q 1403 409 1656 409 
Q 1909 409 2131 539 
Q 2353 669 2445 892 
Q 2538 1116 2538 1541 
L 2538 3319 
L 3100 3319 
L 3100 0 
L 2597 0 
z
" transform="scale(0.015625)"/>
       <path id="ArialMT-63" d="M 2588 1216 
L 3141 1144 
Q 3050 572 2676 248 
Q 2303 -75 1759 -75 
Q 1078 -75 664 370 
Q 250 816 250 1647 
Q 250 2184 428 2587 
Q 606 2991 970 3192 
Q 1334 3394 1763 3394 
Q 2303 3394 2647 3120 
Q 2991 2847 3088 2344 
L 2541 2259 
Q 2463 2594 2264 2762 
Q 2066 2931 1784 2931 
Q 1359 2931 1093 2626 
Q 828 2322 828 1663 
Q 828 994 1084 691 
Q 1341 388 1753 388 
Q 2084 388 2306 591 
Q 2528 794 2588 1216 
z
" transform="scale(0.015625)"/>
       <path id="ArialMT-6b" d="M 425 0 
L 425 4581 
L 988 4581 
L 988 1969 
L 2319 3319 
L 3047 3319 
L 1778 2088 
L 3175 0 
L 2481 0 
L 1384 1697 
L 988 1316 
L 988 0 
L 425 0 
z
" transform="scale(0.015625)"/>
       <path id="ArialMT-50" d="M 494 0 
L 494 4581 
L 2222 4581 
Q 2678 4581 2919 4538 
Q 3256 4481 3484 4323 
Q 3713 4166 3852 3881 
Q 3991 3597 3991 3256 
Q 3991 2672 3619 2267 
Q 3247 1863 2275 1863 
L 1100 1863 
L 1100 0 
L 494 0 
z
M 1100 2403 
L 2284 2403 
Q 2872 2403 3119 2622 
Q 3366 2841 3366 3238 
Q 3366 3525 3220 3729 
Q 3075 3934 2838 4000 
Q 2684 4041 2272 4041 
L 1100 4041 
L 1100 2403 
z
" transform="scale(0.015625)"/>
      </defs>
      <use xlink:href="#ArialMT-53"/>
      <use xlink:href="#ArialMT-6f" transform="translate(66.699219 0)"/>
      <use xlink:href="#ArialMT-69" transform="translate(122.314453 0)"/>
      <use xlink:href="#ArialMT-6c" transform="translate(144.53125 0)"/>
      <use xlink:href="#ArialMT-20" transform="translate(166.748047 0)"/>
      <use xlink:href="#ArialMT-53" transform="translate(194.53125 0)"/>
      <use xlink:href="#ArialMT-75" transform="translate(261.230469 0)"/>
      <use xlink:href="#ArialMT-63" transform="translate(316.845703 0)"/>
      <use xlink:href="#ArialMT-74" transform="translate(366.845703 0)"/>
      <use xlink:href="#ArialMT-69" transform="translate(394.628906 0)"/>
      <use xlink:href="#ArialMT-6f" transform="translate(416.845703 0)"/>
      <use xlink:href="#ArialMT-6e" transform="translate(472.460938 0)"/>
      <use xlink:href="#ArialMT-20" transform="translate(528.076172 0)"/>
      <use xlink:href="#ArialMT-28" transform="translate(555.859375 0)"/>
      <use xlink:href="#ArialMT-6b" transform="translate(589.160156 0)"/>
      <use xlink:href="#ArialMT-50" transform="translate(639.160156 0)"/>
      <use xlink:href="#ArialMT-61" transform="translate(705.859375 0)"/>
      <use xlink:href="#ArialMT-29" transform="translate(761.474609 0)"/>
     </g>
    </g>
   </g>
   <g id="matplotlib.axis_6">
    <g id="ytick_11">
     <g id="line2d_29">
      <path d="M 63.959734 423.041052 
L 296.249007 423.041052 
" clip-path="url(#p19bf8f9b9b)" style="fill: none; stroke: #cccccc; stroke-linecap: round"/>
     </g>
     <g id="text_20">
      <!-- 0% -->
      <g style="fill: #262626" transform="translate(33.791766 428.158888) scale(0.143 -0.143)">
       <use xlink:href="#ArialMT-30"/>
       <use xlink:href="#ArialMT-25" transform="translate(55.615234 0)"/>
      </g>
     </g>
    </g>
    <g id="ytick_12">
     <g id="line2d_30">
      <path d="M 63.959734 379.908321 
L 296.249007 379.908321 
" clip-path="url(#p19bf8f9b9b)" style="fill: none; stroke: #cccccc; stroke-linecap: round"/>
     </g>
     <g id="text_21">
      <!-- 20% -->
      <g style="fill: #262626" transform="translate(25.839625 385.026157) scale(0.143 -0.143)">
       <use xlink:href="#ArialMT-32"/>
       <use xlink:href="#ArialMT-30" transform="translate(55.615234 0)"/>
       <use xlink:href="#ArialMT-25" transform="translate(111.230469 0)"/>
      </g>
     </g>
    </g>
    <g id="ytick_13">
     <g id="line2d_31">
      <path d="M 63.959734 336.77559 
L 296.249007 336.77559 
" clip-path="url(#p19bf8f9b9b)" style="fill: none; stroke: #cccccc; stroke-linecap: round"/>
     </g>
     <g id="text_22">
      <!-- 40% -->
      <g style="fill: #262626" transform="translate(25.839625 341.893426) scale(0.143 -0.143)">
       <use xlink:href="#ArialMT-34"/>
       <use xlink:href="#ArialMT-30" transform="translate(55.615234 0)"/>
       <use xlink:href="#ArialMT-25" transform="translate(111.230469 0)"/>
      </g>
     </g>
    </g>
    <g id="ytick_14">
     <g id="line2d_32">
      <path d="M 63.959734 293.642859 
L 296.249007 293.642859 
" clip-path="url(#p19bf8f9b9b)" style="fill: none; stroke: #cccccc; stroke-linecap: round"/>
     </g>
     <g id="text_23">
      <!-- 60% -->
      <g style="fill: #262626" transform="translate(25.839625 298.760694) scale(0.143 -0.143)">
       <use xlink:href="#ArialMT-36"/>
       <use xlink:href="#ArialMT-30" transform="translate(55.615234 0)"/>
       <use xlink:href="#ArialMT-25" transform="translate(111.230469 0)"/>
      </g>
     </g>
    </g>
    <g id="ytick_15">
     <g id="line2d_33">
      <path d="M 63.959734 250.510127 
L 296.249007 250.510127 
" clip-path="url(#p19bf8f9b9b)" style="fill: none; stroke: #cccccc; stroke-linecap: round"/>
     </g>
     <g id="text_24">
      <!-- 80% -->
      <g style="fill: #262626" transform="translate(25.839625 255.627963) scale(0.143 -0.143)">
       <use xlink:href="#ArialMT-38"/>
       <use xlink:href="#ArialMT-30" transform="translate(55.615234 0)"/>
       <use xlink:href="#ArialMT-25" transform="translate(111.230469 0)"/>
      </g>
     </g>
    </g>
    <g id="text_25">
     <!-- Water Content (%) -->
     <g style="fill: #262626" transform="translate(18.556312 401.022064) rotate(-90) scale(0.156 -0.156)">
      <use xlink:href="#ArialMT-57"/>
      <use xlink:href="#ArialMT-61" transform="translate(90.634766 0)"/>
      <use xlink:href="#ArialMT-74" transform="translate(146.25 0)"/>
      <use xlink:href="#ArialMT-65" transform="translate(174.033203 0)"/>
      <use xlink:href="#ArialMT-72" transform="translate(229.648438 0)"/>
      <use xlink:href="#ArialMT-20" transform="translate(262.949219 0)"/>
      <use xlink:href="#ArialMT-43" transform="translate(290.732422 0)"/>
      <use xlink:href="#ArialMT-6f" transform="translate(362.949219 0)"/>
      <use xlink:href="#ArialMT-6e" transform="translate(418.564453 0)"/>
      <use xlink:href="#ArialMT-74" transform="translate(474.179688 0)"/>
      <use xlink:href="#ArialMT-65" transform="translate(501.962891 0)"/>
      <use xlink:href="#ArialMT-6e" transform="translate(557.578125 0)"/>
      <use xlink:href="#ArialMT-74" transform="translate(613.193359 0)"/>
      <use xlink:href="#ArialMT-20" transform="translate(640.976562 0)"/>
      <use xlink:href="#ArialMT-28" transform="translate(668.759766 0)"/>
      <use xlink:href="#ArialMT-25" transform="translate(702.060547 0)"/>
      <use xlink:href="#ArialMT-29" transform="translate(790.976562 0)"/>
     </g>
    </g>
   </g>
   <g id="line2d_34">
    <path d="M 74.518338 253.536489 
L 76.651389 253.538287 
L 78.78444 253.540542 
L 80.917491 253.543371 
L 83.050542 253.546919 
L 85.183594 253.551369 
L 87.316645 253.556949 
L 89.449696 253.563947 
L 91.582747 253.572722 
L 93.715798 253.583725 
L 95.848849 253.59752 
L 97.981901 253.614812 
L 100.114952 253.636487 
L 102.248003 253.663647 
L 104.381054 253.697673 
L 106.514105 253.740289 
L 108.647156 253.79364 
L 110.780208 253.860398 
L 112.913259 253.943882 
L 115.04631 254.048202 
L 117.179361 254.178433 
L 119.312412 254.340819 
L 121.445464 254.542999 
L 123.578515 254.794268 
L 125.711566 255.105839 
L 127.844617 255.491116 
L 129.977668 255.96592 
L 132.110719 256.548645 
L 134.243771 257.260263 
L 136.376822 258.12411 
L 138.509873 259.16535 
L 140.642924 260.410046 
L 142.775975 261.883766 
L 144.909026 263.609766 
L 147.042078 265.606835 
L 149.175129 267.887088 
L 151.30818 270.45402 
L 153.441231 273.301228 
L 155.574282 276.412099 
L 157.707333 279.76061 
L 159.840385 283.313131 
L 161.973436 287.030916 
L 164.106487 290.872859 
L 166.239538 294.798078 
L 168.372589 298.768034 
L 170.505641 302.748012 
L 172.638692 306.707972 
L 174.771743 310.62284 
L 176.904794 314.472391 
L 179.037845 318.24086 
L 181.170896 321.916413 
L 183.303948 325.490558 
L 185.436999 328.957575 
L 187.57005 332.313984 
L 189.703101 335.558088 
L 191.836152 338.689578 
L 193.969203 341.709208 
L 196.102255 344.618533 
L 198.235306 347.419699 
L 200.368357 350.115275 
L 202.501408 352.708123 
L 204.634459 355.201299 
L 206.76751 357.597975 
L 208.900562 359.90138 
L 211.033613 362.114753 
L 213.166664 364.241318 
L 215.299715 366.284249 
L 217.432766 368.24666 
L 219.565818 370.131592 
L 221.698869 371.942 
L 223.83192 373.680753 
L 225.964971 375.350625 
L 228.098022 376.954299 
L 230.231073 378.494365 
L 232.364125 379.973318 
L 234.497176 381.393563 
L 236.630227 382.757413 
L 238.763278 384.067097 
L 240.896329 385.324757 
L 243.02938 386.532451 
L 245.162432 387.692159 
L 247.295483 388.805784 
L 249.428534 389.875154 
L 251.561585 390.902025 
L 253.694636 391.888084 
L 255.827688 392.834952 
L 257.960739 393.744185 
L 260.09379 394.617278 
L 262.226841 395.455668 
L 264.359892 396.260733 
L 266.492943 397.033797 
L 268.625995 397.776132 
L 270.759046 398.488959 
L 272.892097 399.173451 
L 275.025148 399.830735 
L 277.158199 400.461891 
L 279.29125 401.067958 
L 281.424302 401.649934 
L 283.557353 402.208776 
L 285.690404 402.745403 
" clip-path="url(#p19bf8f9b9b)" style="fill: none; stroke-dasharray: 11.1,4.8; stroke-dashoffset: 0; stroke: #4c72b0; stroke-width: 3"/>
   </g>
   <g id="line2d_35">
    <path d="M 74.518338 306.798968 
L 76.651389 306.799187 
L 78.78444 306.799483 
L 80.917491 306.799884 
L 83.050542 306.800424 
L 85.183594 306.801154 
L 87.316645 306.80214 
L 89.449696 306.803472 
L 91.582747 306.80527 
L 93.715798 306.807698 
L 95.848849 306.810977 
L 97.981901 306.815405 
L 100.114952 306.821383 
L 102.248003 306.829456 
L 104.381054 306.840356 
L 106.514105 306.85507 
L 108.647156 306.87493 
L 110.780208 306.901733 
L 112.913259 306.937894 
L 115.04631 306.986664 
L 117.179361 307.052409 
L 119.312412 307.14098 
L 121.445464 307.2602 
L 123.578515 307.420488 
L 125.711566 307.635656 
L 127.844617 307.923897 
L 129.977668 308.308958 
L 132.110719 308.821468 
L 134.243771 309.500303 
L 136.376822 310.39372 
L 138.509873 311.55984 
L 140.642924 313.065788 
L 142.775975 314.984624 
L 144.909026 317.389164 
L 147.042078 320.342282 
L 149.175129 323.884377 
L 151.30818 328.02042 
L 153.441231 332.710504 
L 155.574282 337.868039 
L 157.707333 343.367658 
L 159.840385 349.061269 
L 161.973436 354.797549 
L 164.106487 360.439327 
L 166.239538 365.875082 
L 168.372589 371.023599 
L 170.505641 375.833061 
L 172.638692 380.276759 
L 174.771743 384.347488 
L 176.904794 388.052014 
L 179.037845 391.406337 
L 181.170896 394.431994 
L 183.303948 397.153356 
L 185.436999 399.595754 
L 187.57005 401.784258 
L 189.703101 403.742904 
L 191.836152 405.494269 
L 193.969203 407.059248 
L 196.102255 408.456986 
L 198.235306 409.7049 
L 200.368357 410.818745 
L 202.501408 411.812725 
L 204.634459 412.699607 
L 206.76751 413.490843 
L 208.900562 414.196691 
L 211.033613 414.826326 
L 213.166664 415.387952 
L 215.299715 415.8889 
L 217.432766 416.335712 
L 219.565818 416.734233 
L 221.698869 417.089677 
L 223.83192 417.406697 
L 225.964971 417.689444 
L 228.098022 417.941623 
L 230.231073 418.166537 
L 232.364125 418.367133 
L 234.497176 418.546041 
L 236.630227 418.705605 
L 238.763278 418.847916 
L 240.896329 418.97484 
L 243.02938 419.08804 
L 245.162432 419.189 
L 247.295483 419.279044 
L 249.428534 419.359351 
L 251.561585 419.430976 
L 253.694636 419.494855 
L 255.827688 419.551828 
L 257.960739 419.602641 
L 260.09379 419.647959 
L 262.226841 419.688377 
L 264.359892 419.724425 
L 266.492943 419.756575 
L 268.625995 419.785249 
L 270.759046 419.810822 
L 272.892097 419.83363 
L 275.025148 419.853972 
L 277.158199 419.872115 
L 279.29125 419.888296 
L 281.424302 419.902727 
L 283.557353 419.915598 
L 285.690404 419.927077 
" clip-path="url(#p19bf8f9b9b)" style="fill: none; stroke-dasharray: 19.2,4.8,3,4.8; stroke-dashoffset: 0; stroke: #dd8452; stroke-width: 3"/>
   </g>
   <g id="line2d_36">
    <path d="M 74.518338 286.528211 
L 76.651389 286.528853 
L 78.78444 286.529677 
L 80.917491 286.530736 
L 83.050542 286.532097 
L 85.183594 286.533846 
L 87.316645 286.536092 
L 89.449696 286.538978 
L 91.582747 286.542686 
L 93.715798 286.547448 
L 95.848849 286.553567 
L 97.981901 286.561425 
L 100.114952 286.571519 
L 102.248003 286.584482 
L 104.381054 286.601128 
L 106.514105 286.6225 
L 108.647156 286.649933 
L 110.780208 286.685139 
L 112.913259 286.730303 
L 115.04631 286.788217 
L 117.179361 286.862439 
L 119.312412 286.957493 
L 121.445464 287.079115 
L 123.578515 287.234551 
L 125.711566 287.432908 
L 127.844617 287.685559 
L 129.977668 288.0066 
L 132.110719 288.413317 
L 134.243771 288.92663 
L 136.376822 289.571428 
L 138.509873 290.376668 
L 140.642924 291.37509 
L 142.775975 292.602319 
L 144.909026 294.095183 
L 147.042078 295.889096 
L 149.175129 298.014557 
L 151.30818 300.493064 
L 153.441231 303.333085 
L 155.574282 306.526932 
L 157.707333 310.049427 
L 159.840385 313.858902 
L 161.973436 317.900496 
L 164.106487 322.111101 
L 166.239538 326.424909 
L 168.372589 330.778504 
L 170.505641 335.114748 
L 172.638692 339.38516 
L 174.771743 343.55086 
L 176.904794 347.582405 
L 179.037845 351.458911 
L 181.170896 355.166798 
L 183.303948 358.698442 
L 185.436999 362.050883 
L 187.57005 365.224691 
L 189.703101 368.223021 
L 191.836152 371.050843 
L 193.969203 373.714353 
L 196.102255 376.220515 
L 198.235306 378.576722 
L 200.368357 380.79055 
L 202.501408 382.869578 
L 204.634459 384.821263 
L 206.76751 386.652855 
L 208.900562 388.371342 
L 211.033613 389.983414 
L 213.166664 391.495446 
L 215.299715 392.91349 
L 217.432766 394.243273 
L 219.565818 395.490205 
L 221.698869 396.659387 
L 223.83192 397.755623 
L 225.964971 398.78343 
L 228.098022 399.747057 
L 230.231073 400.650493 
L 232.364125 401.497487 
L 234.497176 402.291554 
L 236.630227 403.035996 
L 238.763278 403.733909 
L 240.896329 404.388197 
L 243.02938 405.001585 
L 245.162432 405.576628 
L 247.295483 406.11572 
L 249.428534 406.62111 
L 251.561585 407.094902 
L 253.694636 407.539072 
L 255.827688 407.955472 
L 257.960739 408.345837 
L 260.09379 408.711796 
L 262.226841 409.054873 
L 264.359892 409.3765 
L 266.492943 409.678017 
L 268.625995 409.960682 
L 270.759046 410.225674 
L 272.892097 410.474096 
L 275.025148 410.706987 
L 277.158199 410.925316 
L 279.29125 411.129994 
L 281.424302 411.321874 
L 283.557353 411.501757 
L 285.690404 411.670393 
" clip-path="url(#p19bf8f9b9b)" style="fill: none; stroke: #55a868; stroke-width: 3; stroke-linecap: round"/>
   </g>
   <g id="patch_13">
    <path d="M 63.959734 428.246606 
L 63.959734 245.21696 
" style="fill: none; stroke: #cccccc; stroke-width: 1.25; stroke-linejoin: miter; stroke-linecap: square"/>
   </g>
   <g id="patch_14">
    <path d="M 296.249007 428.246606 
L 296.249007 245.21696 
" style="fill: none; stroke: #cccccc; stroke-width: 1.25; stroke-linejoin: miter; stroke-linecap: square"/>
   </g>
   <g id="patch_15">
    <path d="M 63.959734 428.246606 
L 296.249007 428.246606 
" style="fill: none; stroke: #cccccc; stroke-width: 1.25; stroke-linejoin: miter; stroke-linecap: square"/>
   </g>
   <g id="patch_16">
    <path d="M 63.959734 245.21696 
L 296.249007 245.21696 
" style="fill: none; stroke: #cccccc; stroke-width: 1.25; stroke-linejoin: miter; stroke-linecap: square"/>
   </g>
   <g id="text_26">
    <!-- $K_s$ = 52.0 -->
    <g style="fill: #4c72b0" transform="translate(75.574198 373.337712) scale(0.13 -0.13)">
     <use xlink:href="#DejaVuSans-Oblique-4b" transform="translate(0 0.09375)"/>
     <use xlink:href="#DejaVuSans-Oblique-73" transform="translate(65.576172 -16.3125) scale(0.7)"/>
     <use xlink:href="#ArialMT-20" transform="translate(104.780273 0.09375)"/>
     <use xlink:href="#ArialMT-3d" transform="translate(132.563477 0.09375)"/>
     <use xlink:href="#ArialMT-20" transform="translate(190.961914 0.09375)"/>
     <use xlink:href="#ArialMT-35" transform="translate(218.745117 0.09375)"/>
     <use xlink:href="#ArialMT-32" transform="translate(274.360352 0.09375)"/>
     <use xlink:href="#ArialMT-2e" transform="translate(329.975586 0.09375)"/>
     <use xlink:href="#ArialMT-30" transform="translate(357.758789 0.09375)"/>
    </g>
   </g>
   <g id="text_27">
    <!-- $K_s$ = 82.0 -->
    <g style="fill: #dd8452" transform="translate(75.574198 391.640677) scale(0.13 -0.13)">
     <use xlink:href="#DejaVuSans-Oblique-4b" transform="translate(0 0.09375)"/>
     <use xlink:href="#DejaVuSans-Oblique-73" transform="translate(65.576172 -16.3125) scale(0.7)"/>
     <use xlink:href="#ArialMT-20" transform="translate(104.780273 0.09375)"/>
     <use xlink:href="#ArialMT-3d" transform="translate(132.563477 0.09375)"/>
     <use xlink:href="#ArialMT-20" transform="translate(190.961914 0.09375)"/>
     <use xlink:href="#ArialMT-38" transform="translate(218.745117 0.09375)"/>
     <use xlink:href="#ArialMT-32" transform="translate(274.360352 0.09375)"/>
     <use xlink:href="#ArialMT-2e" transform="translate(329.975586 0.09375)"/>
     <use xlink:href="#ArialMT-30" transform="translate(357.758789 0.09375)"/>
    </g>
   </g>
   <g id="text_28">
    <!-- $K_s$ = 6.9 -->
    <g style="fill: #55a868" transform="translate(75.574198 409.943642) scale(0.13 -0.13)">
     <use xlink:href="#DejaVuSans-Oblique-4b" transform="translate(0 0.09375)"/>
     <use xlink:href="#DejaVuSans-Oblique-73" transform="translate(65.576172 -16.3125) scale(0.7)"/>
     <use xlink:href="#ArialMT-20" transform="translate(104.780273 0.09375)"/>
     <use xlink:href="#ArialMT-3d" transform="translate(132.563477 0.09375)"/>
     <use xlink:href="#ArialMT-20" transform="translate(190.961914 0.09375)"/>
     <use xlink:href="#ArialMT-36" transform="translate(218.745117 0.09375)"/>
     <use xlink:href="#ArialMT-2e" transform="translate(274.360352 0.09375)"/>
     <use xlink:href="#ArialMT-39" transform="translate(302.143555 0.09375)"/>
    </g>
   </g>
   <g id="text_29">
    <!-- Silt Loam -->
    <g style="fill: #262626" transform="translate(147.591777 239.21696) scale(0.156 -0.156)">
     <use xlink:href="#ArialMT-53"/>
     <use xlink:href="#ArialMT-69" transform="translate(66.699219 0)"/>
     <use xlink:href="#ArialMT-6c" transform="translate(88.916016 0)"/>
     <use xlink:href="#ArialMT-74" transform="translate(111.132812 0)"/>
     <use xlink:href="#ArialMT-20" transform="translate(138.916016 0)"/>
     <use xlink:href="#ArialMT-4c" transform="translate(166.699219 0)"/>
     <use xlink:href="#ArialMT-6f" transform="translate(222.314453 0)"/>
     <use xlink:href="#ArialMT-61" transform="translate(277.929688 0)"/>
     <use xlink:href="#ArialMT-6d" transform="translate(333.544922 0)"/>
    </g>
   </g>
  </g>
  <g id="axes_4">
   <g id="patch_17">
    <path d="M 315.196984 428.246606 
L 547.486257 428.246606 
L 547.486257 245.21696 
L 315.196984 245.21696 
z
" style="fill: #ffffff"/>
   </g>
   <g id="matplotlib.axis_7">
    <g id="xtick_13">
     <g id="line2d_37">
      <path d="M 352.152096 428.246606 
L 352.152096 245.21696 
" clip-path="url(#p5c6947e5f3)" style="fill: none; stroke: #cccccc; stroke-linecap: round"/>
     </g>
     <g id="text_30">
      <!-- $\mathdefault{10^{0}}$ -->
      <g style="fill: #262626" transform="translate(340.926596 452.493481) scale(0.143 -0.143)">
       <use xlink:href="#ArialMT-31" transform="translate(0 0.99375)"/>
       <use xlink:href="#ArialMT-30" transform="translate(55.615234 0.99375)"/>
       <use xlink:href="#ArialMT-30" transform="translate(112.972813 70.6875) scale(0.7)"/>
      </g>
     </g>
    </g>
    <g id="xtick_14">
     <g id="line2d_38">
      <path d="M 404.945113 428.246606 
L 404.945113 245.21696 
" clip-path="url(#p5c6947e5f3)" style="fill: none; stroke: #cccccc; stroke-linecap: round"/>
     </g>
     <g id="text_31">
      <!-- $\mathdefault{10^{2}}$ -->
      <g style="fill: #262626" transform="translate(393.719613 452.493481) scale(0.143 -0.143)">
       <use xlink:href="#ArialMT-31" transform="translate(0 0.99375)"/>
       <use xlink:href="#ArialMT-30" transform="translate(55.615234 0.99375)"/>
       <use xlink:href="#ArialMT-32" transform="translate(112.972813 70.6875) scale(0.7)"/>
      </g>
     </g>
    </g>
    <g id="xtick_15">
     <g id="line2d_39">
      <path d="M 457.738129 428.246606 
L 457.738129 245.21696 
" clip-path="url(#p5c6947e5f3)" style="fill: none; stroke: #cccccc; stroke-linecap: round"/>
     </g>
     <g id="text_32">
      <!-- $\mathdefault{10^{4}}$ -->
      <g style="fill: #262626" transform="translate(446.512629 452.350481) scale(0.143 -0.143)">
       <use xlink:href="#ArialMT-31" transform="translate(0 0.201563)"/>
       <use xlink:href="#ArialMT-30" transform="translate(55.615234 0.201563)"/>
       <use xlink:href="#ArialMT-34" transform="translate(112.972813 69.895313) scale(0.7)"/>
      </g>
     </g>
    </g>
    <g id="xtick_16">
     <g id="line2d_40">
      <path d="M 510.531146 428.246606 
L 510.531146 245.21696 
" clip-path="url(#p5c6947e5f3)" style="fill: none; stroke: #cccccc; stroke-linecap: round"/>
     </g>
     <g id="text_33">
      <!-- $\mathdefault{10^{6}}$ -->
      <g style="fill: #262626" transform="translate(499.305646 452.493481) scale(0.143 -0.143)">
       <use xlink:href="#ArialMT-31" transform="translate(0 0.99375)"/>
       <use xlink:href="#ArialMT-30" transform="translate(55.615234 0.99375)"/>
       <use xlink:href="#ArialMT-36" transform="translate(112.972813 70.6875) scale(0.7)"/>
      </g>
     </g>
    </g>
    <g id="text_34">
     <!-- Soil Suction (kPa) -->
     <g style="fill: #262626" transform="translate(369.351121 470.691919) scale(0.156 -0.156)">
      <use xlink:href="#ArialMT-53"/>
      <use xlink:href="#ArialMT-6f" transform="translate(66.699219 0)"/>
      <use xlink:href="#ArialMT-69" transform="translate(122.314453 0)"/>
      <use xlink:href="#ArialMT-6c" transform="translate(144.53125 0)"/>
      <use xlink:href="#ArialMT-20" transform="translate(166.748047 0)"/>
      <use xlink:href="#ArialMT-53" transform="translate(194.53125 0)"/>
      <use xlink:href="#ArialMT-75" transform="translate(261.230469 0)"/>
      <use xlink:href="#ArialMT-63" transform="translate(316.845703 0)"/>
      <use xlink:href="#ArialMT-74" transform="translate(366.845703 0)"/>
      <use xlink:href="#ArialMT-69" transform="translate(394.628906 0)"/>
      <use xlink:href="#ArialMT-6f" transform="translate(416.845703 0)"/>
      <use xlink:href="#ArialMT-6e" transform="translate(472.460938 0)"/>
      <use xlink:href="#ArialMT-20" transform="translate(528.076172 0)"/>
      <use xlink:href="#ArialMT-28" transform="translate(555.859375 0)"/>
      <use xlink:href="#ArialMT-6b" transform="translate(589.160156 0)"/>
      <use xlink:href="#ArialMT-50" transform="translate(639.160156 0)"/>
      <use xlink:href="#ArialMT-61" transform="translate(705.859375 0)"/>
      <use xlink:href="#ArialMT-29" transform="translate(761.474609 0)"/>
     </g>
    </g>
   </g>
   <g id="matplotlib.axis_8">
    <g id="ytick_16">
     <g id="line2d_41">
      <path d="M 315.196984 423.041052 
L 547.486257 423.041052 
" clip-path="url(#p5c6947e5f3)" style="fill: none; stroke: #cccccc; stroke-linecap: round"/>
     </g>
    </g>
    <g id="ytick_17">
     <g id="line2d_42">
      <path d="M 315.196984 379.908321 
L 547.486257 379.908321 
" clip-path="url(#p5c6947e5f3)" style="fill: none; stroke: #cccccc; stroke-linecap: round"/>
     </g>
    </g>
    <g id="ytick_18">
     <g id="line2d_43">
      <path d="M 315.196984 336.77559 
L 547.486257 336.77559 
" clip-path="url(#p5c6947e5f3)" style="fill: none; stroke: #cccccc; stroke-linecap: round"/>
     </g>
    </g>
    <g id="ytick_19">
     <g id="line2d_44">
      <path d="M 315.196984 293.642859 
L 547.486257 293.642859 
" clip-path="url(#p5c6947e5f3)" style="fill: none; stroke: #cccccc; stroke-linecap: round"/>
     </g>
    </g>
    <g id="ytick_20">
     <g id="line2d_45">
      <path d="M 315.196984 250.510127 
L 547.486257 250.510127 
" clip-path="url(#p5c6947e5f3)" style="fill: none; stroke: #cccccc; stroke-linecap: round"/>
     </g>
    </g>
   </g>
   <g id="line2d_46">
    <path d="M 325.755588 312.198745 
L 327.888639 312.200832 
L 330.02169 312.203413 
L 332.154741 312.206605 
L 334.287792 312.210551 
L 336.420844 312.215431 
L 338.553895 312.221463 
L 340.686946 312.228919 
L 342.819997 312.238133 
L 344.953048 312.249519 
L 347.086099 312.263583 
L 349.219151 312.28095 
L 351.352202 312.302388 
L 353.485253 312.328836 
L 355.618304 312.361447 
L 357.751355 312.401626 
L 359.884406 312.451083 
L 362.017458 312.511893 
L 364.150509 312.586557 
L 366.28356 312.678077 
L 368.416611 312.790027 
L 370.549662 312.926628 
L 372.682714 313.092805 
L 374.815765 313.294234 
L 376.948816 313.537341 
L 379.081867 313.829259 
L 381.214918 314.177697 
L 383.347969 314.590722 
L 385.481021 315.076429 
L 387.614072 315.642502 
L 389.747123 316.295683 
L 391.880174 317.041198 
L 394.013225 317.882211 
L 396.146276 318.819387 
L 398.279328 319.850642 
L 400.412379 320.971142 
L 402.54543 322.173561 
L 404.678481 323.448552 
L 406.811532 324.785366 
L 408.944583 326.172526 
L 411.077635 327.598455 
L 413.210686 329.052007 
L 415.343737 330.522863 
L 417.476788 332.001779 
L 419.609839 333.480711 
L 421.742891 334.952832 
L 423.875942 336.412483 
L 426.008993 337.855072 
L 428.142044 339.276956 
L 430.275095 340.675309 
L 432.408146 342.048001 
L 434.541198 343.393472 
L 436.674249 344.71064 
L 438.8073 345.998804 
L 440.940351 347.257571 
L 443.073402 348.486792 
L 445.206453 349.68651 
L 447.339505 350.856918 
L 449.472556 351.998326 
L 451.605607 353.111131 
L 453.738658 354.195793 
L 455.871709 355.252826 
L 458.00476 356.282774 
L 460.137812 357.286207 
L 462.270863 358.263709 
L 464.403914 359.215872 
L 466.536965 360.143293 
L 468.670016 361.046566 
L 470.803068 361.926281 
L 472.936119 362.783025 
L 475.06917 363.617372 
L 477.202221 364.42989 
L 479.335272 365.221135 
L 481.468323 365.991653 
L 483.601375 366.741978 
L 485.734426 367.472632 
L 487.867477 368.184125 
L 490.000528 368.876955 
L 492.133579 369.551608 
L 494.26663 370.208559 
L 496.399682 370.848269 
L 498.532733 371.47119 
L 500.665784 372.07776 
L 502.798835 372.668408 
L 504.931886 373.243551 
L 507.064938 373.803595 
L 509.197989 374.348937 
L 511.33104 374.879962 
L 513.464091 375.397044 
L 515.597142 375.900551 
L 517.730193 376.390838 
L 519.863245 376.868253 
L 521.996296 377.333133 
L 524.129347 377.785806 
L 526.262398 378.226595 
L 528.395449 378.65581 
L 530.5285 379.073755 
L 532.661552 379.480727 
L 534.794603 379.877012 
L 536.927654 380.262893 
" clip-path="url(#p5c6947e5f3)" style="fill: none; stroke-dasharray: 11.1,4.8; stroke-dashoffset: 0; stroke: #4c72b0; stroke-width: 3"/>
   </g>
   <g id="line2d_47">
    <path d="M 325.755588 331.611379 
L 327.888639 331.614286 
L 330.02169 331.617915 
L 332.154741 331.622442 
L 334.287792 331.628092 
L 336.420844 331.63514 
L 338.553895 331.643932 
L 340.686946 331.654897 
L 342.819997 331.66857 
L 344.953048 331.685615 
L 347.086099 331.706855 
L 349.219151 331.733313 
L 351.352202 331.766251 
L 353.485253 331.807232 
L 355.618304 331.858177 
L 357.751355 331.921445 
L 359.884406 331.999919 
L 362.017458 332.097102 
L 364.150509 332.217227 
L 366.28356 332.365366 
L 368.416611 332.54753 
L 370.549662 332.770763 
L 372.682714 333.04318 
L 374.815765 333.373954 
L 376.948816 333.773198 
L 379.081867 334.25171 
L 381.214918 334.820562 
L 383.347969 335.490508 
L 385.481021 336.271218 
L 387.614072 337.170419 
L 389.747123 338.19301 
L 391.880174 339.340323 
L 394.013225 340.609641 
L 396.146276 341.994115 
L 398.279328 343.483096 
L 400.412379 345.062856 
L 402.54543 346.717567 
L 404.678481 348.430374 
L 406.811532 350.184417 
L 408.944583 351.963664 
L 411.077635 353.753522 
L 413.210686 355.541195 
L 415.343737 357.315828 
L 417.476788 359.068496 
L 419.609839 360.79207 
L 421.742891 362.481032 
L 423.875942 364.13125 
L 426.008993 365.739762 
L 428.142044 367.304569 
L 430.275095 368.824448 
L 432.408146 370.298795 
L 434.541198 371.727488 
L 436.674249 373.110783 
L 438.8073 374.449217 
L 440.940351 375.743542 
L 443.073402 376.994663 
L 445.206453 378.203599 
L 447.339505 379.371442 
L 449.472556 380.499333 
L 451.605607 381.588441 
L 453.738658 382.639946 
L 455.871709 383.655028 
L 458.00476 384.634857 
L 460.137812 385.580587 
L 462.270863 386.493348 
L 464.403914 387.374247 
L 466.536965 388.224365 
L 468.670016 389.04475 
L 470.803068 389.836424 
L 472.936119 390.600376 
L 475.06917 391.337565 
L 477.202221 392.048919 
L 479.335272 392.735337 
L 481.468323 393.397687 
L 483.601375 394.03681 
L 485.734426 394.653516 
L 487.867477 395.248589 
L 490.000528 395.822787 
L 492.133579 396.376839 
L 494.26663 396.911452 
L 496.399682 397.427306 
L 498.532733 397.92506 
L 500.665784 398.405348 
L 502.798835 398.868782 
L 504.931886 399.315953 
L 507.064938 399.747432 
L 509.197989 400.163769 
L 511.33104 400.565496 
L 513.464091 400.953125 
L 515.597142 401.327151 
L 517.730193 401.688051 
L 519.863245 402.036285 
L 521.996296 402.372299 
L 524.129347 402.69652 
L 526.262398 403.009364 
L 528.395449 403.311228 
L 530.5285 403.602499 
L 532.661552 403.883547 
L 534.794603 404.154733 
L 536.927654 404.416402 
" clip-path="url(#p5c6947e5f3)" style="fill: none; stroke-dasharray: 19.2,4.8,3,4.8; stroke-dashoffset: 0; stroke: #dd8452; stroke-width: 3"/>
   </g>
   <g id="line2d_48">
    <path d="M 325.755588 329.445007 
L 327.888639 329.445509 
L 330.02169 329.446139 
L 332.154741 329.446928 
L 334.287792 329.447916 
L 336.420844 329.449156 
L 338.553895 329.450709 
L 340.686946 329.452655 
L 342.819997 329.455094 
L 344.953048 329.458151 
L 347.086099 329.461982 
L 349.219151 329.466781 
L 351.352202 329.472795 
L 353.485253 329.480328 
L 355.618304 329.489765 
L 357.751355 329.501583 
L 359.884406 329.51638 
L 362.017458 329.534904 
L 364.150509 329.558083 
L 366.28356 329.587078 
L 368.416611 329.623327 
L 370.549662 329.668617 
L 372.682714 329.725157 
L 374.815765 329.795672 
L 376.948816 329.883505 
L 379.081867 329.992743 
L 381.214918 330.128344 
L 383.347969 330.296274 
L 385.481021 330.503643 
L 387.614072 330.758816 
L 389.747123 331.071473 
L 391.880174 331.452598 
L 394.013225 331.914336 
L 396.146276 332.469686 
L 398.279328 333.131985 
L 400.412379 333.914155 
L 402.54543 334.82774 
L 404.678481 335.881807 
L 406.811532 337.081829 
L 408.944583 338.428754 
L 411.077635 339.918435 
L 413.210686 341.541574 
L 415.343737 343.284217 
L 417.476788 345.128744 
L 419.609839 347.055161 
L 421.742891 349.042492 
L 423.875942 351.070055 
L 426.008993 353.118482 
L 428.142044 355.170424 
L 430.275095 357.210924 
L 432.408146 359.227541 
L 434.541198 361.210264 
L 436.674249 363.151304 
L 438.8073 365.044821 
L 440.940351 366.886634 
L 443.073402 368.673928 
L 445.206453 370.404996 
L 447.339505 372.07901 
L 449.472556 373.695828 
L 451.605607 375.255835 
L 453.738658 376.759809 
L 455.871709 378.208824 
L 458.00476 379.604162 
L 460.137812 380.947253 
L 462.270863 382.239623 
L 464.403914 383.482855 
L 466.536965 384.678565 
L 468.670016 385.828372 
L 470.803068 386.933889 
L 472.936119 387.996706 
L 475.06917 389.018385 
L 477.202221 390.00045 
L 479.335272 390.944385 
L 481.468323 391.851629 
L 483.601375 392.72358 
L 485.734426 393.561586 
L 487.867477 394.36695 
L 490.000528 395.14093 
L 492.133579 395.88474 
L 494.26663 396.599545 
L 496.399682 397.286473 
L 498.532733 397.946604 
L 500.665784 398.58098 
L 502.798835 399.190604 
L 504.931886 399.77644 
L 507.064938 400.339413 
L 509.197989 400.880414 
L 511.33104 401.400301 
L 513.464091 401.899897 
L 515.597142 402.379993 
L 517.730193 402.841349 
L 519.863245 403.284697 
L 521.996296 403.710739 
L 524.129347 404.120151 
L 526.262398 404.513582 
L 528.395449 404.891656 
L 530.5285 405.254971 
L 532.661552 405.604104 
L 534.794603 405.939608 
L 536.927654 406.262016 
" clip-path="url(#p5c6947e5f3)" style="fill: none; stroke: #55a868; stroke-width: 3; stroke-linecap: round"/>
   </g>
   <g id="patch_18">
    <path d="M 315.196984 428.246606 
L 315.196984 245.21696 
" style="fill: none; stroke: #cccccc; stroke-width: 1.25; stroke-linejoin: miter; stroke-linecap: square"/>
   </g>
   <g id="patch_19">
    <path d="M 547.486257 428.246606 
L 547.486257 245.21696 
" style="fill: none; stroke: #cccccc; stroke-width: 1.25; stroke-linejoin: miter; stroke-linecap: square"/>
   </g>
   <g id="patch_20">
    <path d="M 315.196984 428.246606 
L 547.486257 428.246606 
" style="fill: none; stroke: #cccccc; stroke-width: 1.25; stroke-linejoin: miter; stroke-linecap: square"/>
   </g>
   <g id="patch_21">
    <path d="M 315.196984 245.21696 
L 547.486257 245.21696 
" style="fill: none; stroke: #cccccc; stroke-width: 1.25; stroke-linejoin: miter; stroke-linecap: square"/>
   </g>
   <g id="text_35">
    <!-- $K_s$ = 9.9 -->
    <g style="fill: #4c72b0" transform="translate(326.811448 373.337712) scale(0.13 -0.13)">
     <use xlink:href="#DejaVuSans-Oblique-4b" transform="translate(0 0.09375)"/>
     <use xlink:href="#DejaVuSans-Oblique-73" transform="translate(65.576172 -16.3125) scale(0.7)"/>
     <use xlink:href="#ArialMT-20" transform="translate(104.780273 0.09375)"/>
     <use xlink:href="#ArialMT-3d" transform="translate(132.563477 0.09375)"/>
     <use xlink:href="#ArialMT-20" transform="translate(190.961914 0.09375)"/>
     <use xlink:href="#ArialMT-39" transform="translate(218.745117 0.09375)"/>
     <use xlink:href="#ArialMT-2e" transform="translate(274.360352 0.09375)"/>
     <use xlink:href="#ArialMT-39" transform="translate(302.143555 0.09375)"/>
    </g>
   </g>
   <g id="text_36">
    <!-- $K_s$ = 13.0 -->
    <g style="fill: #dd8452" transform="translate(326.811448 391.640677) scale(0.13 -0.13)">
     <use xlink:href="#DejaVuSans-Oblique-4b" transform="translate(0 0.09375)"/>
     <use xlink:href="#DejaVuSans-Oblique-73" transform="translate(65.576172 -16.3125) scale(0.7)"/>
     <use xlink:href="#ArialMT-20" transform="translate(104.780273 0.09375)"/>
     <use xlink:href="#ArialMT-3d" transform="translate(132.563477 0.09375)"/>
     <use xlink:href="#ArialMT-20" transform="translate(190.961914 0.09375)"/>
     <use xlink:href="#ArialMT-31" transform="translate(218.745117 0.09375)"/>
     <use xlink:href="#ArialMT-33" transform="translate(274.360352 0.09375)"/>
     <use xlink:href="#ArialMT-2e" transform="translate(329.975586 0.09375)"/>
     <use xlink:href="#ArialMT-30" transform="translate(357.758789 0.09375)"/>
    </g>
   </g>
   <g id="text_37">
    <!-- $K_s$ = 4.5 -->
    <g style="fill: #55a868" transform="translate(326.811448 409.943642) scale(0.13 -0.13)">
     <use xlink:href="#DejaVuSans-Oblique-4b" transform="translate(0 0.09375)"/>
     <use xlink:href="#DejaVuSans-Oblique-73" transform="translate(65.576172 -16.3125) scale(0.7)"/>
     <use xlink:href="#ArialMT-20" transform="translate(104.780273 0.09375)"/>
     <use xlink:href="#ArialMT-3d" transform="translate(132.563477 0.09375)"/>
     <use xlink:href="#ArialMT-20" transform="translate(190.961914 0.09375)"/>
     <use xlink:href="#ArialMT-34" transform="translate(218.745117 0.09375)"/>
     <use xlink:href="#ArialMT-2e" transform="translate(274.360352 0.09375)"/>
     <use xlink:href="#ArialMT-35" transform="translate(302.143555 0.09375)"/>
    </g>
   </g>
   <g id="text_38">
    <!-- Silty Clay -->
    <g style="fill: #262626" transform="translate(398.835121 239.21696) scale(0.156 -0.156)">
     <use xlink:href="#ArialMT-53"/>
     <use xlink:href="#ArialMT-69" transform="translate(66.699219 0)"/>
     <use xlink:href="#ArialMT-6c" transform="translate(88.916016 0)"/>
     <use xlink:href="#ArialMT-74" transform="translate(111.132812 0)"/>
     <use xlink:href="#ArialMT-79" transform="translate(138.916016 0)"/>
     <use xlink:href="#ArialMT-20" transform="translate(188.916016 0)"/>
     <use xlink:href="#ArialMT-43" transform="translate(216.699219 0)"/>
     <use xlink:href="#ArialMT-6c" transform="translate(288.916016 0)"/>
     <use xlink:href="#ArialMT-61" transform="translate(311.132812 0)"/>
     <use xlink:href="#ArialMT-79" transform="translate(366.748047 0)"/>
    </g>
   </g>
   <g id="legend_1">
    <g id="line2d_49">
     <path d="M 391.42782 262.937897 
L 405.42782 262.937897 
L 419.42782 262.937897 
" style="fill: none; stroke-dasharray: 11.1,4.8; stroke-dashoffset: 0; stroke: #4c72b0; stroke-width: 3"/>
    </g>
    <g id="text_39">
     <!-- Intact -->
     <g style="fill: #262626" transform="translate(430.62782 267.837897) scale(0.14 -0.14)">
      <defs>
       <path id="ArialMT-49" d="M 597 0 
L 597 4581 
L 1203 4581 
L 1203 0 
L 597 0 
z
" transform="scale(0.015625)"/>
      </defs>
      <use xlink:href="#ArialMT-49"/>
      <use xlink:href="#ArialMT-6e" transform="translate(27.783203 0)"/>
      <use xlink:href="#ArialMT-74" transform="translate(83.398438 0)"/>
      <use xlink:href="#ArialMT-61" transform="translate(111.181641 0)"/>
      <use xlink:href="#ArialMT-63" transform="translate(166.796875 0)"/>
      <use xlink:href="#ArialMT-74" transform="translate(216.796875 0)"/>
     </g>
    </g>
    <g id="line2d_50">
     <path d="M 391.42782 282.741335 
L 405.42782 282.741335 
L 419.42782 282.741335 
" style="fill: none; stroke-dasharray: 19.2,4.8,3,4.8; stroke-dashoffset: 0; stroke: #dd8452; stroke-width: 3"/>
    </g>
    <g id="text_40">
     <!-- Repacked -->
     <g style="fill: #262626" transform="translate(430.62782 287.641335) scale(0.14 -0.14)">
      <defs>
       <path id="ArialMT-52" d="M 503 0 
L 503 4581 
L 2534 4581 
Q 3147 4581 3465 4457 
Q 3784 4334 3975 4021 
Q 4166 3709 4166 3331 
Q 4166 2844 3850 2509 
Q 3534 2175 2875 2084 
Q 3116 1969 3241 1856 
Q 3506 1613 3744 1247 
L 4541 0 
L 3778 0 
L 3172 953 
Q 2906 1366 2734 1584 
Q 2563 1803 2427 1890 
Q 2291 1978 2150 2013 
Q 2047 2034 1813 2034 
L 1109 2034 
L 1109 0 
L 503 0 
z
M 1109 2559 
L 2413 2559 
Q 2828 2559 3062 2645 
Q 3297 2731 3419 2920 
Q 3541 3109 3541 3331 
Q 3541 3656 3305 3865 
Q 3069 4075 2559 4075 
L 1109 4075 
L 1109 2559 
z
" transform="scale(0.015625)"/>
       <path id="ArialMT-70" d="M 422 -1272 
L 422 3319 
L 934 3319 
L 934 2888 
Q 1116 3141 1344 3267 
Q 1572 3394 1897 3394 
Q 2322 3394 2647 3175 
Q 2972 2956 3137 2557 
Q 3303 2159 3303 1684 
Q 3303 1175 3120 767 
Q 2938 359 2589 142 
Q 2241 -75 1856 -75 
Q 1575 -75 1351 44 
Q 1128 163 984 344 
L 984 -1272 
L 422 -1272 
z
M 931 1641 
Q 931 1000 1190 694 
Q 1450 388 1819 388 
Q 2194 388 2461 705 
Q 2728 1022 2728 1688 
Q 2728 2322 2467 2637 
Q 2206 2953 1844 2953 
Q 1484 2953 1207 2617 
Q 931 2281 931 1641 
z
" transform="scale(0.015625)"/>
      </defs>
      <use xlink:href="#ArialMT-52"/>
      <use xlink:href="#ArialMT-65" transform="translate(72.216797 0)"/>
      <use xlink:href="#ArialMT-70" transform="translate(127.832031 0)"/>
      <use xlink:href="#ArialMT-61" transform="translate(183.447266 0)"/>
      <use xlink:href="#ArialMT-63" transform="translate(239.0625 0)"/>
      <use xlink:href="#ArialMT-6b" transform="translate(289.0625 0)"/>
      <use xlink:href="#ArialMT-65" transform="translate(339.0625 0)"/>
      <use xlink:href="#ArialMT-64" transform="translate(394.677734 0)"/>
     </g>
    </g>
    <g id="line2d_51">
     <path d="M 391.42782 302.715397 
L 405.42782 302.715397 
L 419.42782 302.715397 
" style="fill: none; stroke: #55a868; stroke-width: 3; stroke-linecap: round"/>
    </g>
    <g id="text_41">
     <!-- HiHydroSoil v2.0 -->
     <g style="fill: #262626" transform="translate(430.62782 307.615397) scale(0.14 -0.14)">
      <defs>
       <path id="ArialMT-48" d="M 513 0 
L 513 4581 
L 1119 4581 
L 1119 2700 
L 3500 2700 
L 3500 4581 
L 4106 4581 
L 4106 0 
L 3500 0 
L 3500 2159 
L 1119 2159 
L 1119 0 
L 513 0 
z
" transform="scale(0.015625)"/>
       <path id="ArialMT-76" d="M 1344 0 
L 81 3319 
L 675 3319 
L 1388 1331 
Q 1503 1009 1600 663 
Q 1675 925 1809 1294 
L 2547 3319 
L 3125 3319 
L 1869 0 
L 1344 0 
z
" transform="scale(0.015625)"/>
      </defs>
      <use xlink:href="#ArialMT-48"/>
      <use xlink:href="#ArialMT-69" transform="translate(72.216797 0)"/>
      <use xlink:href="#ArialMT-48" transform="translate(94.433594 0)"/>
      <use xlink:href="#ArialMT-79" transform="translate(166.650391 0)"/>
      <use xlink:href="#ArialMT-64" transform="translate(216.650391 0)"/>
      <use xlink:href="#ArialMT-72" transform="translate(272.265625 0)"/>
      <use xlink:href="#ArialMT-6f" transform="translate(305.566406 0)"/>
      <use xlink:href="#ArialMT-53" transform="translate(361.181641 0)"/>
      <use xlink:href="#ArialMT-6f" transform="translate(427.880859 0)"/>
      <use xlink:href="#ArialMT-69" transform="translate(483.496094 0)"/>
      <use xlink:href="#ArialMT-6c" transform="translate(505.712891 0)"/>
      <use xlink:href="#ArialMT-20" transform="translate(527.929688 0)"/>
      <use xlink:href="#ArialMT-76" transform="translate(555.712891 0)"/>
      <use xlink:href="#ArialMT-32" transform="translate(605.712891 0)"/>
      <use xlink:href="#ArialMT-2e" transform="translate(661.328125 0)"/>
      <use xlink:href="#ArialMT-30" transform="translate(689.111328 0)"/>
     </g>
    </g>
   </g>
  </g>
 </g>
 <defs>
  <clipPath id="p55047166b4">
   <rect x="63.959734" y="24.556312" width="232.289273" height="183.029647"/>
  </clipPath>
  <clipPath id="pedd0219a5f">
   <rect x="315.196984" y="24.556312" width="232.289273" height="183.029647"/>
  </clipPath>
  <clipPath id="p19bf8f9b9b">
   <rect x="63.959734" y="245.21696" width="232.289273" height="183.029647"/>
  </clipPath>
  <clipPath id="p5c6947e5f3">
   <rect x="315.196984" y="245.21696" width="232.289273" height="183.029647"/>
  </clipPath>
 </defs>
</svg>
