<?xml version="1.0" encoding="utf-8" standalone="no"?>
<!DOCTYPE svg PUBLIC "-//W3C//DTD SVG 1.1//EN"
  "http://www.w3.org/Graphics/SVG/1.1/DTD/svg11.dtd">
<svg xmlns:xlink="http://www.w3.org/1999/xlink" width="554.660429pt" height="481.175231pt" viewBox="0 0 554.660429 481.175231" xmlns="http://www.w3.org/2000/svg" version="1.1">
 <metadata>
  <rdf:RDF xmlns:dc="http://purl.org/dc/elements/1.1/" xmlns:cc="http://creativecommons.org/ns#" xmlns:rdf="http://www.w3.org/1999/02/22-rdf-syntax-ns#">
   <cc:Work>
    <dc:type rdf:resource="http://purl.org/dc/dcmitype/StillImage"/>
    <dc:date>2026-01-27T20:35:17.295692</dc:date>
    <dc:format>image/svg+xml</dc:format>
    <dc:creator>
     <cc:Agent>
      <dc:title>Matplotlib v3.10.1, https://matplotlib.org/</dc:title>
     </cc:Agent>
    </dc:creator>
   </cc:Work>
  </rdf:RDF>
 </metadata>
 <defs>
  <style type="text/css">*{stroke-linejoin: round; stroke-linecap: butt}</style>
 </defs>
 <g id="figure_1">
  <g id="patch_1">
   <path d="M 0 481.175231 
L 554.660429 481.175231 
L 554.660429 0 
L 0 0 
z
" style="fill: #ffffff"/>
  </g>
  <g id="axes_1">
   <g id="patch_2">
    <path d="M 51.243906 207.585959 
L 289.878179 207.585959 
L 289.878179 24.556312 
L 51.243906 24.556312 
z
" style="fill: #ffffff"/>
   </g>
   <g id="matplotlib.axis_1">
    <g id="xtick_1">
     <g id="line2d_1">
      <path d="M 89.20845 207.585959 
L 89.20845 24.556312 
" clip-path="url(#p08911b5684)" style="fill: none; stroke: #cccccc; stroke-linecap: round"/>
     </g>
    </g>
    <g id="xtick_2">
     <g id="line2d_2">
      <path d="M 143.443512 207.585959 
L 143.443512 24.556312 
" clip-path="url(#p08911b5684)" style="fill: none; stroke: #cccccc; stroke-linecap: round"/>
     </g>
    </g>
    <g id="xtick_3">
     <g id="line2d_3">
      <path d="M 197.678574 207.585959 
L 197.678574 24.556312 
" clip-path="url(#p08911b5684)" style="fill: none; stroke: #cccccc; stroke-linecap: round"/>
     </g>
    </g>
    <g id="xtick_4">
     <g id="line2d_4">
      <path d="M 251.913636 207.585959 
L 251.913636 24.556312 
" clip-path="url(#p08911b5684)" style="fill: none; stroke: #cccccc; stroke-linecap: round"/>
     </g>
    </g>
   </g>
   <g id="matplotlib.axis_2">
    <g id="ytick_1">
     <g id="line2d_5">
      <path d="M 51.243906 202.380405 
L 289.878179 202.380405 
" clip-path="url(#p08911b5684)" style="fill: none; stroke: #cccccc; stroke-linecap: round"/>
     </g>
     <g id="text_1">
      <!-- 0 -->
      <g style="fill: #262626" transform="translate(33.791766 207.498241) scale(0.143 -0.143)">
       <defs>
        <path id="ArialMT-30" d="M 266 2259 
Q 266 3072 433 3567 
Q 600 4063 929 4331 
Q 1259 4600 1759 4600 
Q 2128 4600 2406 4451 
Q 2684 4303 2865 4023 
Q 3047 3744 3150 3342 
Q 3253 2941 3253 2259 
Q 3253 1453 3087 958 
Q 2922 463 2592 192 
Q 2263 -78 1759 -78 
Q 1097 -78 719 397 
Q 266 969 266 2259 
z
M 844 2259 
Q 844 1131 1108 757 
Q 1372 384 1759 384 
Q 2147 384 2411 759 
Q 2675 1134 2675 2259 
Q 2675 3391 2411 3762 
Q 2147 4134 1753 4134 
Q 1366 4134 1134 3806 
Q 844 3388 844 2259 
z
" transform="scale(0.015625)"/>
       </defs>
       <use xlink:href="#ArialMT-30"/>
      </g>
     </g>
    </g>
    <g id="ytick_2">
     <g id="line2d_6">
      <path d="M 51.243906 159.247674 
L 289.878179 159.247674 
" clip-path="url(#p08911b5684)" style="fill: none; stroke: #cccccc; stroke-linecap: round"/>
     </g>
     <g id="text_2">
      <!-- 20 -->
      <g style="fill: #262626" transform="translate(25.839625 164.36551) scale(0.143 -0.143)">
       <defs>
        <path id="ArialMT-32" d="M 3222 541 
L 3222 0 
L 194 0 
Q 188 203 259 391 
Q 375 700 629 1000 
Q 884 1300 1366 1694 
Q 2113 2306 2375 2664 
Q 2638 3022 2638 3341 
Q 2638 3675 2398 3904 
Q 2159 4134 1775 4134 
Q 1369 4134 1125 3890 
Q 881 3647 878 3216 
L 300 3275 
Q 359 3922 746 4261 
Q 1134 4600 1788 4600 
Q 2447 4600 2831 4234 
Q 3216 3869 3216 3328 
Q 3216 3053 3103 2787 
Q 2991 2522 2730 2228 
Q 2469 1934 1863 1422 
Q 1356 997 1212 845 
Q 1069 694 975 541 
L 3222 541 
z
" transform="scale(0.015625)"/>
       </defs>
       <use xlink:href="#ArialMT-32"/>
       <use xlink:href="#ArialMT-30" transform="translate(55.615234 0)"/>
      </g>
     </g>
    </g>
    <g id="ytick_3">
     <g id="line2d_7">
      <path d="M 51.243906 116.114943 
L 289.878179 116.114943 
" clip-path="url(#p08911b5684)" style="fill: none; stroke: #cccccc; stroke-linecap: round"/>
     </g>
     <g id="text_3">
      <!-- 40 -->
      <g style="fill: #262626" transform="translate(25.839625 121.232779) scale(0.143 -0.143)">
       <defs>
        <path id="ArialMT-34" d="M 2069 0 
L 2069 1097 
L 81 1097 
L 81 1613 
L 2172 4581 
L 2631 4581 
L 2631 1613 
L 3250 1613 
L 3250 1097 
L 2631 1097 
L 2631 0 
L 2069 0 
z
M 2069 1613 
L 2069 3678 
L 634 1613 
L 2069 1613 
z
" transform="scale(0.015625)"/>
       </defs>
       <use xlink:href="#ArialMT-34"/>
       <use xlink:href="#ArialMT-30" transform="translate(55.615234 0)"/>
      </g>
     </g>
    </g>
    <g id="ytick_4">
     <g id="line2d_8">
      <path d="M 51.243906 72.982211 
L 289.878179 72.982211 
" clip-path="url(#p08911b5684)" style="fill: none; stroke: #cccccc; stroke-linecap: round"/>
     </g>
     <g id="text_4">
      <!-- 60 -->
      <g style="fill: #262626" transform="translate(25.839625 78.100047) scale(0.143 -0.143)">
       <defs>
        <path id="ArialMT-36" d="M 3184 3459 
L 2625 3416 
Q 2550 3747 2413 3897 
Q 2184 4138 1850 4138 
Q 1581 4138 1378 3988 
Q 1113 3794 959 3422 
Q 806 3050 800 2363 
Q 1003 2672 1297 2822 
Q 1591 2972 1913 2972 
Q 2475 2972 2870 2558 
Q 3266 2144 3266 1488 
Q 3266 1056 3080 686 
Q 2894 316 2569 119 
Q 2244 -78 1831 -78 
Q 1128 -78 684 439 
Q 241 956 241 2144 
Q 241 3472 731 4075 
Q 1159 4600 1884 4600 
Q 2425 4600 2770 4297 
Q 3116 3994 3184 3459 
z
M 888 1484 
Q 888 1194 1011 928 
Q 1134 663 1356 523 
Q 1578 384 1822 384 
Q 2178 384 2434 671 
Q 2691 959 2691 1453 
Q 2691 1928 2437 2201 
Q 2184 2475 1800 2475 
Q 1419 2475 1153 2201 
Q 888 1928 888 1484 
z
" transform="scale(0.015625)"/>
       </defs>
       <use xlink:href="#ArialMT-36"/>
       <use xlink:href="#ArialMT-30" transform="translate(55.615234 0)"/>
      </g>
     </g>
    </g>
    <g id="ytick_5">
     <g id="line2d_9">
      <path d="M 51.243906 29.84948 
L 289.878179 29.84948 
" clip-path="url(#p08911b5684)" style="fill: none; stroke: #cccccc; stroke-linecap: round"/>
     </g>
     <g id="text_5">
      <!-- 80 -->
      <g style="fill: #262626" transform="translate(25.839625 34.967316) scale(0.143 -0.143)">
       <defs>
        <path id="ArialMT-38" d="M 1131 2484 
Q 781 2613 612 2850 
Q 444 3088 444 3419 
Q 444 3919 803 4259 
Q 1163 4600 1759 4600 
Q 2359 4600 2725 4251 
Q 3091 3903 3091 3403 
Q 3091 3084 2923 2848 
Q 2756 2613 2416 2484 
Q 2838 2347 3058 2040 
Q 3278 1734 3278 1309 
Q 3278 722 2862 322 
Q 2447 -78 1769 -78 
Q 1091 -78 675 323 
Q 259 725 259 1325 
Q 259 1772 486 2073 
Q 713 2375 1131 2484 
z
M 1019 3438 
Q 1019 3113 1228 2906 
Q 1438 2700 1772 2700 
Q 2097 2700 2305 2904 
Q 2513 3109 2513 3406 
Q 2513 3716 2298 3927 
Q 2084 4138 1766 4138 
Q 1444 4138 1231 3931 
Q 1019 3725 1019 3438 
z
M 838 1322 
Q 838 1081 952 856 
Q 1066 631 1291 507 
Q 1516 384 1775 384 
Q 2178 384 2440 643 
Q 2703 903 2703 1303 
Q 2703 1709 2433 1975 
Q 2163 2241 1756 2241 
Q 1359 2241 1098 1978 
Q 838 1716 838 1322 
z
" transform="scale(0.015625)"/>
       </defs>
       <use xlink:href="#ArialMT-38"/>
       <use xlink:href="#ArialMT-30" transform="translate(55.615234 0)"/>
      </g>
     </g>
    </g>
    <g id="text_6">
     <!-- Water Content (%) -->
     <g style="fill: #262626" transform="translate(18.556313 180.361417) rotate(-90) scale(0.156 -0.156)">
      <defs>
       <path id="ArialMT-57" d="M 1294 0 
L 78 4581 
L 700 4581 
L 1397 1578 
Q 1509 1106 1591 641 
Q 1766 1375 1797 1488 
L 2669 4581 
L 3400 4581 
L 4056 2263 
Q 4303 1400 4413 641 
Q 4500 1075 4641 1638 
L 5359 4581 
L 5969 4581 
L 4713 0 
L 4128 0 
L 3163 3491 
Q 3041 3928 3019 4028 
Q 2947 3713 2884 3491 
L 1913 0 
L 1294 0 
z
" transform="scale(0.015625)"/>
       <path id="ArialMT-61" d="M 2588 409 
Q 2275 144 1986 34 
Q 1697 -75 1366 -75 
Q 819 -75 525 192 
Q 231 459 231 875 
Q 231 1119 342 1320 
Q 453 1522 633 1644 
Q 813 1766 1038 1828 
Q 1203 1872 1538 1913 
Q 2219 1994 2541 2106 
Q 2544 2222 2544 2253 
Q 2544 2597 2384 2738 
Q 2169 2928 1744 2928 
Q 1347 2928 1158 2789 
Q 969 2650 878 2297 
L 328 2372 
Q 403 2725 575 2942 
Q 747 3159 1072 3276 
Q 1397 3394 1825 3394 
Q 2250 3394 2515 3294 
Q 2781 3194 2906 3042 
Q 3031 2891 3081 2659 
Q 3109 2516 3109 2141 
L 3109 1391 
Q 3109 606 3145 398 
Q 3181 191 3288 0 
L 2700 0 
Q 2613 175 2588 409 
z
M 2541 1666 
Q 2234 1541 1622 1453 
Q 1275 1403 1131 1340 
Q 988 1278 909 1158 
Q 831 1038 831 891 
Q 831 666 1001 516 
Q 1172 366 1500 366 
Q 1825 366 2078 508 
Q 2331 650 2450 897 
Q 2541 1088 2541 1459 
L 2541 1666 
z
" transform="scale(0.015625)"/>
       <path id="ArialMT-74" d="M 1650 503 
L 1731 6 
Q 1494 -44 1306 -44 
Q 1000 -44 831 53 
Q 663 150 594 308 
Q 525 466 525 972 
L 525 2881 
L 113 2881 
L 113 3319 
L 525 3319 
L 525 4141 
L 1084 4478 
L 1084 3319 
L 1650 3319 
L 1650 2881 
L 1084 2881 
L 1084 941 
Q 1084 700 1114 631 
Q 1144 563 1211 522 
Q 1278 481 1403 481 
Q 1497 481 1650 503 
z
" transform="scale(0.015625)"/>
       <path id="ArialMT-65" d="M 2694 1069 
L 3275 997 
Q 3138 488 2766 206 
Q 2394 -75 1816 -75 
Q 1088 -75 661 373 
Q 234 822 234 1631 
Q 234 2469 665 2931 
Q 1097 3394 1784 3394 
Q 2450 3394 2872 2941 
Q 3294 2488 3294 1666 
Q 3294 1616 3291 1516 
L 816 1516 
Q 847 969 1125 678 
Q 1403 388 1819 388 
Q 2128 388 2347 550 
Q 2566 713 2694 1069 
z
M 847 1978 
L 2700 1978 
Q 2663 2397 2488 2606 
Q 2219 2931 1791 2931 
Q 1403 2931 1139 2672 
Q 875 2413 847 1978 
z
" transform="scale(0.015625)"/>
       <path id="ArialMT-72" d="M 416 0 
L 416 3319 
L 922 3319 
L 922 2816 
Q 1116 3169 1280 3281 
Q 1444 3394 1641 3394 
Q 1925 3394 2219 3213 
L 2025 2691 
Q 1819 2813 1613 2813 
Q 1428 2813 1281 2702 
Q 1134 2591 1072 2394 
Q 978 2094 978 1738 
L 978 0 
L 416 0 
z
" transform="scale(0.015625)"/>
       <path id="ArialMT-20" transform="scale(0.015625)"/>
       <path id="ArialMT-43" d="M 3763 1606 
L 4369 1453 
Q 4178 706 3683 314 
Q 3188 -78 2472 -78 
Q 1731 -78 1267 223 
Q 803 525 561 1097 
Q 319 1669 319 2325 
Q 319 3041 592 3573 
Q 866 4106 1370 4382 
Q 1875 4659 2481 4659 
Q 3169 4659 3637 4309 
Q 4106 3959 4291 3325 
L 3694 3184 
Q 3534 3684 3231 3912 
Q 2928 4141 2469 4141 
Q 1941 4141 1586 3887 
Q 1231 3634 1087 3207 
Q 944 2781 944 2328 
Q 944 1744 1114 1308 
Q 1284 872 1643 656 
Q 2003 441 2422 441 
Q 2931 441 3284 734 
Q 3638 1028 3763 1606 
z
" transform="scale(0.015625)"/>
       <path id="ArialMT-6f" d="M 213 1659 
Q 213 2581 725 3025 
Q 1153 3394 1769 3394 
Q 2453 3394 2887 2945 
Q 3322 2497 3322 1706 
Q 3322 1066 3130 698 
Q 2938 331 2570 128 
Q 2203 -75 1769 -75 
Q 1072 -75 642 372 
Q 213 819 213 1659 
z
M 791 1659 
Q 791 1022 1069 705 
Q 1347 388 1769 388 
Q 2188 388 2466 706 
Q 2744 1025 2744 1678 
Q 2744 2294 2464 2611 
Q 2184 2928 1769 2928 
Q 1347 2928 1069 2612 
Q 791 2297 791 1659 
z
" transform="scale(0.015625)"/>
       <path id="ArialMT-6e" d="M 422 0 
L 422 3319 
L 928 3319 
L 928 2847 
Q 1294 3394 1984 3394 
Q 2284 3394 2536 3286 
Q 2788 3178 2913 3003 
Q 3038 2828 3088 2588 
Q 3119 2431 3119 2041 
L 3119 0 
L 2556 0 
L 2556 2019 
Q 2556 2363 2490 2533 
Q 2425 2703 2258 2804 
Q 2091 2906 1866 2906 
Q 1506 2906 1245 2678 
Q 984 2450 984 1813 
L 984 0 
L 422 0 
z
" transform="scale(0.015625)"/>
       <path id="ArialMT-28" d="M 1497 -1347 
Q 1031 -759 709 28 
Q 388 816 388 1659 
Q 388 2403 628 3084 
Q 909 3875 1497 4659 
L 1900 4659 
Q 1522 4009 1400 3731 
Q 1209 3300 1100 2831 
Q 966 2247 966 1656 
Q 966 153 1900 -1347 
L 1497 -1347 
z
" transform="scale(0.015625)"/>
       <path id="ArialMT-25" d="M 372 3481 
Q 372 3972 619 4315 
Q 866 4659 1334 4659 
Q 1766 4659 2048 4351 
Q 2331 4044 2331 3447 
Q 2331 2866 2045 2552 
Q 1759 2238 1341 2238 
Q 925 2238 648 2547 
Q 372 2856 372 3481 
z
M 1350 4272 
Q 1141 4272 1002 4090 
Q 863 3909 863 3425 
Q 863 2984 1003 2804 
Q 1144 2625 1350 2625 
Q 1563 2625 1702 2806 
Q 1841 2988 1841 3469 
Q 1841 3913 1700 4092 
Q 1559 4272 1350 4272 
z
M 1353 -169 
L 3859 4659 
L 4316 4659 
L 1819 -169 
L 1353 -169 
z
M 3334 1075 
Q 3334 1569 3581 1911 
Q 3828 2253 4300 2253 
Q 4731 2253 5014 1945 
Q 5297 1638 5297 1041 
Q 5297 459 5011 145 
Q 4725 -169 4303 -169 
Q 3888 -169 3611 142 
Q 3334 453 3334 1075 
z
M 4316 1866 
Q 4103 1866 3964 1684 
Q 3825 1503 3825 1019 
Q 3825 581 3965 400 
Q 4106 219 4313 219 
Q 4528 219 4667 400 
Q 4806 581 4806 1063 
Q 4806 1506 4665 1686 
Q 4525 1866 4316 1866 
z
" transform="scale(0.015625)"/>
       <path id="ArialMT-29" d="M 791 -1347 
L 388 -1347 
Q 1322 153 1322 1656 
Q 1322 2244 1188 2822 
Q 1081 3291 891 3722 
Q 769 4003 388 4659 
L 791 4659 
Q 1378 3875 1659 3084 
Q 1900 2403 1900 1659 
Q 1900 816 1576 28 
Q 1253 -759 791 -1347 
z
" transform="scale(0.015625)"/>
      </defs>
      <use xlink:href="#ArialMT-57"/>
      <use xlink:href="#ArialMT-61" transform="translate(90.634766 0)"/>
      <use xlink:href="#ArialMT-74" transform="translate(146.25 0)"/>
      <use xlink:href="#ArialMT-65" transform="translate(174.033203 0)"/>
      <use xlink:href="#ArialMT-72" transform="translate(229.648438 0)"/>
      <use xlink:href="#ArialMT-20" transform="translate(262.949219 0)"/>
      <use xlink:href="#ArialMT-43" transform="translate(290.732422 0)"/>
      <use xlink:href="#ArialMT-6f" transform="translate(362.949219 0)"/>
      <use xlink:href="#ArialMT-6e" transform="translate(418.564453 0)"/>
      <use xlink:href="#ArialMT-74" transform="translate(474.179688 0)"/>
      <use xlink:href="#ArialMT-65" transform="translate(501.962891 0)"/>
      <use xlink:href="#ArialMT-6e" transform="translate(557.578125 0)"/>
      <use xlink:href="#ArialMT-74" transform="translate(613.193359 0)"/>
      <use xlink:href="#ArialMT-20" transform="translate(640.976562 0)"/>
      <use xlink:href="#ArialMT-28" transform="translate(668.759766 0)"/>
      <use xlink:href="#ArialMT-25" transform="translate(702.060547 0)"/>
      <use xlink:href="#ArialMT-29" transform="translate(790.976562 0)"/>
     </g>
    </g>
   </g>
   <g id="line2d_10">
    <path d="M 62.090919 53.156503 
L 64.282234 53.160351 
L 66.47355 53.165164 
L 68.664866 53.171183 
L 70.856181 53.178709 
L 73.047497 53.188119 
L 75.238812 53.199883 
L 77.430128 53.214589 
L 79.621444 53.23297 
L 81.812759 53.255937 
L 84.004075 53.28463 
L 86.195391 53.320462 
L 88.386706 53.365194 
L 90.578022 53.421007 
L 92.769338 53.490602 
L 94.960653 53.577318 
L 97.151969 53.68526 
L 99.343284 53.819464 
L 101.5346 53.986072 
L 103.725916 54.192533 
L 105.917231 54.447805 
L 108.108547 54.762559 
L 110.299863 55.149354 
L 112.491178 55.622745 
L 114.682494 56.199286 
L 116.87381 56.89735 
L 119.065125 57.736716 
L 121.256441 58.737855 
L 123.447756 59.920869 
L 125.639072 61.304104 
L 127.830388 62.90253 
L 130.021703 64.726057 
L 132.213019 66.778056 
L 134.404335 69.054355 
L 136.59565 71.542957 
L 138.786966 74.224574 
L 140.978282 77.073921 
L 143.169597 80.061546 
L 145.360913 83.155892 
L 147.552228 86.325262 
L 149.743544 89.539471 
L 151.93486 92.771037 
L 154.126175 95.995895 
L 156.317491 99.193697 
L 158.508807 102.347782 
L 160.700122 105.444934 
L 162.891438 108.475003 
L 165.082754 111.430488 
L 167.274069 114.306103 
L 169.465385 117.098379 
L 171.656701 119.805305 
L 173.848016 122.426026 
L 176.039332 124.960583 
L 178.230647 127.409704 
L 180.421963 129.774635 
L 182.613279 132.057004 
L 184.804594 134.258711 
L 186.99591 136.381849 
L 189.187226 138.428635 
L 191.378541 140.401363 
L 193.569857 142.302363 
L 195.761173 144.133975 
L 197.952488 145.898522 
L 200.143804 147.598302 
L 202.335119 149.235567 
L 204.526435 150.812523 
L 206.717751 152.331316 
L 208.909066 153.794037 
L 211.100382 155.202712 
L 213.291698 156.559305 
L 215.483013 157.865715 
L 217.674329 159.123779 
L 219.865645 160.335271 
L 222.05696 161.501903 
L 224.248276 162.625327 
L 226.439591 163.707136 
L 228.630907 164.748868 
L 230.822223 165.752001 
L 233.013538 166.717964 
L 235.204854 167.648131 
L 237.39617 168.543827 
L 239.587485 169.406328 
L 241.778801 170.236862 
L 243.970117 171.036615 
L 246.161432 171.806725 
L 248.352748 172.548291 
L 250.544063 173.262372 
L 252.735379 173.949984 
L 254.926695 174.61211 
L 257.11801 175.249693 
L 259.309326 175.863643 
L 261.500642 176.454836 
L 263.691957 177.024115 
L 265.883273 177.572294 
L 268.074589 178.100153 
L 270.265904 178.608445 
L 272.45722 179.097897 
L 274.648535 179.569206 
L 276.839851 180.023046 
L 279.031167 180.460062 
" clip-path="url(#p08911b5684)" style="fill: none; stroke-dasharray: 11.1,4.8; stroke-dashoffset: 0; stroke: #4c72b0; stroke-width: 3"/>
   </g>
   <g id="line2d_11">
    <path d="M 62.090919 61.77089 
L 64.282234 61.771842 
L 66.47355 61.773077 
L 68.664866 61.774682 
L 70.856181 61.776766 
L 73.047497 61.779471 
L 75.238812 61.782984 
L 77.430128 61.787545 
L 79.621444 61.793466 
L 81.812759 61.801153 
L 84.004075 61.811132 
L 86.195391 61.824085 
L 88.386706 61.840895 
L 90.578022 61.862709 
L 92.769338 61.891008 
L 94.960653 61.927714 
L 97.151969 61.975304 
L 99.343284 62.03698 
L 101.5346 62.116862 
L 103.725916 62.220248 
L 105.917231 62.353921 
L 108.108547 62.526535 
L 110.299863 62.749074 
L 112.491178 63.035375 
L 114.682494 63.402728 
L 116.87381 63.872472 
L 119.065125 64.470563 
L 121.256441 65.227943 
L 123.447756 66.180558 
L 125.639072 67.368754 
L 127.830388 68.835763 
L 130.021703 70.625013 
L 132.213019 72.776141 
L 134.404335 75.319925 
L 136.59565 78.272772 
L 138.786966 81.631897 
L 140.978282 85.372484 
L 143.169597 89.447917 
L 145.360913 93.793351 
L 147.552228 98.331968 
L 149.743544 102.982477 
L 151.93486 107.666244 
L 154.126175 112.31282 
L 156.317491 116.863299 
L 158.508807 121.271603 
L 160.700122 125.504137 
L 162.891438 129.538449 
L 165.082754 133.361386 
L 167.274069 136.967175 
L 169.465385 140.355633 
L 171.656701 143.530644 
L 173.848016 146.498912 
L 176.039332 149.268994 
L 178.230647 151.850569 
L 180.421963 154.253899 
L 182.613279 156.489441 
L 184.804594 158.567581 
L 186.99591 160.498446 
L 189.187226 162.291789 
L 191.378541 163.956914 
L 193.569857 165.502638 
L 195.761173 166.937271 
L 197.952488 168.268617 
L 200.143804 169.503984 
L 202.335119 170.6502 
L 204.526435 171.713632 
L 206.717751 172.700213 
L 208.909066 173.615462 
L 211.100382 174.464514 
L 213.291698 175.252139 
L 215.483013 175.982768 
L 217.674329 176.660518 
L 219.865645 177.289209 
L 222.05696 177.872389 
L 224.248276 178.413347 
L 226.439591 178.91514 
L 228.630907 179.380601 
L 230.822223 179.812359 
L 233.013538 180.212854 
L 235.204854 180.584349 
L 237.39617 180.928943 
L 239.587485 181.248584 
L 241.778801 181.54508 
L 243.970117 181.820104 
L 246.161432 182.075214 
L 248.352748 182.311849 
L 250.544063 182.531349 
L 252.735379 182.734954 
L 254.926695 182.923815 
L 257.11801 183.098999 
L 259.309326 183.261497 
L 261.500642 183.412228 
L 263.691957 183.552044 
L 265.883273 183.681735 
L 268.074589 183.802035 
L 270.265904 183.913623 
L 272.45722 184.01713 
L 274.648535 184.113141 
L 276.839851 184.2022 
L 279.031167 184.28481 
" clip-path="url(#p08911b5684)" style="fill: none; stroke-dasharray: 19.2,4.8,3,4.8; stroke-dashoffset: 0; stroke: #dd8452; stroke-width: 3"/>
   </g>
   <g id="line2d_12">
    <path d="M 62.090919 92.82802 
L 64.282234 92.829342 
L 66.47355 92.831032 
L 68.664866 92.833191 
L 70.856181 92.83595 
L 73.047497 92.839476 
L 75.238812 92.843982 
L 77.430128 92.84974 
L 79.621444 92.857097 
L 81.812759 92.866497 
L 84.004075 92.878504 
L 86.195391 92.893842 
L 88.386706 92.913427 
L 90.578022 92.938433 
L 92.769338 92.970347 
L 94.960653 93.011064 
L 97.151969 93.062983 
L 99.343284 93.129144 
L 101.5346 93.213383 
L 103.725916 93.32053 
L 105.917231 93.456629 
L 108.108547 93.629213 
L 110.299863 93.847597 
L 112.491178 94.123198 
L 114.682494 94.469842 
L 116.87381 94.904027 
L 119.065125 95.445065 
L 121.256441 96.115002 
L 123.447756 96.938211 
L 125.639072 97.940503 
L 127.830388 99.147665 
L 130.021703 100.583389 
L 132.213019 102.266687 
L 134.404335 104.209126 
L 136.59565 106.412334 
L 138.786966 108.866381 
L 140.978282 111.549518 
L 143.169597 114.429455 
L 145.360913 117.46602 
L 147.552228 120.614637 
L 149.743544 123.829945 
L 151.93486 127.068946 
L 154.126175 130.293291 
L 156.317491 133.470591 
L 158.508807 136.574869 
L 160.700122 139.586344 
L 162.891438 142.490822 
L 165.082754 145.278872 
L 167.274069 147.94496 
L 169.465385 150.486633 
L 171.656701 152.903789 
L 173.848016 155.198078 
L 176.039332 157.372406 
L 178.230647 159.430549 
L 180.421963 161.376856 
L 182.613279 163.216022 
L 184.804594 164.952917 
L 186.99591 166.592469 
L 189.187226 168.13957 
L 191.378541 169.599017 
L 193.569857 170.975468 
L 195.761173 172.273416 
L 197.952488 173.497169 
L 200.143804 174.650846 
L 202.335119 175.738368 
L 204.526435 176.76346 
L 206.717751 177.729657 
L 208.909066 178.640306 
L 211.100382 179.498573 
L 213.291698 180.307451 
L 215.483013 181.069768 
L 217.674329 181.788193 
L 219.865645 182.465246 
L 222.05696 183.103302 
L 224.248276 183.704603 
L 226.439591 184.271264 
L 228.630907 184.805278 
L 230.822223 185.308524 
L 233.013538 185.782773 
L 235.204854 186.229696 
L 237.39617 186.650865 
L 239.587485 187.047765 
L 241.778801 187.421794 
L 243.970117 187.774269 
L 246.161432 188.106433 
L 248.352748 188.419455 
L 250.544063 188.714438 
L 252.735379 188.992422 
L 254.926695 189.254387 
L 257.11801 189.501255 
L 259.309326 189.733897 
L 261.500642 189.953132 
L 263.691957 190.159733 
L 265.883273 190.354428 
L 268.074589 190.537903 
L 270.265904 190.710805 
L 272.45722 190.873743 
L 274.648535 191.027291 
L 276.839851 191.17199 
L 279.031167 191.30835 
" clip-path="url(#p08911b5684)" style="fill: none; stroke: #55a868; stroke-width: 3; stroke-linecap: round"/>
   </g>
   <g id="patch_3">
    <path d="M 51.243906 207.585959 
L 51.243906 24.556313 
" style="fill: none; stroke: #cccccc; stroke-width: 1.25; stroke-linejoin: miter; stroke-linecap: square"/>
   </g>
   <g id="patch_4">
    <path d="M 289.878179 207.585959 
L 289.878179 24.556313 
" style="fill: none; stroke: #cccccc; stroke-width: 1.25; stroke-linejoin: miter; stroke-linecap: square"/>
   </g>
   <g id="patch_5">
    <path d="M 51.243906 207.585959 
L 289.878179 207.585959 
" style="fill: none; stroke: #cccccc; stroke-width: 1.25; stroke-linejoin: miter; stroke-linecap: square"/>
   </g>
   <g id="patch_6">
    <path d="M 51.243906 24.556312 
L 289.878179 24.556312 
" style="fill: none; stroke: #cccccc; stroke-width: 1.25; stroke-linejoin: miter; stroke-linecap: square"/>
   </g>
   <g id="text_7">
    <!-- $Ks$ = 136.0 -->
    <g style="fill: #4c72b0" transform="translate(63.17562 152.677065) scale(0.13 -0.13)">
     <defs>
      <path id="DejaVuSans-Oblique-4b" d="M 1081 4666 
L 1716 4666 
L 1331 2700 
L 3781 4666 
L 4622 4666 
L 1850 2438 
L 3878 0 
L 3109 0 
L 1247 2272 
L 806 0 
L 172 0 
L 1081 4666 
z
" transform="scale(0.015625)"/>
      <path id="DejaVuSans-Oblique-73" d="M 3200 3397 
L 3091 2853 
Q 2863 2978 2609 3040 
Q 2356 3103 2088 3103 
Q 1634 3103 1373 2948 
Q 1113 2794 1113 2528 
Q 1113 2219 1719 2053 
Q 1766 2041 1788 2034 
L 1972 1978 
Q 2547 1819 2739 1644 
Q 2931 1469 2931 1166 
Q 2931 609 2489 259 
Q 2047 -91 1331 -91 
Q 1053 -91 747 -37 
Q 441 16 72 128 
L 184 722 
Q 500 559 806 475 
Q 1113 391 1394 391 
Q 1816 391 2080 572 
Q 2344 753 2344 1031 
Q 2344 1331 1650 1516 
L 1591 1531 
L 1394 1581 
Q 956 1697 753 1886 
Q 550 2075 550 2369 
Q 550 2928 970 3256 
Q 1391 3584 2113 3584 
Q 2397 3584 2667 3537 
Q 2938 3491 3200 3397 
z
" transform="scale(0.015625)"/>
      <path id="ArialMT-3d" d="M 3381 2694 
L 356 2694 
L 356 3219 
L 3381 3219 
L 3381 2694 
z
M 3381 1303 
L 356 1303 
L 356 1828 
L 3381 1828 
L 3381 1303 
z
" transform="scale(0.015625)"/>
      <path id="ArialMT-31" d="M 2384 0 
L 1822 0 
L 1822 3584 
Q 1619 3391 1289 3197 
Q 959 3003 697 2906 
L 697 3450 
Q 1169 3672 1522 3987 
Q 1875 4303 2022 4600 
L 2384 4600 
L 2384 0 
z
" transform="scale(0.015625)"/>
      <path id="ArialMT-33" d="M 269 1209 
L 831 1284 
Q 928 806 1161 595 
Q 1394 384 1728 384 
Q 2125 384 2398 659 
Q 2672 934 2672 1341 
Q 2672 1728 2419 1979 
Q 2166 2231 1775 2231 
Q 1616 2231 1378 2169 
L 1441 2663 
Q 1497 2656 1531 2656 
Q 1891 2656 2178 2843 
Q 2466 3031 2466 3422 
Q 2466 3731 2256 3934 
Q 2047 4138 1716 4138 
Q 1388 4138 1169 3931 
Q 950 3725 888 3313 
L 325 3413 
Q 428 3978 793 4289 
Q 1159 4600 1703 4600 
Q 2078 4600 2393 4439 
Q 2709 4278 2876 4000 
Q 3044 3722 3044 3409 
Q 3044 3113 2884 2869 
Q 2725 2625 2413 2481 
Q 2819 2388 3044 2092 
Q 3269 1797 3269 1353 
Q 3269 753 2831 336 
Q 2394 -81 1725 -81 
Q 1122 -81 723 278 
Q 325 638 269 1209 
z
" transform="scale(0.015625)"/>
      <path id="ArialMT-2e" d="M 581 0 
L 581 641 
L 1222 641 
L 1222 0 
L 581 0 
z
" transform="scale(0.015625)"/>
     </defs>
     <use xlink:href="#DejaVuSans-Oblique-4b" transform="translate(0 0.09375)"/>
     <use xlink:href="#DejaVuSans-Oblique-73" transform="translate(65.576172 0.09375)"/>
     <use xlink:href="#ArialMT-20" transform="translate(117.675781 0.09375)"/>
     <use xlink:href="#ArialMT-3d" transform="translate(145.458984 0.09375)"/>
     <use xlink:href="#ArialMT-20" transform="translate(203.857422 0.09375)"/>
     <use xlink:href="#ArialMT-31" transform="translate(231.640625 0.09375)"/>
     <use xlink:href="#ArialMT-33" transform="translate(287.255859 0.09375)"/>
     <use xlink:href="#ArialMT-36" transform="translate(342.871094 0.09375)"/>
     <use xlink:href="#ArialMT-2e" transform="translate(398.486328 0.09375)"/>
     <use xlink:href="#ArialMT-30" transform="translate(426.269531 0.09375)"/>
    </g>
   </g>
   <g id="text_8">
    <!-- $Ks$ = 52.0 -->
    <g style="fill: #dd8452" transform="translate(63.17562 170.98003) scale(0.13 -0.13)">
     <defs>
      <path id="ArialMT-35" d="M 266 1200 
L 856 1250 
Q 922 819 1161 601 
Q 1400 384 1738 384 
Q 2144 384 2425 690 
Q 2706 997 2706 1503 
Q 2706 1984 2436 2262 
Q 2166 2541 1728 2541 
Q 1456 2541 1237 2417 
Q 1019 2294 894 2097 
L 366 2166 
L 809 4519 
L 3088 4519 
L 3088 3981 
L 1259 3981 
L 1013 2750 
Q 1425 3038 1878 3038 
Q 2478 3038 2890 2622 
Q 3303 2206 3303 1553 
Q 3303 931 2941 478 
Q 2500 -78 1738 -78 
Q 1113 -78 717 272 
Q 322 622 266 1200 
z
" transform="scale(0.015625)"/>
     </defs>
     <use xlink:href="#DejaVuSans-Oblique-4b" transform="translate(0 0.09375)"/>
     <use xlink:href="#DejaVuSans-Oblique-73" transform="translate(65.576172 0.09375)"/>
     <use xlink:href="#ArialMT-20" transform="translate(117.675781 0.09375)"/>
     <use xlink:href="#ArialMT-3d" transform="translate(145.458984 0.09375)"/>
     <use xlink:href="#ArialMT-20" transform="translate(203.857422 0.09375)"/>
     <use xlink:href="#ArialMT-35" transform="translate(231.640625 0.09375)"/>
     <use xlink:href="#ArialMT-32" transform="translate(287.255859 0.09375)"/>
     <use xlink:href="#ArialMT-2e" transform="translate(342.871094 0.09375)"/>
     <use xlink:href="#ArialMT-30" transform="translate(370.654297 0.09375)"/>
    </g>
   </g>
   <g id="text_9">
    <!-- $Ks$ = 9.9 -->
    <g style="fill: #55a868" transform="translate(63.17562 189.282995) scale(0.13 -0.13)">
     <defs>
      <path id="ArialMT-39" d="M 350 1059 
L 891 1109 
Q 959 728 1153 556 
Q 1347 384 1650 384 
Q 1909 384 2104 503 
Q 2300 622 2425 820 
Q 2550 1019 2634 1356 
Q 2719 1694 2719 2044 
Q 2719 2081 2716 2156 
Q 2547 1888 2255 1720 
Q 1963 1553 1622 1553 
Q 1053 1553 659 1965 
Q 266 2378 266 3053 
Q 266 3750 677 4175 
Q 1088 4600 1706 4600 
Q 2153 4600 2523 4359 
Q 2894 4119 3086 3673 
Q 3278 3228 3278 2384 
Q 3278 1506 3087 986 
Q 2897 466 2520 194 
Q 2144 -78 1638 -78 
Q 1100 -78 759 220 
Q 419 519 350 1059 
z
M 2653 3081 
Q 2653 3566 2395 3850 
Q 2138 4134 1775 4134 
Q 1400 4134 1122 3828 
Q 844 3522 844 3034 
Q 844 2597 1108 2323 
Q 1372 2050 1759 2050 
Q 2150 2050 2401 2323 
Q 2653 2597 2653 3081 
z
" transform="scale(0.015625)"/>
     </defs>
     <use xlink:href="#DejaVuSans-Oblique-4b" transform="translate(0 0.09375)"/>
     <use xlink:href="#DejaVuSans-Oblique-73" transform="translate(65.576172 0.09375)"/>
     <use xlink:href="#ArialMT-20" transform="translate(117.675781 0.09375)"/>
     <use xlink:href="#ArialMT-3d" transform="translate(145.458984 0.09375)"/>
     <use xlink:href="#ArialMT-20" transform="translate(203.857422 0.09375)"/>
     <use xlink:href="#ArialMT-39" transform="translate(231.640625 0.09375)"/>
     <use xlink:href="#ArialMT-2e" transform="translate(287.255859 0.09375)"/>
     <use xlink:href="#ArialMT-39" transform="translate(315.039062 0.09375)"/>
    </g>
   </g>
   <g id="text_10">
    <!-- Loam -->
    <g style="fill: #262626" transform="translate(151.051293 18.556312) scale(0.156 -0.156)">
     <defs>
      <path id="ArialMT-4c" d="M 469 0 
L 469 4581 
L 1075 4581 
L 1075 541 
L 3331 541 
L 3331 0 
L 469 0 
z
" transform="scale(0.015625)"/>
      <path id="ArialMT-6d" d="M 422 0 
L 422 3319 
L 925 3319 
L 925 2853 
Q 1081 3097 1340 3245 
Q 1600 3394 1931 3394 
Q 2300 3394 2536 3241 
Q 2772 3088 2869 2813 
Q 3263 3394 3894 3394 
Q 4388 3394 4653 3120 
Q 4919 2847 4919 2278 
L 4919 0 
L 4359 0 
L 4359 2091 
Q 4359 2428 4304 2576 
Q 4250 2725 4106 2815 
Q 3963 2906 3769 2906 
Q 3419 2906 3187 2673 
Q 2956 2441 2956 1928 
L 2956 0 
L 2394 0 
L 2394 2156 
Q 2394 2531 2256 2718 
Q 2119 2906 1806 2906 
Q 1569 2906 1367 2781 
Q 1166 2656 1075 2415 
Q 984 2175 984 1722 
L 984 0 
L 422 0 
z
" transform="scale(0.015625)"/>
     </defs>
     <use xlink:href="#ArialMT-4c"/>
     <use xlink:href="#ArialMT-6f" transform="translate(55.615234 0)"/>
     <use xlink:href="#ArialMT-61" transform="translate(111.230469 0)"/>
     <use xlink:href="#ArialMT-6d" transform="translate(166.845703 0)"/>
    </g>
   </g>
  </g>
  <g id="axes_2">
   <g id="patch_7">
    <path d="M 308.826156 207.585959 
L 547.460429 207.585959 
L 547.460429 24.556312 
L 308.826156 24.556312 
z
" style="fill: #ffffff"/>
   </g>
   <g id="matplotlib.axis_3">
    <g id="xtick_5">
     <g id="line2d_13">
      <path d="M 346.7907 207.585959 
L 346.7907 24.556312 
" clip-path="url(#p097d5aa9c9)" style="fill: none; stroke: #cccccc; stroke-linecap: round"/>
     </g>
    </g>
    <g id="xtick_6">
     <g id="line2d_14">
      <path d="M 401.025762 207.585959 
L 401.025762 24.556312 
" clip-path="url(#p097d5aa9c9)" style="fill: none; stroke: #cccccc; stroke-linecap: round"/>
     </g>
    </g>
    <g id="xtick_7">
     <g id="line2d_15">
      <path d="M 455.260824 207.585959 
L 455.260824 24.556312 
" clip-path="url(#p097d5aa9c9)" style="fill: none; stroke: #cccccc; stroke-linecap: round"/>
     </g>
    </g>
    <g id="xtick_8">
     <g id="line2d_16">
      <path d="M 509.495886 207.585959 
L 509.495886 24.556312 
" clip-path="url(#p097d5aa9c9)" style="fill: none; stroke: #cccccc; stroke-linecap: round"/>
     </g>
    </g>
   </g>
   <g id="matplotlib.axis_4">
    <g id="ytick_6">
     <g id="line2d_17">
      <path d="M 308.826156 202.380405 
L 547.460429 202.380405 
" clip-path="url(#p097d5aa9c9)" style="fill: none; stroke: #cccccc; stroke-linecap: round"/>
     </g>
    </g>
    <g id="ytick_7">
     <g id="line2d_18">
      <path d="M 308.826156 159.247674 
L 547.460429 159.247674 
" clip-path="url(#p097d5aa9c9)" style="fill: none; stroke: #cccccc; stroke-linecap: round"/>
     </g>
    </g>
    <g id="ytick_8">
     <g id="line2d_19">
      <path d="M 308.826156 116.114943 
L 547.460429 116.114943 
" clip-path="url(#p097d5aa9c9)" style="fill: none; stroke: #cccccc; stroke-linecap: round"/>
     </g>
    </g>
    <g id="ytick_9">
     <g id="line2d_20">
      <path d="M 308.826156 72.982211 
L 547.460429 72.982211 
" clip-path="url(#p097d5aa9c9)" style="fill: none; stroke: #cccccc; stroke-linecap: round"/>
     </g>
    </g>
    <g id="ytick_10">
     <g id="line2d_21">
      <path d="M 308.826156 29.84948 
L 547.460429 29.84948 
" clip-path="url(#p097d5aa9c9)" style="fill: none; stroke: #cccccc; stroke-linecap: round"/>
     </g>
    </g>
   </g>
   <g id="line2d_22">
    <path d="M 319.673169 90.245215 
L 321.864484 90.247684 
L 324.0558 90.250768 
L 326.247116 90.254619 
L 328.438431 90.259429 
L 330.629747 90.265436 
L 332.821062 90.272937 
L 335.012378 90.282301 
L 337.203694 90.293991 
L 339.395009 90.308581 
L 341.586325 90.326787 
L 343.777641 90.349499 
L 345.968956 90.377821 
L 348.160272 90.413125 
L 350.351588 90.457107 
L 352.542903 90.511864 
L 354.734219 90.579978 
L 356.925534 90.66462 
L 359.11685 90.769666 
L 361.308166 90.899826 
L 363.499481 91.060791 
L 365.690797 91.259374 
L 367.882113 91.503649 
L 370.073428 91.803061 
L 372.264744 92.168478 
L 374.45606 92.612153 
L 376.647375 93.147546 
L 378.838691 93.78897 
L 381.030006 94.551003 
L 383.221322 95.44767 
L 385.412638 96.491405 
L 387.603953 97.691891 
L 389.795269 99.054899 
L 391.986585 100.581345 
L 394.1779 102.266721 
L 396.369216 104.101067 
L 398.560532 106.069509 
L 400.751847 108.153287 
L 402.943163 110.331095 
L 405.134478 112.580522 
L 407.325794 114.879371 
L 409.51711 117.206732 
L 411.708425 119.543728 
L 413.899741 121.873932 
L 416.091057 124.183524 
L 418.282372 126.461226 
L 420.473688 128.69811 
L 422.665004 130.887333 
L 424.856319 133.023837 
L 427.047635 135.104059 
L 429.238951 137.125657 
L 431.430266 139.087272 
L 433.621582 140.988323 
L 435.812897 142.828833 
L 438.004213 144.60929 
L 440.195529 146.330533 
L 442.386844 147.99366 
L 444.57816 149.599958 
L 446.769476 151.150844 
L 448.960791 152.647825 
L 451.152107 154.09246 
L 453.343423 155.486337 
L 455.534738 156.831052 
L 457.726054 158.128192 
L 459.917369 159.37933 
L 462.108685 160.58601 
L 464.300001 161.749745 
L 466.491316 162.872011 
L 468.682632 163.954246 
L 470.873948 164.997848 
L 473.065263 166.004172 
L 475.256579 166.974531 
L 477.447895 167.910196 
L 479.63921 168.812396 
L 481.830526 169.682321 
L 484.021841 170.521118 
L 486.213157 171.329896 
L 488.404473 172.109725 
L 490.595788 172.861639 
L 492.787104 173.586635 
L 494.97842 174.285673 
L 497.169735 174.959684 
L 499.361051 175.609561 
L 501.552367 176.236167 
L 503.743682 176.840336 
L 505.934998 177.42287 
L 508.126313 177.984544 
L 510.317629 178.526104 
L 512.508945 179.048271 
L 514.70026 179.551739 
L 516.891576 180.037176 
L 519.082892 180.50523 
L 521.274207 180.956521 
L 523.465523 181.391652 
L 525.656839 181.811199 
L 527.848154 182.215722 
L 530.03947 182.605758 
L 532.230785 182.981826 
L 534.422101 183.344426 
L 536.613417 183.694041 
" clip-path="url(#p097d5aa9c9)" style="fill: none; stroke-dasharray: 11.1,4.8; stroke-dashoffset: 0; stroke: #4c72b0; stroke-width: 3"/>
   </g>
   <g id="line2d_23">
    <path d="M 319.673169 94.550296 
L 321.864484 94.550803 
L 324.0558 94.55146 
L 326.247116 94.55231 
L 328.438431 94.55341 
L 330.629747 94.554836 
L 332.821062 94.556681 
L 335.012378 94.55907 
L 337.203694 94.562164 
L 339.395009 94.566169 
L 341.586325 94.571355 
L 343.777641 94.578067 
L 345.968956 94.586756 
L 348.160272 94.598002 
L 350.351588 94.612555 
L 352.542903 94.631384 
L 354.734219 94.655739 
L 356.925534 94.687234 
L 359.11685 94.727944 
L 361.308166 94.780536 
L 363.499481 94.848434 
L 365.690797 94.936013 
L 367.882113 95.048853 
L 370.073428 95.194026 
L 372.264744 95.380451 
L 374.45606 95.619279 
L 376.647375 95.924315 
L 378.838691 96.312422 
L 381.030006 96.803839 
L 383.221322 97.422323 
L 385.412638 98.194937 
L 387.603953 99.151312 
L 389.795269 100.322192 
L 391.986585 101.737112 
L 394.1779 103.421247 
L 396.369216 105.39171 
L 398.560532 107.653923 
L 400.751847 110.198879 
L 402.943163 113.00216 
L 405.134478 116.025179 
L 407.325794 119.218546 
L 409.51711 122.526836 
L 411.708425 125.893692 
L 413.899741 129.266277 
L 416.091057 132.598432 
L 418.282372 135.852372 
L 420.473688 138.999082 
L 422.665004 142.017805 
L 424.856319 144.894975 
L 427.047635 147.622953 
L 429.238951 150.198743 
L 431.430266 152.622851 
L 433.621582 154.898315 
L 435.812897 157.029923 
L 438.004213 159.02361 
L 440.195529 160.886 
L 442.386844 162.624073 
L 444.57816 164.244918 
L 446.769476 165.755569 
L 448.960791 167.162889 
L 451.152107 168.473492 
L 453.343423 169.693697 
L 455.534738 170.829503 
L 457.726054 171.88658 
L 459.917369 172.870262 
L 462.108685 173.785559 
L 464.300001 174.63716 
L 466.491316 175.429454 
L 468.682632 176.166538 
L 470.873948 176.852235 
L 473.065263 177.490113 
L 475.256579 178.083493 
L 477.447895 178.63547 
L 479.63921 179.148929 
L 481.830526 179.626551 
L 484.021841 180.070835 
L 486.213157 180.484106 
L 488.404473 180.868527 
L 490.595788 181.22611 
L 492.787104 181.558729 
L 494.97842 181.868125 
L 497.169735 182.15592 
L 499.361051 182.423622 
L 501.552367 182.672632 
L 503.743682 182.904257 
L 505.934998 183.119709 
L 508.126313 183.320118 
L 510.317629 183.506534 
L 512.508945 183.679934 
L 514.70026 183.841227 
L 516.891576 183.991258 
L 519.082892 184.130814 
L 521.274207 184.260625 
L 523.465523 184.381373 
L 525.656839 184.493689 
L 527.848154 184.598164 
L 530.03947 184.695343 
L 532.230785 184.785738 
L 534.422101 184.86982 
L 536.613417 184.948032 
" clip-path="url(#p097d5aa9c9)" style="fill: none; stroke-dasharray: 19.2,4.8,3,4.8; stroke-dashoffset: 0; stroke: #dd8452; stroke-width: 3"/>
   </g>
   <g id="line2d_24">
    <path d="M 319.673169 94.340909 
L 321.864484 94.343271 
L 324.0558 94.34633 
L 326.247116 94.350291 
L 328.438431 94.355422 
L 330.629747 94.362066 
L 332.821062 94.370671 
L 335.012378 94.381811 
L 337.203694 94.396235 
L 339.395009 94.414905 
L 341.586325 94.439066 
L 343.777641 94.470325 
L 345.968956 94.510751 
L 348.160272 94.563007 
L 350.351588 94.630513 
L 352.542903 94.717649 
L 354.734219 94.830007 
L 356.925534 94.974695 
L 359.11685 95.160695 
L 361.308166 95.399281 
L 363.499481 95.704466 
L 365.690797 96.093457 
L 367.882113 96.587056 
L 370.073428 97.209887 
L 372.264744 97.990328 
L 374.45606 98.959925 
L 376.647375 100.152088 
L 378.838691 101.599875 
L 381.030006 103.332835 
L 383.221322 105.373094 
L 385.412638 107.731252 
L 387.603953 110.402941 
L 389.795269 113.36702 
L 391.986585 116.586095 
L 394.1779 120.009503 
L 396.369216 123.578152 
L 398.560532 127.230133 
L 400.751847 130.905943 
L 402.943163 134.552463 
L 405.134478 138.125325 
L 407.325794 141.589774 
L 409.51711 144.920375 
L 411.708425 148.099989 
L 413.899741 151.118423 
L 416.091057 153.971004 
L 418.282372 156.657267 
L 420.473688 159.179828 
L 422.665004 161.543458 
L 424.856319 163.754369 
L 427.047635 165.819659 
L 429.238951 167.746912 
L 431.430266 169.543898 
L 433.621582 171.218374 
L 435.812897 172.777933 
L 438.004213 174.229915 
L 440.195529 175.581349 
L 442.386844 176.838914 
L 444.57816 178.008927 
L 446.769476 179.097337 
L 448.960791 180.10973 
L 451.152107 181.051341 
L 453.343423 181.927063 
L 455.534738 182.741468 
L 457.726054 183.498823 
L 459.917369 184.203102 
L 462.108685 184.858012 
L 464.300001 185.467002 
L 466.491316 186.033285 
L 468.682632 186.559851 
L 470.873948 187.049481 
L 473.065263 187.504764 
L 475.256579 187.928107 
L 477.447895 188.321749 
L 479.63921 188.687772 
L 481.830526 189.028115 
L 484.021841 189.344578 
L 486.213157 189.638837 
L 488.404473 189.912449 
L 490.595788 190.166862 
L 492.787104 190.403424 
L 494.97842 190.623386 
L 497.169735 190.827915 
L 499.361051 191.018092 
L 501.552367 191.194925 
L 503.743682 191.359349 
L 505.934998 191.512237 
L 508.126313 191.654396 
L 510.317629 191.78658 
L 512.508945 191.909489 
L 514.70026 192.023774 
L 516.891576 192.130039 
L 519.082892 192.228848 
L 521.274207 192.320723 
L 523.465523 192.406152 
L 525.656839 192.485586 
L 527.848154 192.559447 
L 530.03947 192.628125 
L 532.230785 192.691983 
L 534.422101 192.751361 
L 536.613417 192.806573 
" clip-path="url(#p097d5aa9c9)" style="fill: none; stroke: #55a868; stroke-width: 3; stroke-linecap: round"/>
   </g>
   <g id="patch_8">
    <path d="M 308.826156 207.585959 
L 308.826156 24.556313 
" style="fill: none; stroke: #cccccc; stroke-width: 1.25; stroke-linejoin: miter; stroke-linecap: square"/>
   </g>
   <g id="patch_9">
    <path d="M 547.460429 207.585959 
L 547.460429 24.556313 
" style="fill: none; stroke: #cccccc; stroke-width: 1.25; stroke-linejoin: miter; stroke-linecap: square"/>
   </g>
   <g id="patch_10">
    <path d="M 308.826156 207.585959 
L 547.460429 207.585959 
" style="fill: none; stroke: #cccccc; stroke-width: 1.25; stroke-linejoin: miter; stroke-linecap: square"/>
   </g>
   <g id="patch_11">
    <path d="M 308.826156 24.556312 
L 547.460429 24.556312 
" style="fill: none; stroke: #cccccc; stroke-width: 1.25; stroke-linejoin: miter; stroke-linecap: square"/>
   </g>
   <g id="text_11">
    <!-- $Ks$ = 287.6 -->
    <g style="fill: #4c72b0" transform="translate(320.75787 152.677065) scale(0.13 -0.13)">
     <defs>
      <path id="ArialMT-37" d="M 303 3981 
L 303 4522 
L 3269 4522 
L 3269 4084 
Q 2831 3619 2401 2847 
Q 1972 2075 1738 1259 
Q 1569 684 1522 0 
L 944 0 
Q 953 541 1156 1306 
Q 1359 2072 1739 2783 
Q 2119 3494 2547 3981 
L 303 3981 
z
" transform="scale(0.015625)"/>
     </defs>
     <use xlink:href="#DejaVuSans-Oblique-4b" transform="translate(0 0.09375)"/>
     <use xlink:href="#DejaVuSans-Oblique-73" transform="translate(65.576172 0.09375)"/>
     <use xlink:href="#ArialMT-20" transform="translate(117.675781 0.09375)"/>
     <use xlink:href="#ArialMT-3d" transform="translate(145.458984 0.09375)"/>
     <use xlink:href="#ArialMT-20" transform="translate(203.857422 0.09375)"/>
     <use xlink:href="#ArialMT-32" transform="translate(231.640625 0.09375)"/>
     <use xlink:href="#ArialMT-38" transform="translate(287.255859 0.09375)"/>
     <use xlink:href="#ArialMT-37" transform="translate(342.871094 0.09375)"/>
     <use xlink:href="#ArialMT-2e" transform="translate(398.486328 0.09375)"/>
     <use xlink:href="#ArialMT-36" transform="translate(426.269531 0.09375)"/>
    </g>
   </g>
   <g id="text_12">
    <!-- $Ks$ = 112.0 -->
    <g style="fill: #dd8452" transform="translate(320.75787 170.98003) scale(0.13 -0.13)">
     <use xlink:href="#DejaVuSans-Oblique-4b" transform="translate(0 0.09375)"/>
     <use xlink:href="#DejaVuSans-Oblique-73" transform="translate(65.576172 0.09375)"/>
     <use xlink:href="#ArialMT-20" transform="translate(117.675781 0.09375)"/>
     <use xlink:href="#ArialMT-3d" transform="translate(145.458984 0.09375)"/>
     <use xlink:href="#ArialMT-20" transform="translate(203.857422 0.09375)"/>
     <use xlink:href="#ArialMT-31" transform="translate(231.640625 0.09375)"/>
     <use xlink:href="#ArialMT-31" transform="translate(287.255859 0.09375)"/>
     <use xlink:href="#ArialMT-32" transform="translate(342.871094 0.09375)"/>
     <use xlink:href="#ArialMT-2e" transform="translate(398.486328 0.09375)"/>
     <use xlink:href="#ArialMT-30" transform="translate(426.269531 0.09375)"/>
    </g>
   </g>
   <g id="text_13">
    <!-- $Ks$ = 19.2 -->
    <g style="fill: #55a868" transform="translate(320.75787 189.282995) scale(0.13 -0.13)">
     <use xlink:href="#DejaVuSans-Oblique-4b" transform="translate(0 0.09375)"/>
     <use xlink:href="#DejaVuSans-Oblique-73" transform="translate(65.576172 0.09375)"/>
     <use xlink:href="#ArialMT-20" transform="translate(117.675781 0.09375)"/>
     <use xlink:href="#ArialMT-3d" transform="translate(145.458984 0.09375)"/>
     <use xlink:href="#ArialMT-20" transform="translate(203.857422 0.09375)"/>
     <use xlink:href="#ArialMT-31" transform="translate(231.640625 0.09375)"/>
     <use xlink:href="#ArialMT-39" transform="translate(287.255859 0.09375)"/>
     <use xlink:href="#ArialMT-2e" transform="translate(342.871094 0.09375)"/>
     <use xlink:href="#ArialMT-32" transform="translate(370.654297 0.09375)"/>
    </g>
   </g>
   <g id="text_14">
    <!-- Sandy Loam -->
    <g style="fill: #262626" transform="translate(384.351168 18.556312) scale(0.156 -0.156)">
     <defs>
      <path id="ArialMT-53" d="M 288 1472 
L 859 1522 
Q 900 1178 1048 958 
Q 1197 738 1509 602 
Q 1822 466 2213 466 
Q 2559 466 2825 569 
Q 3091 672 3220 851 
Q 3350 1031 3350 1244 
Q 3350 1459 3225 1620 
Q 3100 1781 2813 1891 
Q 2628 1963 1997 2114 
Q 1366 2266 1113 2400 
Q 784 2572 623 2826 
Q 463 3081 463 3397 
Q 463 3744 659 4045 
Q 856 4347 1234 4503 
Q 1613 4659 2075 4659 
Q 2584 4659 2973 4495 
Q 3363 4331 3572 4012 
Q 3781 3694 3797 3291 
L 3216 3247 
Q 3169 3681 2898 3903 
Q 2628 4125 2100 4125 
Q 1550 4125 1298 3923 
Q 1047 3722 1047 3438 
Q 1047 3191 1225 3031 
Q 1400 2872 2139 2705 
Q 2878 2538 3153 2413 
Q 3553 2228 3743 1945 
Q 3934 1663 3934 1294 
Q 3934 928 3725 604 
Q 3516 281 3123 101 
Q 2731 -78 2241 -78 
Q 1619 -78 1198 103 
Q 778 284 539 648 
Q 300 1013 288 1472 
z
" transform="scale(0.015625)"/>
      <path id="ArialMT-64" d="M 2575 0 
L 2575 419 
Q 2259 -75 1647 -75 
Q 1250 -75 917 144 
Q 584 363 401 755 
Q 219 1147 219 1656 
Q 219 2153 384 2558 
Q 550 2963 881 3178 
Q 1213 3394 1622 3394 
Q 1922 3394 2156 3267 
Q 2391 3141 2538 2938 
L 2538 4581 
L 3097 4581 
L 3097 0 
L 2575 0 
z
M 797 1656 
Q 797 1019 1065 703 
Q 1334 388 1700 388 
Q 2069 388 2326 689 
Q 2584 991 2584 1609 
Q 2584 2291 2321 2609 
Q 2059 2928 1675 2928 
Q 1300 2928 1048 2622 
Q 797 2316 797 1656 
z
" transform="scale(0.015625)"/>
      <path id="ArialMT-79" d="M 397 -1278 
L 334 -750 
Q 519 -800 656 -800 
Q 844 -800 956 -737 
Q 1069 -675 1141 -563 
Q 1194 -478 1313 -144 
Q 1328 -97 1363 -6 
L 103 3319 
L 709 3319 
L 1400 1397 
Q 1534 1031 1641 628 
Q 1738 1016 1872 1384 
L 2581 3319 
L 3144 3319 
L 1881 -56 
Q 1678 -603 1566 -809 
Q 1416 -1088 1222 -1217 
Q 1028 -1347 759 -1347 
Q 597 -1347 397 -1278 
z
" transform="scale(0.015625)"/>
     </defs>
     <use xlink:href="#ArialMT-53"/>
     <use xlink:href="#ArialMT-61" transform="translate(66.699219 0)"/>
     <use xlink:href="#ArialMT-6e" transform="translate(122.314453 0)"/>
     <use xlink:href="#ArialMT-64" transform="translate(177.929688 0)"/>
     <use xlink:href="#ArialMT-79" transform="translate(233.544922 0)"/>
     <use xlink:href="#ArialMT-20" transform="translate(283.544922 0)"/>
     <use xlink:href="#ArialMT-4c" transform="translate(311.328125 0)"/>
     <use xlink:href="#ArialMT-6f" transform="translate(366.943359 0)"/>
     <use xlink:href="#ArialMT-61" transform="translate(422.558594 0)"/>
     <use xlink:href="#ArialMT-6d" transform="translate(478.173828 0)"/>
    </g>
   </g>
  </g>
  <g id="axes_3">
   <g id="patch_12">
    <path d="M 51.243906 428.246606 
L 289.878179 428.246606 
L 289.878179 245.21696 
L 51.243906 245.21696 
z
" style="fill: #ffffff"/>
   </g>
   <g id="matplotlib.axis_5">
    <g id="xtick_9">
     <g id="line2d_25">
      <path d="M 89.20845 428.246606 
L 89.20845 245.21696 
" clip-path="url(#pa443239ffc)" style="fill: none; stroke: #cccccc; stroke-linecap: round"/>
     </g>
     <g id="text_15">
      <!-- $\mathdefault{10^{0}}$ -->
      <g style="fill: #262626" transform="translate(77.98295 452.493481) scale(0.143 -0.143)">
       <use xlink:href="#ArialMT-31" transform="translate(0 0.99375)"/>
       <use xlink:href="#ArialMT-30" transform="translate(55.615234 0.99375)"/>
       <use xlink:href="#ArialMT-30" transform="translate(112.972813 70.6875) scale(0.7)"/>
      </g>
     </g>
    </g>
    <g id="xtick_10">
     <g id="line2d_26">
      <path d="M 143.443512 428.246606 
L 143.443512 245.21696 
" clip-path="url(#pa443239ffc)" style="fill: none; stroke: #cccccc; stroke-linecap: round"/>
     </g>
     <g id="text_16">
      <!-- $\mathdefault{10^{2}}$ -->
      <g style="fill: #262626" transform="translate(132.218012 452.493481) scale(0.143 -0.143)">
       <use xlink:href="#ArialMT-31" transform="translate(0 0.99375)"/>
       <use xlink:href="#ArialMT-30" transform="translate(55.615234 0.99375)"/>
       <use xlink:href="#ArialMT-32" transform="translate(112.972813 70.6875) scale(0.7)"/>
      </g>
     </g>
    </g>
    <g id="xtick_11">
     <g id="line2d_27">
      <path d="M 197.678574 428.246606 
L 197.678574 245.21696 
" clip-path="url(#pa443239ffc)" style="fill: none; stroke: #cccccc; stroke-linecap: round"/>
     </g>
     <g id="text_17">
      <!-- $\mathdefault{10^{4}}$ -->
      <g style="fill: #262626" transform="translate(186.453074 452.350481) scale(0.143 -0.143)">
       <use xlink:href="#ArialMT-31" transform="translate(0 0.201563)"/>
       <use xlink:href="#ArialMT-30" transform="translate(55.615234 0.201563)"/>
       <use xlink:href="#ArialMT-34" transform="translate(112.972813 69.895313) scale(0.7)"/>
      </g>
     </g>
    </g>
    <g id="xtick_12">
     <g id="line2d_28">
      <path d="M 251.913636 428.246606 
L 251.913636 245.21696 
" clip-path="url(#pa443239ffc)" style="fill: none; stroke: #cccccc; stroke-linecap: round"/>
     </g>
     <g id="text_18">
      <!-- $\mathdefault{10^{6}}$ -->
      <g style="fill: #262626" transform="translate(240.688136 452.493481) scale(0.143 -0.143)">
       <use xlink:href="#ArialMT-31" transform="translate(0 0.99375)"/>
       <use xlink:href="#ArialMT-30" transform="translate(55.615234 0.99375)"/>
       <use xlink:href="#ArialMT-36" transform="translate(112.972813 70.6875) scale(0.7)"/>
      </g>
     </g>
    </g>
    <g id="text_19">
     <!-- Soil Suction (kPa) -->
     <g style="fill: #262626" transform="translate(108.570543 470.691919) scale(0.156 -0.156)">
      <defs>
       <path id="ArialMT-69" d="M 425 3934 
L 425 4581 
L 988 4581 
L 988 3934 
L 425 3934 
z
M 425 0 
L 425 3319 
L 988 3319 
L 988 0 
L 425 0 
z
" transform="scale(0.015625)"/>
       <path id="ArialMT-6c" d="M 409 0 
L 409 4581 
L 972 4581 
L 972 0 
L 409 0 
z
" transform="scale(0.015625)"/>
       <path id="ArialMT-75" d="M 2597 0 
L 2597 488 
Q 2209 -75 1544 -75 
Q 1250 -75 995 37 
Q 741 150 617 320 
Q 494 491 444 738 
Q 409 903 409 1263 
L 409 3319 
L 972 3319 
L 972 1478 
Q 972 1038 1006 884 
Q 1059 663 1231 536 
Q 1403 409 1656 409 
Q 1909 409 2131 539 
Q 2353 669 2445 892 
Q 2538 1116 2538 1541 
L 2538 3319 
L 3100 3319 
L 3100 0 
L 2597 0 
z
" transform="scale(0.015625)"/>
       <path id="ArialMT-63" d="M 2588 1216 
L 3141 1144 
Q 3050 572 2676 248 
Q 2303 -75 1759 -75 
Q 1078 -75 664 370 
Q 250 816 250 1647 
Q 250 2184 428 2587 
Q 606 2991 970 3192 
Q 1334 3394 1763 3394 
Q 2303 3394 2647 3120 
Q 2991 2847 3088 2344 
L 2541 2259 
Q 2463 2594 2264 2762 
Q 2066 2931 1784 2931 
Q 1359 2931 1093 2626 
Q 828 2322 828 1663 
Q 828 994 1084 691 
Q 1341 388 1753 388 
Q 2084 388 2306 591 
Q 2528 794 2588 1216 
z
" transform="scale(0.015625)"/>
       <path id="ArialMT-6b" d="M 425 0 
L 425 4581 
L 988 4581 
L 988 1969 
L 2319 3319 
L 3047 3319 
L 1778 2088 
L 3175 0 
L 2481 0 
L 1384 1697 
L 988 1316 
L 988 0 
L 425 0 
z
" transform="scale(0.015625)"/>
       <path id="ArialMT-50" d="M 494 0 
L 494 4581 
L 2222 4581 
Q 2678 4581 2919 4538 
Q 3256 4481 3484 4323 
Q 3713 4166 3852 3881 
Q 3991 3597 3991 3256 
Q 3991 2672 3619 2267 
Q 3247 1863 2275 1863 
L 1100 1863 
L 1100 0 
L 494 0 
z
M 1100 2403 
L 2284 2403 
Q 2872 2403 3119 2622 
Q 3366 2841 3366 3238 
Q 3366 3525 3220 3729 
Q 3075 3934 2838 4000 
Q 2684 4041 2272 4041 
L 1100 4041 
L 1100 2403 
z
" transform="scale(0.015625)"/>
      </defs>
      <use xlink:href="#ArialMT-53"/>
      <use xlink:href="#ArialMT-6f" transform="translate(66.699219 0)"/>
      <use xlink:href="#ArialMT-69" transform="translate(122.314453 0)"/>
      <use xlink:href="#ArialMT-6c" transform="translate(144.53125 0)"/>
      <use xlink:href="#ArialMT-20" transform="translate(166.748047 0)"/>
      <use xlink:href="#ArialMT-53" transform="translate(194.53125 0)"/>
      <use xlink:href="#ArialMT-75" transform="translate(261.230469 0)"/>
      <use xlink:href="#ArialMT-63" transform="translate(316.845703 0)"/>
      <use xlink:href="#ArialMT-74" transform="translate(366.845703 0)"/>
      <use xlink:href="#ArialMT-69" transform="translate(394.628906 0)"/>
      <use xlink:href="#ArialMT-6f" transform="translate(416.845703 0)"/>
      <use xlink:href="#ArialMT-6e" transform="translate(472.460938 0)"/>
      <use xlink:href="#ArialMT-20" transform="translate(528.076172 0)"/>
      <use xlink:href="#ArialMT-28" transform="translate(555.859375 0)"/>
      <use xlink:href="#ArialMT-6b" transform="translate(589.160156 0)"/>
      <use xlink:href="#ArialMT-50" transform="translate(639.160156 0)"/>
      <use xlink:href="#ArialMT-61" transform="translate(705.859375 0)"/>
      <use xlink:href="#ArialMT-29" transform="translate(761.474609 0)"/>
     </g>
    </g>
   </g>
   <g id="matplotlib.axis_6">
    <g id="ytick_11">
     <g id="line2d_29">
      <path d="M 51.243906 423.041052 
L 289.878179 423.041052 
" clip-path="url(#pa443239ffc)" style="fill: none; stroke: #cccccc; stroke-linecap: round"/>
     </g>
     <g id="text_20">
      <!-- 0 -->
      <g style="fill: #262626" transform="translate(33.791766 428.158888) scale(0.143 -0.143)">
       <use xlink:href="#ArialMT-30"/>
      </g>
     </g>
    </g>
    <g id="ytick_12">
     <g id="line2d_30">
      <path d="M 51.243906 379.908321 
L 289.878179 379.908321 
" clip-path="url(#pa443239ffc)" style="fill: none; stroke: #cccccc; stroke-linecap: round"/>
     </g>
     <g id="text_21">
      <!-- 20 -->
      <g style="fill: #262626" transform="translate(25.839625 385.026157) scale(0.143 -0.143)">
       <use xlink:href="#ArialMT-32"/>
       <use xlink:href="#ArialMT-30" transform="translate(55.615234 0)"/>
      </g>
     </g>
    </g>
    <g id="ytick_13">
     <g id="line2d_31">
      <path d="M 51.243906 336.77559 
L 289.878179 336.77559 
" clip-path="url(#pa443239ffc)" style="fill: none; stroke: #cccccc; stroke-linecap: round"/>
     </g>
     <g id="text_22">
      <!-- 40 -->
      <g style="fill: #262626" transform="translate(25.839625 341.893426) scale(0.143 -0.143)">
       <use xlink:href="#ArialMT-34"/>
       <use xlink:href="#ArialMT-30" transform="translate(55.615234 0)"/>
      </g>
     </g>
    </g>
    <g id="ytick_14">
     <g id="line2d_32">
      <path d="M 51.243906 293.642859 
L 289.878179 293.642859 
" clip-path="url(#pa443239ffc)" style="fill: none; stroke: #cccccc; stroke-linecap: round"/>
     </g>
     <g id="text_23">
      <!-- 60 -->
      <g style="fill: #262626" transform="translate(25.839625 298.760694) scale(0.143 -0.143)">
       <use xlink:href="#ArialMT-36"/>
       <use xlink:href="#ArialMT-30" transform="translate(55.615234 0)"/>
      </g>
     </g>
    </g>
    <g id="ytick_15">
     <g id="line2d_33">
      <path d="M 51.243906 250.510127 
L 289.878179 250.510127 
" clip-path="url(#pa443239ffc)" style="fill: none; stroke: #cccccc; stroke-linecap: round"/>
     </g>
     <g id="text_24">
      <!-- 80 -->
      <g style="fill: #262626" transform="translate(25.839625 255.627963) scale(0.143 -0.143)">
       <use xlink:href="#ArialMT-38"/>
       <use xlink:href="#ArialMT-30" transform="translate(55.615234 0)"/>
      </g>
     </g>
    </g>
    <g id="text_25">
     <!-- Water Content (%) -->
     <g style="fill: #262626" transform="translate(18.556313 401.022064) rotate(-90) scale(0.156 -0.156)">
      <use xlink:href="#ArialMT-57"/>
      <use xlink:href="#ArialMT-61" transform="translate(90.634766 0)"/>
      <use xlink:href="#ArialMT-74" transform="translate(146.25 0)"/>
      <use xlink:href="#ArialMT-65" transform="translate(174.033203 0)"/>
      <use xlink:href="#ArialMT-72" transform="translate(229.648438 0)"/>
      <use xlink:href="#ArialMT-20" transform="translate(262.949219 0)"/>
      <use xlink:href="#ArialMT-43" transform="translate(290.732422 0)"/>
      <use xlink:href="#ArialMT-6f" transform="translate(362.949219 0)"/>
      <use xlink:href="#ArialMT-6e" transform="translate(418.564453 0)"/>
      <use xlink:href="#ArialMT-74" transform="translate(474.179688 0)"/>
      <use xlink:href="#ArialMT-65" transform="translate(501.962891 0)"/>
      <use xlink:href="#ArialMT-6e" transform="translate(557.578125 0)"/>
      <use xlink:href="#ArialMT-74" transform="translate(613.193359 0)"/>
      <use xlink:href="#ArialMT-20" transform="translate(640.976562 0)"/>
      <use xlink:href="#ArialMT-28" transform="translate(668.759766 0)"/>
      <use xlink:href="#ArialMT-25" transform="translate(702.060547 0)"/>
      <use xlink:href="#ArialMT-29" transform="translate(790.976562 0)"/>
     </g>
    </g>
   </g>
   <g id="line2d_34">
    <path d="M 62.090919 253.536489 
L 64.282234 253.538287 
L 66.47355 253.540542 
L 68.664866 253.543371 
L 70.856181 253.546919 
L 73.047497 253.551369 
L 75.238812 253.556949 
L 77.430128 253.563947 
L 79.621444 253.572722 
L 81.812759 253.583725 
L 84.004075 253.59752 
L 86.195391 253.614812 
L 88.386706 253.636487 
L 90.578022 253.663647 
L 92.769338 253.697673 
L 94.960653 253.740289 
L 97.151969 253.79364 
L 99.343284 253.860398 
L 101.5346 253.943882 
L 103.725916 254.048202 
L 105.917231 254.178433 
L 108.108547 254.340819 
L 110.299863 254.542999 
L 112.491178 254.794268 
L 114.682494 255.105839 
L 116.87381 255.491116 
L 119.065125 255.96592 
L 121.256441 256.548645 
L 123.447756 257.260263 
L 125.639072 258.12411 
L 127.830388 259.16535 
L 130.021703 260.410046 
L 132.213019 261.883766 
L 134.404335 263.609766 
L 136.59565 265.606835 
L 138.786966 267.887088 
L 140.978282 270.45402 
L 143.169597 273.301228 
L 145.360913 276.412099 
L 147.552228 279.76061 
L 149.743544 283.313131 
L 151.93486 287.030916 
L 154.126175 290.872859 
L 156.317491 294.798078 
L 158.508807 298.768034 
L 160.700122 302.748012 
L 162.891438 306.707972 
L 165.082754 310.62284 
L 167.274069 314.472391 
L 169.465385 318.24086 
L 171.656701 321.916413 
L 173.848016 325.490558 
L 176.039332 328.957575 
L 178.230647 332.313984 
L 180.421963 335.558088 
L 182.613279 338.689578 
L 184.804594 341.709208 
L 186.99591 344.618533 
L 189.187226 347.419699 
L 191.378541 350.115275 
L 193.569857 352.708123 
L 195.761173 355.201299 
L 197.952488 357.597975 
L 200.143804 359.90138 
L 202.335119 362.114753 
L 204.526435 364.241318 
L 206.717751 366.284249 
L 208.909066 368.24666 
L 211.100382 370.131592 
L 213.291698 371.942 
L 215.483013 373.680753 
L 217.674329 375.350625 
L 219.865645 376.954299 
L 222.05696 378.494365 
L 224.248276 379.973318 
L 226.439591 381.393563 
L 228.630907 382.757413 
L 230.822223 384.067097 
L 233.013538 385.324757 
L 235.204854 386.532451 
L 237.39617 387.692159 
L 239.587485 388.805784 
L 241.778801 389.875154 
L 243.970117 390.902025 
L 246.161432 391.888084 
L 248.352748 392.834952 
L 250.544063 393.744185 
L 252.735379 394.617278 
L 254.926695 395.455668 
L 257.11801 396.260733 
L 259.309326 397.033797 
L 261.500642 397.776132 
L 263.691957 398.488959 
L 265.883273 399.173451 
L 268.074589 399.830735 
L 270.265904 400.461891 
L 272.45722 401.067958 
L 274.648535 401.649934 
L 276.839851 402.208776 
L 279.031167 402.745403 
" clip-path="url(#pa443239ffc)" style="fill: none; stroke-dasharray: 11.1,4.8; stroke-dashoffset: 0; stroke: #4c72b0; stroke-width: 3"/>
   </g>
   <g id="line2d_35">
    <path d="M 62.090919 306.798968 
L 64.282234 306.799187 
L 66.47355 306.799483 
L 68.664866 306.799884 
L 70.856181 306.800424 
L 73.047497 306.801154 
L 75.238812 306.80214 
L 77.430128 306.803472 
L 79.621444 306.80527 
L 81.812759 306.807698 
L 84.004075 306.810977 
L 86.195391 306.815405 
L 88.386706 306.821383 
L 90.578022 306.829456 
L 92.769338 306.840356 
L 94.960653 306.85507 
L 97.151969 306.87493 
L 99.343284 306.901733 
L 101.5346 306.937894 
L 103.725916 306.986664 
L 105.917231 307.052409 
L 108.108547 307.14098 
L 110.299863 307.2602 
L 112.491178 307.420488 
L 114.682494 307.635656 
L 116.87381 307.923897 
L 119.065125 308.308958 
L 121.256441 308.821468 
L 123.447756 309.500303 
L 125.639072 310.39372 
L 127.830388 311.55984 
L 130.021703 313.065788 
L 132.213019 314.984624 
L 134.404335 317.389164 
L 136.59565 320.342282 
L 138.786966 323.884377 
L 140.978282 328.02042 
L 143.169597 332.710504 
L 145.360913 337.868039 
L 147.552228 343.367658 
L 149.743544 349.061269 
L 151.93486 354.797549 
L 154.126175 360.439327 
L 156.317491 365.875082 
L 158.508807 371.023599 
L 160.700122 375.833061 
L 162.891438 380.276759 
L 165.082754 384.347488 
L 167.274069 388.052014 
L 169.465385 391.406337 
L 171.656701 394.431994 
L 173.848016 397.153356 
L 176.039332 399.595754 
L 178.230647 401.784258 
L 180.421963 403.742904 
L 182.613279 405.494269 
L 184.804594 407.059248 
L 186.99591 408.456986 
L 189.187226 409.7049 
L 191.378541 410.818745 
L 193.569857 411.812725 
L 195.761173 412.699607 
L 197.952488 413.490843 
L 200.143804 414.196691 
L 202.335119 414.826326 
L 204.526435 415.387952 
L 206.717751 415.8889 
L 208.909066 416.335712 
L 211.100382 416.734233 
L 213.291698 417.089677 
L 215.483013 417.406697 
L 217.674329 417.689444 
L 219.865645 417.941623 
L 222.05696 418.166537 
L 224.248276 418.367133 
L 226.439591 418.546041 
L 228.630907 418.705605 
L 230.822223 418.847916 
L 233.013538 418.97484 
L 235.204854 419.08804 
L 237.39617 419.189 
L 239.587485 419.279044 
L 241.778801 419.359351 
L 243.970117 419.430976 
L 246.161432 419.494855 
L 248.352748 419.551828 
L 250.544063 419.602641 
L 252.735379 419.647959 
L 254.926695 419.688377 
L 257.11801 419.724425 
L 259.309326 419.756575 
L 261.500642 419.785249 
L 263.691957 419.810822 
L 265.883273 419.83363 
L 268.074589 419.853972 
L 270.265904 419.872115 
L 272.45722 419.888296 
L 274.648535 419.902727 
L 276.839851 419.915598 
L 279.031167 419.927077 
" clip-path="url(#pa443239ffc)" style="fill: none; stroke-dasharray: 19.2,4.8,3,4.8; stroke-dashoffset: 0; stroke: #dd8452; stroke-width: 3"/>
   </g>
   <g id="line2d_36">
    <path d="M 62.090919 286.528211 
L 64.282234 286.528853 
L 66.47355 286.529677 
L 68.664866 286.530736 
L 70.856181 286.532097 
L 73.047497 286.533846 
L 75.238812 286.536092 
L 77.430128 286.538978 
L 79.621444 286.542686 
L 81.812759 286.547448 
L 84.004075 286.553567 
L 86.195391 286.561425 
L 88.386706 286.571519 
L 90.578022 286.584482 
L 92.769338 286.601128 
L 94.960653 286.6225 
L 97.151969 286.649933 
L 99.343284 286.685139 
L 101.5346 286.730303 
L 103.725916 286.788217 
L 105.917231 286.862439 
L 108.108547 286.957493 
L 110.299863 287.079115 
L 112.491178 287.234551 
L 114.682494 287.432908 
L 116.87381 287.685559 
L 119.065125 288.0066 
L 121.256441 288.413317 
L 123.447756 288.92663 
L 125.639072 289.571428 
L 127.830388 290.376668 
L 130.021703 291.37509 
L 132.213019 292.602319 
L 134.404335 294.095183 
L 136.59565 295.889096 
L 138.786966 298.014557 
L 140.978282 300.493064 
L 143.169597 303.333085 
L 145.360913 306.526932 
L 147.552228 310.049427 
L 149.743544 313.858902 
L 151.93486 317.900496 
L 154.126175 322.111101 
L 156.317491 326.424909 
L 158.508807 330.778504 
L 160.700122 335.114748 
L 162.891438 339.38516 
L 165.082754 343.55086 
L 167.274069 347.582405 
L 169.465385 351.458911 
L 171.656701 355.166798 
L 173.848016 358.698442 
L 176.039332 362.050883 
L 178.230647 365.224691 
L 180.421963 368.223021 
L 182.613279 371.050843 
L 184.804594 373.714353 
L 186.99591 376.220515 
L 189.187226 378.576722 
L 191.378541 380.79055 
L 193.569857 382.869578 
L 195.761173 384.821263 
L 197.952488 386.652855 
L 200.143804 388.371342 
L 202.335119 389.983414 
L 204.526435 391.495446 
L 206.717751 392.91349 
L 208.909066 394.243273 
L 211.100382 395.490205 
L 213.291698 396.659387 
L 215.483013 397.755623 
L 217.674329 398.78343 
L 219.865645 399.747057 
L 222.05696 400.650493 
L 224.248276 401.497487 
L 226.439591 402.291554 
L 228.630907 403.035996 
L 230.822223 403.733909 
L 233.013538 404.388197 
L 235.204854 405.001585 
L 237.39617 405.576628 
L 239.587485 406.11572 
L 241.778801 406.62111 
L 243.970117 407.094902 
L 246.161432 407.539072 
L 248.352748 407.955472 
L 250.544063 408.345837 
L 252.735379 408.711796 
L 254.926695 409.054873 
L 257.11801 409.3765 
L 259.309326 409.678017 
L 261.500642 409.960682 
L 263.691957 410.225674 
L 265.883273 410.474096 
L 268.074589 410.706987 
L 270.265904 410.925316 
L 272.45722 411.129994 
L 274.648535 411.321874 
L 276.839851 411.501757 
L 279.031167 411.670393 
" clip-path="url(#pa443239ffc)" style="fill: none; stroke: #55a868; stroke-width: 3; stroke-linecap: round"/>
   </g>
   <g id="patch_13">
    <path d="M 51.243906 428.246606 
L 51.243906 245.21696 
" style="fill: none; stroke: #cccccc; stroke-width: 1.25; stroke-linejoin: miter; stroke-linecap: square"/>
   </g>
   <g id="patch_14">
    <path d="M 289.878179 428.246606 
L 289.878179 245.21696 
" style="fill: none; stroke: #cccccc; stroke-width: 1.25; stroke-linejoin: miter; stroke-linecap: square"/>
   </g>
   <g id="patch_15">
    <path d="M 51.243906 428.246606 
L 289.878179 428.246606 
" style="fill: none; stroke: #cccccc; stroke-width: 1.25; stroke-linejoin: miter; stroke-linecap: square"/>
   </g>
   <g id="patch_16">
    <path d="M 51.243906 245.21696 
L 289.878179 245.21696 
" style="fill: none; stroke: #cccccc; stroke-width: 1.25; stroke-linejoin: miter; stroke-linecap: square"/>
   </g>
   <g id="text_26">
    <!-- $Ks$ = 52.0 -->
    <g style="fill: #4c72b0" transform="translate(63.17562 373.337712) scale(0.13 -0.13)">
     <use xlink:href="#DejaVuSans-Oblique-4b" transform="translate(0 0.09375)"/>
     <use xlink:href="#DejaVuSans-Oblique-73" transform="translate(65.576172 0.09375)"/>
     <use xlink:href="#ArialMT-20" transform="translate(117.675781 0.09375)"/>
     <use xlink:href="#ArialMT-3d" transform="translate(145.458984 0.09375)"/>
     <use xlink:href="#ArialMT-20" transform="translate(203.857422 0.09375)"/>
     <use xlink:href="#ArialMT-35" transform="translate(231.640625 0.09375)"/>
     <use xlink:href="#ArialMT-32" transform="translate(287.255859 0.09375)"/>
     <use xlink:href="#ArialMT-2e" transform="translate(342.871094 0.09375)"/>
     <use xlink:href="#ArialMT-30" transform="translate(370.654297 0.09375)"/>
    </g>
   </g>
   <g id="text_27">
    <!-- $Ks$ = 82.0 -->
    <g style="fill: #dd8452" transform="translate(63.17562 391.640677) scale(0.13 -0.13)">
     <use xlink:href="#DejaVuSans-Oblique-4b" transform="translate(0 0.09375)"/>
     <use xlink:href="#DejaVuSans-Oblique-73" transform="translate(65.576172 0.09375)"/>
     <use xlink:href="#ArialMT-20" transform="translate(117.675781 0.09375)"/>
     <use xlink:href="#ArialMT-3d" transform="translate(145.458984 0.09375)"/>
     <use xlink:href="#ArialMT-20" transform="translate(203.857422 0.09375)"/>
     <use xlink:href="#ArialMT-38" transform="translate(231.640625 0.09375)"/>
     <use xlink:href="#ArialMT-32" transform="translate(287.255859 0.09375)"/>
     <use xlink:href="#ArialMT-2e" transform="translate(342.871094 0.09375)"/>
     <use xlink:href="#ArialMT-30" transform="translate(370.654297 0.09375)"/>
    </g>
   </g>
   <g id="text_28">
    <!-- $Ks$ = 6.9 -->
    <g style="fill: #55a868" transform="translate(63.17562 409.943642) scale(0.13 -0.13)">
     <use xlink:href="#DejaVuSans-Oblique-4b" transform="translate(0 0.09375)"/>
     <use xlink:href="#DejaVuSans-Oblique-73" transform="translate(65.576172 0.09375)"/>
     <use xlink:href="#ArialMT-20" transform="translate(117.675781 0.09375)"/>
     <use xlink:href="#ArialMT-3d" transform="translate(145.458984 0.09375)"/>
     <use xlink:href="#ArialMT-20" transform="translate(203.857422 0.09375)"/>
     <use xlink:href="#ArialMT-36" transform="translate(231.640625 0.09375)"/>
     <use xlink:href="#ArialMT-2e" transform="translate(287.255859 0.09375)"/>
     <use xlink:href="#ArialMT-39" transform="translate(315.039062 0.09375)"/>
    </g>
   </g>
   <g id="text_29">
    <!-- Silt Loam -->
    <g style="fill: #262626" transform="translate(138.048449 239.21696) scale(0.156 -0.156)">
     <use xlink:href="#ArialMT-53"/>
     <use xlink:href="#ArialMT-69" transform="translate(66.699219 0)"/>
     <use xlink:href="#ArialMT-6c" transform="translate(88.916016 0)"/>
     <use xlink:href="#ArialMT-74" transform="translate(111.132812 0)"/>
     <use xlink:href="#ArialMT-20" transform="translate(138.916016 0)"/>
     <use xlink:href="#ArialMT-4c" transform="translate(166.699219 0)"/>
     <use xlink:href="#ArialMT-6f" transform="translate(222.314453 0)"/>
     <use xlink:href="#ArialMT-61" transform="translate(277.929688 0)"/>
     <use xlink:href="#ArialMT-6d" transform="translate(333.544922 0)"/>
    </g>
   </g>
  </g>
  <g id="axes_4">
   <g id="patch_17">
    <path d="M 308.826156 428.246606 
L 547.460429 428.246606 
L 547.460429 245.21696 
L 308.826156 245.21696 
z
" style="fill: #ffffff"/>
   </g>
   <g id="matplotlib.axis_7">
    <g id="xtick_13">
     <g id="line2d_37">
      <path d="M 346.7907 428.246606 
L 346.7907 245.21696 
" clip-path="url(#pd5c73ed6f2)" style="fill: none; stroke: #cccccc; stroke-linecap: round"/>
     </g>
     <g id="text_30">
      <!-- $\mathdefault{10^{0}}$ -->
      <g style="fill: #262626" transform="translate(335.5652 452.493481) scale(0.143 -0.143)">
       <use xlink:href="#ArialMT-31" transform="translate(0 0.99375)"/>
       <use xlink:href="#ArialMT-30" transform="translate(55.615234 0.99375)"/>
       <use xlink:href="#ArialMT-30" transform="translate(112.972813 70.6875) scale(0.7)"/>
      </g>
     </g>
    </g>
    <g id="xtick_14">
     <g id="line2d_38">
      <path d="M 401.025762 428.246606 
L 401.025762 245.21696 
" clip-path="url(#pd5c73ed6f2)" style="fill: none; stroke: #cccccc; stroke-linecap: round"/>
     </g>
     <g id="text_31">
      <!-- $\mathdefault{10^{2}}$ -->
      <g style="fill: #262626" transform="translate(389.800262 452.493481) scale(0.143 -0.143)">
       <use xlink:href="#ArialMT-31" transform="translate(0 0.99375)"/>
       <use xlink:href="#ArialMT-30" transform="translate(55.615234 0.99375)"/>
       <use xlink:href="#ArialMT-32" transform="translate(112.972813 70.6875) scale(0.7)"/>
      </g>
     </g>
    </g>
    <g id="xtick_15">
     <g id="line2d_39">
      <path d="M 455.260824 428.246606 
L 455.260824 245.21696 
" clip-path="url(#pd5c73ed6f2)" style="fill: none; stroke: #cccccc; stroke-linecap: round"/>
     </g>
     <g id="text_32">
      <!-- $\mathdefault{10^{4}}$ -->
      <g style="fill: #262626" transform="translate(444.035324 452.350481) scale(0.143 -0.143)">
       <use xlink:href="#ArialMT-31" transform="translate(0 0.201563)"/>
       <use xlink:href="#ArialMT-30" transform="translate(55.615234 0.201563)"/>
       <use xlink:href="#ArialMT-34" transform="translate(112.972813 69.895313) scale(0.7)"/>
      </g>
     </g>
    </g>
    <g id="xtick_16">
     <g id="line2d_40">
      <path d="M 509.495886 428.246606 
L 509.495886 245.21696 
" clip-path="url(#pd5c73ed6f2)" style="fill: none; stroke: #cccccc; stroke-linecap: round"/>
     </g>
     <g id="text_33">
      <!-- $\mathdefault{10^{6}}$ -->
      <g style="fill: #262626" transform="translate(498.270386 452.493481) scale(0.143 -0.143)">
       <use xlink:href="#ArialMT-31" transform="translate(0 0.99375)"/>
       <use xlink:href="#ArialMT-30" transform="translate(55.615234 0.99375)"/>
       <use xlink:href="#ArialMT-36" transform="translate(112.972813 70.6875) scale(0.7)"/>
      </g>
     </g>
    </g>
    <g id="text_34">
     <!-- Soil Suction (kPa) -->
     <g style="fill: #262626" transform="translate(366.152793 470.691919) scale(0.156 -0.156)">
      <use xlink:href="#ArialMT-53"/>
      <use xlink:href="#ArialMT-6f" transform="translate(66.699219 0)"/>
      <use xlink:href="#ArialMT-69" transform="translate(122.314453 0)"/>
      <use xlink:href="#ArialMT-6c" transform="translate(144.53125 0)"/>
      <use xlink:href="#ArialMT-20" transform="translate(166.748047 0)"/>
      <use xlink:href="#ArialMT-53" transform="translate(194.53125 0)"/>
      <use xlink:href="#ArialMT-75" transform="translate(261.230469 0)"/>
      <use xlink:href="#ArialMT-63" transform="translate(316.845703 0)"/>
      <use xlink:href="#ArialMT-74" transform="translate(366.845703 0)"/>
      <use xlink:href="#ArialMT-69" transform="translate(394.628906 0)"/>
      <use xlink:href="#ArialMT-6f" transform="translate(416.845703 0)"/>
      <use xlink:href="#ArialMT-6e" transform="translate(472.460938 0)"/>
      <use xlink:href="#ArialMT-20" transform="translate(528.076172 0)"/>
      <use xlink:href="#ArialMT-28" transform="translate(555.859375 0)"/>
      <use xlink:href="#ArialMT-6b" transform="translate(589.160156 0)"/>
      <use xlink:href="#ArialMT-50" transform="translate(639.160156 0)"/>
      <use xlink:href="#ArialMT-61" transform="translate(705.859375 0)"/>
      <use xlink:href="#ArialMT-29" transform="translate(761.474609 0)"/>
     </g>
    </g>
   </g>
   <g id="matplotlib.axis_8">
    <g id="ytick_16">
     <g id="line2d_41">
      <path d="M 308.826156 423.041052 
L 547.460429 423.041052 
" clip-path="url(#pd5c73ed6f2)" style="fill: none; stroke: #cccccc; stroke-linecap: round"/>
     </g>
    </g>
    <g id="ytick_17">
     <g id="line2d_42">
      <path d="M 308.826156 379.908321 
L 547.460429 379.908321 
" clip-path="url(#pd5c73ed6f2)" style="fill: none; stroke: #cccccc; stroke-linecap: round"/>
     </g>
    </g>
    <g id="ytick_18">
     <g id="line2d_43">
      <path d="M 308.826156 336.77559 
L 547.460429 336.77559 
" clip-path="url(#pd5c73ed6f2)" style="fill: none; stroke: #cccccc; stroke-linecap: round"/>
     </g>
    </g>
    <g id="ytick_19">
     <g id="line2d_44">
      <path d="M 308.826156 293.642859 
L 547.460429 293.642859 
" clip-path="url(#pd5c73ed6f2)" style="fill: none; stroke: #cccccc; stroke-linecap: round"/>
     </g>
    </g>
    <g id="ytick_20">
     <g id="line2d_45">
      <path d="M 308.826156 250.510127 
L 547.460429 250.510127 
" clip-path="url(#pd5c73ed6f2)" style="fill: none; stroke: #cccccc; stroke-linecap: round"/>
     </g>
    </g>
   </g>
   <g id="line2d_46">
    <path d="M 319.673169 312.198745 
L 321.864484 312.200832 
L 324.0558 312.203413 
L 326.247116 312.206605 
L 328.438431 312.210551 
L 330.629747 312.215431 
L 332.821062 312.221463 
L 335.012378 312.228919 
L 337.203694 312.238133 
L 339.395009 312.249519 
L 341.586325 312.263583 
L 343.777641 312.28095 
L 345.968956 312.302388 
L 348.160272 312.328836 
L 350.351588 312.361447 
L 352.542903 312.401626 
L 354.734219 312.451083 
L 356.925534 312.511893 
L 359.11685 312.586557 
L 361.308166 312.678077 
L 363.499481 312.790027 
L 365.690797 312.926628 
L 367.882113 313.092805 
L 370.073428 313.294234 
L 372.264744 313.537341 
L 374.45606 313.829259 
L 376.647375 314.177697 
L 378.838691 314.590722 
L 381.030006 315.076429 
L 383.221322 315.642502 
L 385.412638 316.295683 
L 387.603953 317.041198 
L 389.795269 317.882211 
L 391.986585 318.819387 
L 394.1779 319.850642 
L 396.369216 320.971142 
L 398.560532 322.173561 
L 400.751847 323.448552 
L 402.943163 324.785366 
L 405.134478 326.172526 
L 407.325794 327.598455 
L 409.51711 329.052007 
L 411.708425 330.522863 
L 413.899741 332.001779 
L 416.091057 333.480711 
L 418.282372 334.952832 
L 420.473688 336.412483 
L 422.665004 337.855072 
L 424.856319 339.276956 
L 427.047635 340.675309 
L 429.238951 342.048001 
L 431.430266 343.393472 
L 433.621582 344.71064 
L 435.812897 345.998804 
L 438.004213 347.257571 
L 440.195529 348.486792 
L 442.386844 349.68651 
L 444.57816 350.856918 
L 446.769476 351.998326 
L 448.960791 353.111131 
L 451.152107 354.195793 
L 453.343423 355.252826 
L 455.534738 356.282774 
L 457.726054 357.286207 
L 459.917369 358.263709 
L 462.108685 359.215872 
L 464.300001 360.143293 
L 466.491316 361.046566 
L 468.682632 361.926281 
L 470.873948 362.783025 
L 473.065263 363.617372 
L 475.256579 364.42989 
L 477.447895 365.221135 
L 479.63921 365.991653 
L 481.830526 366.741978 
L 484.021841 367.472632 
L 486.213157 368.184125 
L 488.404473 368.876955 
L 490.595788 369.551608 
L 492.787104 370.208559 
L 494.97842 370.848269 
L 497.169735 371.47119 
L 499.361051 372.07776 
L 501.552367 372.668408 
L 503.743682 373.243551 
L 505.934998 373.803595 
L 508.126313 374.348937 
L 510.317629 374.879962 
L 512.508945 375.397044 
L 514.70026 375.900551 
L 516.891576 376.390838 
L 519.082892 376.868253 
L 521.274207 377.333133 
L 523.465523 377.785806 
L 525.656839 378.226595 
L 527.848154 378.65581 
L 530.03947 379.073755 
L 532.230785 379.480727 
L 534.422101 379.877012 
L 536.613417 380.262893 
" clip-path="url(#pd5c73ed6f2)" style="fill: none; stroke-dasharray: 11.1,4.8; stroke-dashoffset: 0; stroke: #4c72b0; stroke-width: 3"/>
   </g>
   <g id="line2d_47">
    <path d="M 319.673169 331.611379 
L 321.864484 331.614286 
L 324.0558 331.617915 
L 326.247116 331.622442 
L 328.438431 331.628092 
L 330.629747 331.63514 
L 332.821062 331.643932 
L 335.012378 331.654897 
L 337.203694 331.66857 
L 339.395009 331.685615 
L 341.586325 331.706855 
L 343.777641 331.733313 
L 345.968956 331.766251 
L 348.160272 331.807232 
L 350.351588 331.858177 
L 352.542903 331.921445 
L 354.734219 331.999919 
L 356.925534 332.097102 
L 359.11685 332.217227 
L 361.308166 332.365366 
L 363.499481 332.54753 
L 365.690797 332.770763 
L 367.882113 333.04318 
L 370.073428 333.373954 
L 372.264744 333.773198 
L 374.45606 334.25171 
L 376.647375 334.820562 
L 378.838691 335.490508 
L 381.030006 336.271218 
L 383.221322 337.170419 
L 385.412638 338.19301 
L 387.603953 339.340323 
L 389.795269 340.609641 
L 391.986585 341.994115 
L 394.1779 343.483096 
L 396.369216 345.062856 
L 398.560532 346.717567 
L 400.751847 348.430374 
L 402.943163 350.184417 
L 405.134478 351.963664 
L 407.325794 353.753522 
L 409.51711 355.541195 
L 411.708425 357.315828 
L 413.899741 359.068496 
L 416.091057 360.79207 
L 418.282372 362.481032 
L 420.473688 364.13125 
L 422.665004 365.739762 
L 424.856319 367.304569 
L 427.047635 368.824448 
L 429.238951 370.298795 
L 431.430266 371.727488 
L 433.621582 373.110783 
L 435.812897 374.449217 
L 438.004213 375.743542 
L 440.195529 376.994663 
L 442.386844 378.203599 
L 444.57816 379.371442 
L 446.769476 380.499333 
L 448.960791 381.588441 
L 451.152107 382.639946 
L 453.343423 383.655028 
L 455.534738 384.634857 
L 457.726054 385.580587 
L 459.917369 386.493348 
L 462.108685 387.374247 
L 464.300001 388.224365 
L 466.491316 389.04475 
L 468.682632 389.836424 
L 470.873948 390.600376 
L 473.065263 391.337565 
L 475.256579 392.048919 
L 477.447895 392.735337 
L 479.63921 393.397687 
L 481.830526 394.03681 
L 484.021841 394.653516 
L 486.213157 395.248589 
L 488.404473 395.822787 
L 490.595788 396.376839 
L 492.787104 396.911452 
L 494.97842 397.427306 
L 497.169735 397.92506 
L 499.361051 398.405348 
L 501.552367 398.868782 
L 503.743682 399.315953 
L 505.934998 399.747432 
L 508.126313 400.163769 
L 510.317629 400.565496 
L 512.508945 400.953125 
L 514.70026 401.327151 
L 516.891576 401.688051 
L 519.082892 402.036285 
L 521.274207 402.372299 
L 523.465523 402.69652 
L 525.656839 403.009364 
L 527.848154 403.311228 
L 530.03947 403.602499 
L 532.230785 403.883547 
L 534.422101 404.154733 
L 536.613417 404.416402 
" clip-path="url(#pd5c73ed6f2)" style="fill: none; stroke-dasharray: 19.2,4.8,3,4.8; stroke-dashoffset: 0; stroke: #dd8452; stroke-width: 3"/>
   </g>
   <g id="line2d_48">
    <path d="M 319.673169 329.445007 
L 321.864484 329.445509 
L 324.0558 329.446139 
L 326.247116 329.446928 
L 328.438431 329.447916 
L 330.629747 329.449156 
L 332.821062 329.450709 
L 335.012378 329.452655 
L 337.203694 329.455094 
L 339.395009 329.458151 
L 341.586325 329.461982 
L 343.777641 329.466781 
L 345.968956 329.472795 
L 348.160272 329.480328 
L 350.351588 329.489765 
L 352.542903 329.501583 
L 354.734219 329.51638 
L 356.925534 329.534904 
L 359.11685 329.558083 
L 361.308166 329.587078 
L 363.499481 329.623327 
L 365.690797 329.668617 
L 367.882113 329.725157 
L 370.073428 329.795672 
L 372.264744 329.883505 
L 374.45606 329.992743 
L 376.647375 330.128344 
L 378.838691 330.296274 
L 381.030006 330.503643 
L 383.221322 330.758816 
L 385.412638 331.071473 
L 387.603953 331.452598 
L 389.795269 331.914336 
L 391.986585 332.469686 
L 394.1779 333.131985 
L 396.369216 333.914155 
L 398.560532 334.82774 
L 400.751847 335.881807 
L 402.943163 337.081829 
L 405.134478 338.428754 
L 407.325794 339.918435 
L 409.51711 341.541574 
L 411.708425 343.284217 
L 413.899741 345.128744 
L 416.091057 347.055161 
L 418.282372 349.042492 
L 420.473688 351.070055 
L 422.665004 353.118482 
L 424.856319 355.170424 
L 427.047635 357.210924 
L 429.238951 359.227541 
L 431.430266 361.210264 
L 433.621582 363.151304 
L 435.812897 365.044821 
L 438.004213 366.886634 
L 440.195529 368.673928 
L 442.386844 370.404996 
L 444.57816 372.07901 
L 446.769476 373.695828 
L 448.960791 375.255835 
L 451.152107 376.759809 
L 453.343423 378.208824 
L 455.534738 379.604162 
L 457.726054 380.947253 
L 459.917369 382.239623 
L 462.108685 383.482855 
L 464.300001 384.678565 
L 466.491316 385.828372 
L 468.682632 386.933889 
L 470.873948 387.996706 
L 473.065263 389.018385 
L 475.256579 390.00045 
L 477.447895 390.944385 
L 479.63921 391.851629 
L 481.830526 392.72358 
L 484.021841 393.561586 
L 486.213157 394.36695 
L 488.404473 395.14093 
L 490.595788 395.88474 
L 492.787104 396.599545 
L 494.97842 397.286473 
L 497.169735 397.946604 
L 499.361051 398.58098 
L 501.552367 399.190604 
L 503.743682 399.77644 
L 505.934998 400.339413 
L 508.126313 400.880414 
L 510.317629 401.400301 
L 512.508945 401.899897 
L 514.70026 402.379993 
L 516.891576 402.841349 
L 519.082892 403.284697 
L 521.274207 403.710739 
L 523.465523 404.120151 
L 525.656839 404.513582 
L 527.848154 404.891656 
L 530.03947 405.254971 
L 532.230785 405.604104 
L 534.422101 405.939608 
L 536.613417 406.262016 
" clip-path="url(#pd5c73ed6f2)" style="fill: none; stroke: #55a868; stroke-width: 3; stroke-linecap: round"/>
   </g>
   <g id="patch_18">
    <path d="M 308.826156 428.246606 
L 308.826156 245.21696 
" style="fill: none; stroke: #cccccc; stroke-width: 1.25; stroke-linejoin: miter; stroke-linecap: square"/>
   </g>
   <g id="patch_19">
    <path d="M 547.460429 428.246606 
L 547.460429 245.21696 
" style="fill: none; stroke: #cccccc; stroke-width: 1.25; stroke-linejoin: miter; stroke-linecap: square"/>
   </g>
   <g id="patch_20">
    <path d="M 308.826156 428.246606 
L 547.460429 428.246606 
" style="fill: none; stroke: #cccccc; stroke-width: 1.25; stroke-linejoin: miter; stroke-linecap: square"/>
   </g>
   <g id="patch_21">
    <path d="M 308.826156 245.21696 
L 547.460429 245.21696 
" style="fill: none; stroke: #cccccc; stroke-width: 1.25; stroke-linejoin: miter; stroke-linecap: square"/>
   </g>
   <g id="text_35">
    <!-- $Ks$ = 9.9 -->
    <g style="fill: #4c72b0" transform="translate(320.75787 373.337712) scale(0.13 -0.13)">
     <use xlink:href="#DejaVuSans-Oblique-4b" transform="translate(0 0.09375)"/>
     <use xlink:href="#DejaVuSans-Oblique-73" transform="translate(65.576172 0.09375)"/>
     <use xlink:href="#ArialMT-20" transform="translate(117.675781 0.09375)"/>
     <use xlink:href="#ArialMT-3d" transform="translate(145.458984 0.09375)"/>
     <use xlink:href="#ArialMT-20" transform="translate(203.857422 0.09375)"/>
     <use xlink:href="#ArialMT-39" transform="translate(231.640625 0.09375)"/>
     <use xlink:href="#ArialMT-2e" transform="translate(287.255859 0.09375)"/>
     <use xlink:href="#ArialMT-39" transform="translate(315.039062 0.09375)"/>
    </g>
   </g>
   <g id="text_36">
    <!-- $Ks$ = 13.0 -->
    <g style="fill: #dd8452" transform="translate(320.75787 391.640677) scale(0.13 -0.13)">
     <use xlink:href="#DejaVuSans-Oblique-4b" transform="translate(0 0.09375)"/>
     <use xlink:href="#DejaVuSans-Oblique-73" transform="translate(65.576172 0.09375)"/>
     <use xlink:href="#ArialMT-20" transform="translate(117.675781 0.09375)"/>
     <use xlink:href="#ArialMT-3d" transform="translate(145.458984 0.09375)"/>
     <use xlink:href="#ArialMT-20" transform="translate(203.857422 0.09375)"/>
     <use xlink:href="#ArialMT-31" transform="translate(231.640625 0.09375)"/>
     <use xlink:href="#ArialMT-33" transform="translate(287.255859 0.09375)"/>
     <use xlink:href="#ArialMT-2e" transform="translate(342.871094 0.09375)"/>
     <use xlink:href="#ArialMT-30" transform="translate(370.654297 0.09375)"/>
    </g>
   </g>
   <g id="text_37">
    <!-- $Ks$ = 4.5 -->
    <g style="fill: #55a868" transform="translate(320.75787 409.943642) scale(0.13 -0.13)">
     <use xlink:href="#DejaVuSans-Oblique-4b" transform="translate(0 0.09375)"/>
     <use xlink:href="#DejaVuSans-Oblique-73" transform="translate(65.576172 0.09375)"/>
     <use xlink:href="#ArialMT-20" transform="translate(117.675781 0.09375)"/>
     <use xlink:href="#ArialMT-3d" transform="translate(145.458984 0.09375)"/>
     <use xlink:href="#ArialMT-20" transform="translate(203.857422 0.09375)"/>
     <use xlink:href="#ArialMT-34" transform="translate(231.640625 0.09375)"/>
     <use xlink:href="#ArialMT-2e" transform="translate(287.255859 0.09375)"/>
     <use xlink:href="#ArialMT-35" transform="translate(315.039062 0.09375)"/>
    </g>
   </g>
   <g id="text_38">
    <!-- Silty Clay -->
    <g style="fill: #262626" transform="translate(395.636793 239.21696) scale(0.156 -0.156)">
     <use xlink:href="#ArialMT-53"/>
     <use xlink:href="#ArialMT-69" transform="translate(66.699219 0)"/>
     <use xlink:href="#ArialMT-6c" transform="translate(88.916016 0)"/>
     <use xlink:href="#ArialMT-74" transform="translate(111.132812 0)"/>
     <use xlink:href="#ArialMT-79" transform="translate(138.916016 0)"/>
     <use xlink:href="#ArialMT-20" transform="translate(188.916016 0)"/>
     <use xlink:href="#ArialMT-43" transform="translate(216.699219 0)"/>
     <use xlink:href="#ArialMT-6c" transform="translate(288.916016 0)"/>
     <use xlink:href="#ArialMT-61" transform="translate(311.132812 0)"/>
     <use xlink:href="#ArialMT-79" transform="translate(366.748047 0)"/>
    </g>
   </g>
   <g id="legend_1">
    <g id="line2d_49">
     <path d="M 391.401992 262.937897 
L 405.401992 262.937897 
L 419.401992 262.937897 
" style="fill: none; stroke-dasharray: 11.1,4.8; stroke-dashoffset: 0; stroke: #4c72b0; stroke-width: 3"/>
    </g>
    <g id="text_39">
     <!-- Intact -->
     <g style="fill: #262626" transform="translate(430.601992 267.837897) scale(0.14 -0.14)">
      <defs>
       <path id="ArialMT-49" d="M 597 0 
L 597 4581 
L 1203 4581 
L 1203 0 
L 597 0 
z
" transform="scale(0.015625)"/>
      </defs>
      <use xlink:href="#ArialMT-49"/>
      <use xlink:href="#ArialMT-6e" transform="translate(27.783203 0)"/>
      <use xlink:href="#ArialMT-74" transform="translate(83.398438 0)"/>
      <use xlink:href="#ArialMT-61" transform="translate(111.181641 0)"/>
      <use xlink:href="#ArialMT-63" transform="translate(166.796875 0)"/>
      <use xlink:href="#ArialMT-74" transform="translate(216.796875 0)"/>
     </g>
    </g>
    <g id="line2d_50">
     <path d="M 391.401992 282.741335 
L 405.401992 282.741335 
L 419.401992 282.741335 
" style="fill: none; stroke-dasharray: 19.2,4.8,3,4.8; stroke-dashoffset: 0; stroke: #dd8452; stroke-width: 3"/>
    </g>
    <g id="text_40">
     <!-- Repacked -->
     <g style="fill: #262626" transform="translate(430.601992 287.641335) scale(0.14 -0.14)">
      <defs>
       <path id="ArialMT-52" d="M 503 0 
L 503 4581 
L 2534 4581 
Q 3147 4581 3465 4457 
Q 3784 4334 3975 4021 
Q 4166 3709 4166 3331 
Q 4166 2844 3850 2509 
Q 3534 2175 2875 2084 
Q 3116 1969 3241 1856 
Q 3506 1613 3744 1247 
L 4541 0 
L 3778 0 
L 3172 953 
Q 2906 1366 2734 1584 
Q 2563 1803 2427 1890 
Q 2291 1978 2150 2013 
Q 2047 2034 1813 2034 
L 1109 2034 
L 1109 0 
L 503 0 
z
M 1109 2559 
L 2413 2559 
Q 2828 2559 3062 2645 
Q 3297 2731 3419 2920 
Q 3541 3109 3541 3331 
Q 3541 3656 3305 3865 
Q 3069 4075 2559 4075 
L 1109 4075 
L 1109 2559 
z
" transform="scale(0.015625)"/>
       <path id="ArialMT-70" d="M 422 -1272 
L 422 3319 
L 934 3319 
L 934 2888 
Q 1116 3141 1344 3267 
Q 1572 3394 1897 3394 
Q 2322 3394 2647 3175 
Q 2972 2956 3137 2557 
Q 3303 2159 3303 1684 
Q 3303 1175 3120 767 
Q 2938 359 2589 142 
Q 2241 -75 1856 -75 
Q 1575 -75 1351 44 
Q 1128 163 984 344 
L 984 -1272 
L 422 -1272 
z
M 931 1641 
Q 931 1000 1190 694 
Q 1450 388 1819 388 
Q 2194 388 2461 705 
Q 2728 1022 2728 1688 
Q 2728 2322 2467 2637 
Q 2206 2953 1844 2953 
Q 1484 2953 1207 2617 
Q 931 2281 931 1641 
z
" transform="scale(0.015625)"/>
      </defs>
      <use xlink:href="#ArialMT-52"/>
      <use xlink:href="#ArialMT-65" transform="translate(72.216797 0)"/>
      <use xlink:href="#ArialMT-70" transform="translate(127.832031 0)"/>
      <use xlink:href="#ArialMT-61" transform="translate(183.447266 0)"/>
      <use xlink:href="#ArialMT-63" transform="translate(239.0625 0)"/>
      <use xlink:href="#ArialMT-6b" transform="translate(289.0625 0)"/>
      <use xlink:href="#ArialMT-65" transform="translate(339.0625 0)"/>
      <use xlink:href="#ArialMT-64" transform="translate(394.677734 0)"/>
     </g>
    </g>
    <g id="line2d_51">
     <path d="M 391.401992 302.715397 
L 405.401992 302.715397 
L 419.401992 302.715397 
" style="fill: none; stroke: #55a868; stroke-width: 3; stroke-linecap: round"/>
    </g>
    <g id="text_41">
     <!-- HiHydroSoil v2.0 -->
     <g style="fill: #262626" transform="translate(430.601992 307.615397) scale(0.14 -0.14)">
      <defs>
       <path id="ArialMT-48" d="M 513 0 
L 513 4581 
L 1119 4581 
L 1119 2700 
L 3500 2700 
L 3500 4581 
L 4106 4581 
L 4106 0 
L 3500 0 
L 3500 2159 
L 1119 2159 
L 1119 0 
L 513 0 
z
" transform="scale(0.015625)"/>
       <path id="ArialMT-76" d="M 1344 0 
L 81 3319 
L 675 3319 
L 1388 1331 
Q 1503 1009 1600 663 
Q 1675 925 1809 1294 
L 2547 3319 
L 3125 3319 
L 1869 0 
L 1344 0 
z
" transform="scale(0.015625)"/>
      </defs>
      <use xlink:href="#ArialMT-48"/>
      <use xlink:href="#ArialMT-69" transform="translate(72.216797 0)"/>
      <use xlink:href="#ArialMT-48" transform="translate(94.433594 0)"/>
      <use xlink:href="#ArialMT-79" transform="translate(166.650391 0)"/>
      <use xlink:href="#ArialMT-64" transform="translate(216.650391 0)"/>
      <use xlink:href="#ArialMT-72" transform="translate(272.265625 0)"/>
      <use xlink:href="#ArialMT-6f" transform="translate(305.566406 0)"/>
      <use xlink:href="#ArialMT-53" transform="translate(361.181641 0)"/>
      <use xlink:href="#ArialMT-6f" transform="translate(427.880859 0)"/>
      <use xlink:href="#ArialMT-69" transform="translate(483.496094 0)"/>
      <use xlink:href="#ArialMT-6c" transform="translate(505.712891 0)"/>
      <use xlink:href="#ArialMT-20" transform="translate(527.929688 0)"/>
      <use xlink:href="#ArialMT-76" transform="translate(555.712891 0)"/>
      <use xlink:href="#ArialMT-32" transform="translate(605.712891 0)"/>
      <use xlink:href="#ArialMT-2e" transform="translate(661.328125 0)"/>
      <use xlink:href="#ArialMT-30" transform="translate(689.111328 0)"/>
     </g>
    </g>
   </g>
  </g>
 </g>
 <defs>
  <clipPath id="p08911b5684">
   <rect x="51.243906" y="24.556312" width="238.634273" height="183.029647"/>
  </clipPath>
  <clipPath id="p097d5aa9c9">
   <rect x="308.826156" y="24.556312" width="238.634273" height="183.029647"/>
  </clipPath>
  <clipPath id="pa443239ffc">
   <rect x="51.243906" y="245.21696" width="238.634273" height="183.029647"/>
  </clipPath>
  <clipPath id="pd5c73ed6f2">
   <rect x="308.826156" y="245.21696" width="238.634273" height="183.029647"/>
  </clipPath>
 </defs>
</svg>
